/* XPM */
static char *_31afa19d4674fd1c11eb61c0d23e3ccF5Yuk0TOIsHOvqWE[] = {
/* columns rows colors chars-per-pixel */
"70 70 242 2 ",
"   c None",
".  c #17171E",
"X  c #3C211B",
"o  c #161A26",
"O  c #1A1C25",
"+  c #191C28",
"@  c #0F1521",
"#  c #251C24",
"$  c #1C212A",
"%  c #1E2632",
"&  c #24272C",
"*  c #2B2C34",
"=  c #262B36",
"-  c #382D37",
";  c #2D333A",
":  c #33343C",
">  c #3B353B",
",  c #3A373B",
"<  c #3C2B2E",
"1  c #381F17",
"2  c #48251B",
"3  c #522717",
"4  c #552812",
"5  c #6A371C",
"6  c #7C3A1C",
"7  c #733A1E",
"8  c #4B2D24",
"9  c #532D23",
"0  c #582E28",
"q  c #5B3226",
"w  c #5B332A",
"e  c #563329",
"r  c #443839",
"t  c #593C3B",
"y  c #563837",
"u  c #4D3125",
"i  c #683A28",
"p  c #743C23",
"a  c #7B3B22",
"s  c #773A27",
"d  c #663C34",
"f  c #421C12",
"g  c #7D411E",
"h  c #59423B",
"j  c #6D412B",
"k  c #7A4327",
"l  c #6B453A",
"z  c #764B39",
"x  c #7A523E",
"c  c #393A47",
"v  c #2E3543",
"b  c #473E46",
"n  c #5A3E42",
"m  c #3C434E",
"M  c #4B444C",
"N  c #49454A",
"B  c #53444B",
"V  c #594749",
"C  c #4D4B55",
"Z  c #4D4C5C",
"A  c #494655",
"S  c #534A54",
"D  c #5C4C52",
"F  c #544D5A",
"G  c #544955",
"H  c #4C525C",
"J  c #5B535D",
"K  c #595358",
"L  c #5E514C",
"P  c #6B4C43",
"I  c #674B49",
"U  c #774F44",
"Y  c #6C524C",
"T  c #64514D",
"R  c #7C5344",
"E  c #74554B",
"W  c #7C5A4D",
"Q  c #785549",
"!  c #654E55",
"~  c #6B5455",
"^  c #6D595A",
"/  c #675559",
"(  c #735C5B",
")  c #7B5C5A",
"_  c #775A54",
"`  c #7A6259",
"'  c #544E62",
"]  c #4E5464",
"[  c #545365",
"{  c #5C5563",
"}  c #555469",
"|  c #59566A",
" . c #56596B",
".. c #5B5B6C",
"X. c #575A65",
"o. c #5D5D71",
"O. c #5E5772",
"+. c #4D4D67",
"@. c #625562",
"#. c #665B67",
"$. c #725C62",
"%. c #635E73",
"&. c #5B6569",
"*. c #5D6275",
"=. c #63636D",
"-. c #6A656C",
";. c #756467",
":. c #636374",
">. c #6D6C74",
",. c #676976",
"<. c #736B77",
"1. c #697479",
"2. c #73717B",
"3. c #72787C",
"4. c #834B2C",
"5. c #8B4C2B",
"6. c #844725",
"7. c #8C522B",
"8. c #92532D",
"9. c #9A572D",
"0. c #864E34",
"q. c #88543A",
"w. c #935433",
"e. c #985B38",
"r. c #914E2C",
"t. c #A35E38",
"y. c #9C623C",
"u. c #A4613C",
"i. c #AA653C",
"p. c #B36D3D",
"a. c #B2653A",
"s. c #B6723E",
"d. c #C3703C",
"f. c #835B45",
"g. c #8C5C43",
"h. c #865948",
"j. c #935D44",
"k. c #965D4A",
"l. c #845E53",
"z. c #8B624D",
"x. c #9B644A",
"c. c #996548",
"v. c #896456",
"b. c #976955",
"n. c #937059",
"m. c #AA6541",
"M. c #A66944",
"N. c #AC6B44",
"B. c #A56B4B",
"V. c #AB6C4B",
"C. c #A36546",
"Z. c #B36D44",
"A. c #B96E44",
"S. c #B46E4A",
"D. c #B86D49",
"F. c #AC714C",
"G. c #AB7047",
"H. c #B47145",
"J. c #BB7245",
"K. c #B4724B",
"L. c #BC734B",
"P. c #BF794D",
"I. c #A36C53",
"U. c #AA6C55",
"Y. c #B46E51",
"T. c #AB7255",
"R. c #B47453",
"E. c #BD7A53",
"W. c #B97857",
"Q. c #8F736E",
"!. c #A47662",
"~. c #A25F45",
"^. c #C1754B",
"/. c #C3794C",
"(. c #C37545",
"). c #C37A53",
"_. c #C47958",
"`. c #C16E41",
"'. c #82391A",
"]. c #7F807D",
"[. c #737D84",
"{. c #6E7B81",
"}. c #748283",
"|. c #7B8386",
" X c #7B858A",
".X c #7B898D",
"XX c #76878A",
"oX c #7E8C93",
"OX c #7F9094",
"+X c #82898C",
"@X c #828D93",
"#X c #888F95",
"$X c #839295",
"%X c #85959A",
"&X c #8A969C",
"*X c #8C9A9C",
"=X c #88989A",
"-X c #91989B",
";X c #8B948E",
":X c #8D9CA2",
">X c #929DA2",
",X c #949FAC",
"<X c #93A2A5",
"1X c #94A4A9",
"2X c #9AA6AB",
"3X c #9BAAAD",
"4X c #99A4A7",
"5X c #9DACB2",
"6X c #98A9B4",
"7X c #97AAAE",
"8X c #A2ACAE",
"9X c #A2A6AB",
"0X c #A2ADB3",
"qX c #A6AFBC",
"wX c #A4B2B4",
"eX c #AAB3B5",
"rX c #A5B4BA",
"tX c #AAB5BA",
"yX c #ACBABC",
"uX c #A7B9BB",
"iX c #B3BCBD",
"pX c #B0B7BA",
"aX c #8EA29F",
"sX c #B0C7BE",
"dX c #ADBBC1",
"fX c #ADBDC9",
"gX c #B4BDC1",
"hX c #BABFC2",
"jX c #B4C1C4",
"kX c #BBC3C5",
"lX c #BCCACC",
"zX c #B8C5CB",
"xX c #B3C7CE",
"cX c #C4CBCC",
"vX c #C2C7C8",
"bX c #C3CED1",
"nX c #C4D2D5",
"mX c #CBD3D4",
"MX c #C8D6DA",
"NX c #D4D8DA",
"BX c #EAEBEC",
"VX c #CEDDE2",
/* pixels */
"                                                                                                                                            ",
"                                                                                                                                            ",
"                                                                                                                                            ",
"                                                                                                                                            ",
"                                                                                                                                            ",
"                                                                                                                                            ",
"                                                          kX9XXX4XiXiXwXyXsXpXpXpXpX                                                        ",
"                                                      iXeX8X5X3X=XjXnXlXnXMXNXlX-X@XwXvX                                                    ",
"                                                  iX1.5X2X1X:X5XjX6XrXqXjXlXbX3X3XdXsX4X+XlXNX                                              ",
"                                            kXiXkXbX*X<X0X7X:X1XjXdXrX>X0X9XuXjXiXeXjX*X<XuXeXyXcX                                          ",
"                                        cX*X.X8XlXlXaX.XrXwX5X6XdXdX5X>X0XrXwXuXdXjXlXXX0XyXdXtXeXeXNX                                      ",
"                                    lXXX2X9XwX<X1X1X=XXX0XuXrX0X,X{.H c H |.4XiXlXmXwX$XdXrXqX5XwXwX2X4XNX                                  ",
"                                  yX4X&.XX>X*X<X7XwXdX=X@X>X2.A = o + + o O * H |.9X|.4XtX6X:X:XaX4X1.1.wXjX                                ",
"                              mX0XuXuXaX,.4X&X$XaX3XeX1.$ $ @ o * c A M b c * O . & * $XtX5X:X%X<X<X&.eXnXwX8XNX                            ",
"                            cX5XwX0XtXuXOX.X3X=X4X-XK O o = b M F F Z S Z F C r , * o % =.0X0X1X7XXX<XMXMXzX4X0XNX                          ",
"                          cX9X5X7X<X3XwXwX$X<X<X1.* O ; m K ) P b A Z F Z A B r V S c = $ c  X0XOX].7XwX5X3XyXpXeXNX                        ",
"                          eXrX7X0XaX&X%X7X1X1.v o & N ^ _ b.x.i n A ' F F C B 2 i R P L c % $ N }.wXsXyX%X0XjXjXrXeX                        ",
"                        kX=XoXOX6XuX2X%X*X[.% % N / ` n.0.q.c.i y Z [ F ' ' b 3 k 0.q.n.Y L : O c *XlX<X%X<X3X0XwX8X                        ",
"                        }.].aXrXuXdXgXqX3.= = C ^ z y.b.P ) k.p r %. .+.| %.n 3 p x P z.q.v.T m $ , |.[.3X=X1X3XwXXX*X                      ",
"                      kX|.&.OXuXuXtX0X[.% : F ) b.7.p.z.Q.Q.k.p t '  .F | { D 3 i _ Q._ q.F.c.~ N = = |.2XaX7X3X].&.XXcX                    ",
"                    kXpXuX<X&..XwXwX{.% ; S Y R B.t.s.K.h.k.B.7 n | O.Z ..[ ! 9 i z.!.g.w.J.Z.z.T N % v +X0X<X1.1.wXlXyXiX                  ",
"                  cXeXpXyXdXrX[.1.&.% ; K ` z k F.H.s./.8.m.S.p n ' o.Z ..H V 0 a R.F.m.e.J.s.u.j Y N & * 2.,. X.XXXXXOX4X                  ",
"                  eXyX0XyXuXdXpX,.@ & S W n.4.6.K.K.D.E.9.m.V.i y %.o.Z ..:.G w a J./.a.e.L.J.t.g b.Y , & . +X0XwX7X=X5XyXiX                ",
"                  wXuXwXuXyXdXdXX.O N ~ c.H.6.6.D.D.E._.9.N.S.s n %.*.C ..%.D q a ^.^.N.y.R.K.y.k V.c.I > O [.3X1X<XrXrXyXeX                ",
"                vXrXuXuX5X7X5X,X= v L z G.H.6.4.P.J.^._.e.N.D.7 n O.:.Z o.| ! q k E.).Z.t.^.J.C.k Z.p.W M & m 3X<X=X:X:XrXwXNX              ",
"                pX0X5X1X=XOX<X&.& A ^ 4.p.Z.k 7./.L./._.e.N.D.a n O.:.C o.o.D w a ^.^.N.u.D.(.u.k G.p.k.n r & $X7X<X1X:X6X0XcX              ",
"                jXwX5XOX.XOX*X; v L z.4.M.c.j k /.J./._.w.N.K.a n +.o.C ..| V w k _.).Z.m.^.J.e.g F.Z.e.d B * J 6X1X1X<XtX0XmX              ",
"                eXuX7XOXoX<X|.& m P u.z E P h z )./.E._.r.N.R.a n %.,.A o.,.G 9 6.).E.m.m.D.E.j.9 R g.e.k ~ > ; =X5X6X6XtXtXvX              ",
"                >X8X>X%X:X2XH * S U j.E K / J E _.)./._.4.K.S.p t  .,.N ....D 9 4.).).m.m.N.R.h.L / $.U j g.b # 1.0X5X3X0XtXvX              ",
"                eXeX3X4X5X*X; c P R l.T P ) ~ Q _.).)._.6.K.S.7 t o.*.M ..*.K 3 5.).).m.N.m.T.E ^ ~ D ! P c.I * N 0XwX3XrX0XlX              ",
"                pX X.XXX.XH $ r R f.( L c.U.Q f.)././.W.k H.K.a t [ :.M ..| D 9 5.).^.N.N.u.R.l.W b.W / ( c.Y < o *.@X.XXX+XNX              ",
"                kXyXtX[.&XC O N E v.&.h B.I.f.z U.S.T.!.j R.K.a y  .:.M ..:.D 3 0.).P.m.m.u.L.j.z R.G.W ( b._ - o 1.4X1X3X8XbX              ",
"                sXnXMX8X2X&.# b ' / =.#.;.) $._ ( ) ^ -.^ b.I.p y ..:.b ..o.D 3 h.!.b.) _ h.z._ E l.v.$.! $.J c o |.iXjXuXuXhX              ",
"                hXbXMXbXeX..# Z {.J :.,.>.%.%.%.#.#.@.{ ;.z.B.a t  .:.b | o.! 3 0.v.;.O.O.#.#.:.,.<.{.{.{.+.| c + ].rXxXjX5XkX              ",
"                8XyXlXpX2X=.. A #.$.{ G l.k.U U b.b.b.v.l x.D.7 y | :.b ....G 3 q.b.l.~ ~ E l._ ~ $._ ! #./ -.b o +XtXxXuXwXiX              ",
"                4X*XyXuXuX=.o N v.k.;.t C.R.0.g.W.(./.W.4.m.Z.a t } :.N | } D 9 0.W.L.e.C.M.R.q.U Y.Y.l.^ b.` , + @XgX1X4X4XpX              ",
"                <X.X4XwX9X:.o b c.V.W D z l.E h.T.P.`.W.4.~.D.6 y ..:.b } %.B w 5.)./.m.m.J.W.h.U U.j.~ $.B.j.> O #X5XoX<X<XpX              ",
"                3X@X@X3XdX,.o r j.S.b.^ ! ! ^ W W.L.a.F.0.~.Y.s y | ,.b | :.D i 5./.^.m.m.P.W.W #.~ I ! _ Z.j.> O #X1XXX<X7XeX              ",
"                3X&X%X1XdX,.o r c.D.I.l ^ / V h.E.(.e.R.r.t.Y.s y { :.M | | D i 6.).^.i.i.).E.W ! { ! E q.s.e.> $ -X.X}.:X4XeX              ",
"                0X2X7X5XdX1.o b g.A.S.4.x.h.j e.L.).9.V.0.9.D.s y { :.M ..O.D w 6.E._.u.t.^./.g.d U l.I.u.p.j.r # ;X1.}.1X3XeX              ",
"                .X{. X%X%XA o r g.A.Z.5.A.K.w.t.L.R.w.b.R e.D.a 0 +.| G O.| B i a R.B.g.z._./.u.5.N.K.N.u.H.y., O &.] 1.XX{.*X              ",
"                5X}.{.:XOX; o b g.D.Z.r.Z.S.r.t.^.Z.x <.Q.Q.V.a y | %.G | :.! 9 p M.h.Q.Q.T.K.M.w.K.s.Z.a.H.q., . N OX&X=X<X9X              ",
"              mXlXdX:XjXjX{.+ r j.H.Z.5.p.K.r.i.^.m.U -.*.Q.V.a y F o.' o.} V e 7 t.^ :.<.!.(.m.w.K.D.D.Z.Z.c.- & *XxXgXjXyXeX              ",
"              NXnXrXrXxXjX[.o r g.D.Z.7.A.D.w.u.D.S.U #.-.) V.s w F o.[ O.| V 8 s B.U <.#.!.L.V.w.S.J.J.H.p.q., & <XxXzXlXyXeX              ",
"              mXyX:XuXdXfX Xo r g.Z.Z.5.Z.H.w.u.R.x.P ~ ~ P x.s w G o.| %.[ B 3 k g.l $.! h.U.m.w.S.D.J.p.p.g., & >XrXkXjXgXeX              ",
"              mX%X<XOX%X<X}.$ , f.H.u.g J.Z.8.M.C.0.U v.P 9 U d 0 ' o.| ..| G f d E h.l.U l g.B.5.D.D.L.H.i.g.- * 1X6XyXuX3X0X              ",
"              kX:X>X%X1X5X Xo r g.Z.u.g Z.Z.6.m.j.h.z.U.k.9 I s e ' o.| o...G 3 i _ I.V.0.z U I.r.D.A.L.Z.i.y.- * 0XxXyX4X4X8X              ",
"              lX0X1X<X5XtX@X+ , f.N.M.6.H.N.6.M.j.R g.U.k.0 I i e G o.o.o.] M 2 d E b.V.0.d f.C.5.D.A.A.Z.i.f.- * 3XfX3X:X3XeX              ",
"              mXwXwX5XwXeX;X$ > f.N.Z.7.D.N.k u.V.q.U x P d h.p w G ..o.o.} b 8 0.0.U z d z b.B.7.Z.H.J.H.N.R - ; 9XrX3X5XuX0X              ",
"                4X>X*XaXaX1.O > f.H.p.9.H.K.7.9.K.N.c.q.0.R I.s q M | ..o.' b 2 q.~.k.f.U b.W.B.5.H.J.p.H.M.z.- & $X<XaX*X<X4X              ",
"                $X[.=.].=X&.O > f.s.p.y.V.c.0.e.L.J.D.Y.V.7.V.6 9 @.o.o.o.%.D 3 t.D.R.V.w.K.(.m.5.N.J.p.J.p.f.- & }.$XXXXX[.@X              ",
"              mX0XeX}.yXmX-XO - x G.M.q.R P h z K.J.L.D.K.8.N.6 q S ..*.o.' M 2 w.`.L.A.9.(.(.y.i z c.i.J.p.R - ; wXrXuXyXtX0X              ",
"              cX<X9X@XwXnX-X$ - R G.x.E / J J Q F.s.H.D.S.9.M.6 q G  .:.%.' B 2 8.^.D.K.9.H.K.Q K J Y f.F.G.R > ; 5XuXsXuXtXeX              ",
"              kX%X4X<X4XmX*X$ > R N.z.L Y E ^ Q T.H.J.J.H.y.M.6 q M [ ....F B 3 5.D.D.J.w.H.R.Y ..T P ^ v.N.R < v 5X7X%X3XtXtX              ",
"              kX$X:X0X>XeX&X$ ; Q B.` P z.b.l.z B.H.d.J.Z.y.i.6 q S *. ...%.B 9 k L.L.J.w.K.K.W ` k.q.I ` M.Q < ; 1.1.5XfXdXrXmX            ",
"              gX%X@X>X,X2X.X$ : / v.^ I y.c.b.j c.G.N.B.B.y.i.g w C  .....[ M w 6.Y.R.D.w.A.(.c.h.U.b._ ^ n.T - = &.4XrXtX3XtXbX            ",
"              gX3X1X5X0XtX#XO c ' @.o.-.) ) $.$.^ ) $.#.;.z.M.6 q M ] ..o.[ B d k I.n.v.Q z.l.l.I v.l.$.#.) ! c ; &XuXdXyX5X6XcX            ",
"              gX:X<X<X,X:X,.o b %.D :.,.-.%.:.%.%...@.@.;.z.x.6 i b ] ..o.Z n i k z.;.{ #.%.%.-.-.$.-.<.<.F { c = |.*X>X1X:X:X              ",
"                =X:X&XoX9X[.o c #.) / T f.h.z.z f.h.g.v.Q q.M.6 w b } | ..' n i z z.` ( T ( ( ( ~ ( ) $.@.J =.c ; ;X-X XoX*.>X              ",
"              NXbXnXnXlXVXdX= - Y n.$.h e.m.b.k C.A.J.K.y.7.M.6 w G .... .:.B j k V.N.M.0.C.i.V.k k.~.l.$.v.~ > H zXsXjXrX[.gX              ",
"                zXMXMXMXnXqX: - Y B.` L z W E l ~.Y.Z.D.9.7.p.6 q M H  . .H b s 6.D.V.N.7.N.Z.z.U q.g.Y _ b.T - ] jXzXtXrXXXkX              ",
"                zXlXVXnX5X0Xv = l N.v./ L D ^ P x.D.A.Z.e.j q.k i M ] ....C B j s q.f.x.r.p.V.E ! t T ! Q y.l ;  .jXgXgXuX%XkX              ",
"                bXnXzXtX0XqX: = I u.c.` K / T w c.a.a.Z.x ( Q.w w N Z  .| C B d i $.].j.4.m.B.E / [ [ / z C.l -  .uXdXzXdX>XgX              ",
"                dX:X5X#X2X0Xc = h 7.7.j y l l i 5.w.8.8.z / ` 4 9 M &.J [ %.B w q R l.4.5 7.w.z h V I z 5 z h * &.rX2X6XdX<XeX              ",
"                1.>X0XXX1X0Xv * r 5 5 f 4 i i 4 5 i 5 5 4 f q 4 2 b Z F [ A b 8 f i 5 5 4 5 7 5 5 3 q 5 4 5 u - &.tX5X:XdX5XgX              ",
"                 XtX:XXX:X0Xm ; r u u 2 2 u u 2 8 9 u 8 u X 2 1 # M F ] [ F M < 2 e 9 8 f 9 9 9 9 f 8 9 2 2 r : *.dX5X<XrXdXgX              ",
"                0XdX1X%X1XqXc v N N N B M A C C M C F F F F C S F [ [ | { ..[ J X./ / J { { @.#.{ { @.{ J F Z c ,.dX0X7XqXdXgX              ",
"                tXdXdXuXdXqXA v F Z N N m &.A A A o.Z ' H } X.[ | [ o.| { | X.......| o.o.o.#.%.[ :.| .. .} ..c 1.dXuXwXrXdXjX              ",
"                pXtXeXtXtX8X,.@.-.-.-.:.-.>.-.>.>.2.-.>.>.2.2.>.>.2.2.>.<.2.2.<.2.2.[.2.<.2.[.2.<.2.2.<.>.>.2.&.[.eXeXwXeXeXvX              ",
"                                                                                  BXBXBXBXBXBXBXBXBX                BXBXBX                  "
};
