/* XPM */
static char *_56f487e65944a16ca9af008897ed25fApMK0oNnIuk4o246[] = {
/* columns rows colors chars-per-pixel */
"70 70 123 2 ",
"   c None",
".  c #050401",
"X  c #090702",
"o  c #6A591A",
"O  c #77651D",
"+  c #78651E",
"@  c #836E20",
"#  c #867122",
"$  c #8C782E",
"%  c #9B8326",
"&  c #A38928",
"*  c #A88E2A",
"=  c #AF932B",
"-  c #BEA02F",
";  c #BFA130",
":  c #F98E05",
">  c #F7860B",
",  c #F88C0A",
"<  c #FA9407",
"1  c #FC9C03",
"2  c #F99409",
"3  c #F58214",
"4  c #F78F14",
"5  c #F5841A",
"6  c #F68B1D",
"7  c #F89112",
"8  c #FA9912",
"9  c #F6901F",
"0  c #F89518",
"q  c #F7981F",
"w  c #F89819",
"e  c #FEA501",
"r  c #FFAB00",
"t  c #FCA008",
"y  c #FEAC0B",
"u  c #FEB30C",
"i  c #FCA511",
"p  c #FDAC12",
"a  c #FEB312",
"s  c #FFB915",
"d  c #FDB51A",
"f  c #FEBB1E",
"g  c #F79322",
"h  c #F79B27",
"j  c #F89F28",
"k  c #F99C33",
"l  c #C4A531",
"z  c #CCAC33",
"x  c #D5B435",
"c  c #DAB736",
"v  c #DCB937",
"b  c #F9A626",
"n  c #F8A22A",
"m  c #F9AA29",
"M  c #FDB624",
"N  c #FEBE22",
"B  c #FCB428",
"V  c #FDBD28",
"C  c #E1BD38",
"Z  c #FBB531",
"A  c #FCBC34",
"S  c #FFC11F",
"D  c #FEC224",
"F  c #FDC32B",
"G  c #FECA2C",
"H  c #E5C139",
"J  c #EBC53A",
"K  c #EEC83B",
"L  c #FDC632",
"P  c #FDCB34",
"I  c #FCC739",
"U  c #F1CA3C",
"Y  c #FDCC3B",
"T  c #FFD037",
"R  c #FDD33D",
"E  c #FFD93D",
"W  c #FCD641",
"Q  c #FED843",
"!  c #FED943",
"~  c #FED842",
"^  c #FFDA42",
"/  c #FFDB42",
"(  c #FED941",
")  c #FFDC41",
"_  c #FFDD41",
"`  c #FFDC42",
"'  c #FFDD42",
"]  c #FFDE42",
"[  c #FFDF42",
"{  c #FCD844",
"}  c #FED944",
"|  c #FCDA44",
" . c #FFDD45",
".. c #FFDB42",
"X. c #FEC757",
"o. c #FFDD54",
"O. c #FFE042",
"+. c #FFE242",
"@. c #FFE243",
"#. c #FFE343",
"$. c #FFE443",
"%. c #FFE643",
"&. c #FFE644",
"*. c #FFE243",
"=. c #FECF70",
"-. c #FFEE68",
";. c #FFED7C",
":. c #FBCE90",
">. c #FCD99A",
",. c #FFE39E",
"<. c #FFF495",
"1. c #E4D8AB",
"2. c #FAE7A0",
"3. c #FFF2D8",
"4. c #FFF7D8",
"5. c #FFF4DC",
"6. c #FDF9E7",
"7. c #FFFEFA",
"8. c #FFFFFB",
"9. c #FCFDFF",
"0. c #FDFFFF",
"q. c #FEFFFF",
"w. c white",
/* pixels */
"                                                                                                                                            ",
"                                                                                                                                            ",
"                                                                                                                                            ",
"                                                                                                                                            ",
"                                                                                                                                            ",
"                                                                                                                                            ",
"                                                                                                                                            ",
"                                                                                                                                            ",
"                                                                                                                                            ",
"                                                                                                                                            ",
"                                                                                                                                            ",
"                                                                                                                                            ",
"                                                                                                                                            ",
"                                                                                                                                            ",
"                                                                                                                                            ",
"                                                                                                                                            ",
"                                                              * z J U K J z * O                                                             ",
"                                                      @ c R $.$.#.) #.| ) #.$.$.R v #                                                       ",
"                                                  $ J #.) ) | R R I A A I R R | ) ) #.H                                                     ",
"                                                1.-.E ) R A n 6 5 3 3 3 3 5 g n I R | ) #.z                                                 ",
"                                              o.0.2.G m 6 3 2 1 1 e e e e t 1 , 3 6 Z ) E O.R                                               ",
"                                            ;.4.0.7.:.k y r r r r r r r r r r r e 1 , q I | | E                                             ",
"                                          <.6.0.7.0.0.,.A e r r r r e r r r r r r r r e 7 A | E )                                           ",
"                                        E T W >.0.4.M e e r r r r r D D r r r r r r r e e 2 Z | ) R                                         ",
"                                      v ) { B 1 4.X.e e r r r r r r } R e e r r r r r r r r 1 A W #.l                                       ",
"                                      &.R I t e =.M e r r r r y S P R R G S r e r r r r r r r t I W #.o                                     ",
"                                    K ) W p r r a y r r r e u R ) ) ) ) ) } E u r r r r r r r r p { ) H                                     ",
"                                    $.W D e r r r r r r e y R ) ) R I I ) R ) T r r r r r r r r e F W #.o                                   ",
"                                  v ) R y e r r r r r r e D } W R g 3 3 j R )  .S e r r r r r r e a W ) l                                   ",
"                                  ) W F e e r r r r r r r T W ) b < r e > Z R I M r r r r r r r e e L ) R                                   ",
"                                # $.W d e r r r r r r r r P ) Q d e y r r 7 5 3 7 e r r r r r r r e N W #.o                                 ",
"                                = #.R y r r r r r r r r r P ) W P e e e r e 1 e r r r r r r r r r e p R &.%                                 ",
"                                c #.R e r r r r r r r r e B  .R ) P s r e e r r r r r r r r r r r r r R #.-                                 ",
"                                J ) L e r r r r r r r r r 8 Y ) R ) W R G s r r r r r r r r r r r r r R  .x .                               ",
"                                K ) G e r r r r r r r r r e g R ) R R ) } } T s e r r r r r r r r r r P ) C X                               ",
"                                U  .G r r r r r r r r r e r < 6 Z R ) ) ) R ) E s r r r r r r r r e r Y #.C X                               ",
"                                K  .L e r r r r r r r r r r r t > 6 j A R ) R ) P r r r r r r r r r e R O.x                                 ",
"                                  ) E r r r r r r r r r r r r r e 1 , 3 5 Z ) W ) u e r r r r r r r y R O.-                                 ",
"                                  #.R y r r r r r r r r e r r u r r r r 1 7 Y W W a r r r r r r r r a R %.%                                 ",
"                                  #.W d e r r r r r r r a R R W u r r r r e I ) W a r r r r r r r e f { O.                                  ",
"                                    } G e r e r r r r r p W W ) G e e r e u ) W R y e e r r r r e e L ) R                                   ",
"                                    ) R y e r r r r r r 1 A ) R ) G u u s R W ) A 1 r r r r r r e a R #.;                                   ",
"                                      W D e r r r r r r e w R ) R W E R W R ) W w r r r r r r r e F | #.                                    ",
"                                      ) R u r r r r r r r 1 g R ) ) W ) ) ) I g 1 r r r r r r r a E ) c                                     ",
"                                        W L e r r r r r r r 2 5 n A W R Z h 5 1 r r r r r r e e R R #.                                      ",
"                                        ) | F e r r r r r r r e > 3  .Y > , e r r r r r r r e G W #.;                                       ",
"                                          ) | D e r r r r r r r r r m b e r r r r r r r r e F | ) U                                         ",
"                                            R W D e r r r r r r r r > , r r r r r r r r e G | E W                                           ",
"                                              ) | L y e r r r r r r r r r r r e r e e a Y W ) R                                             ",
"                                                #.W W D y e e r r r r r r r r e e y D R W #.J                                               ",
"                                                  &.) W W L f y r r r e r r y N P W | ) #.                                                  ",
"                                                    H #.) W W R R P L L L R R W ) #.$.H                                                     ",
"                                                        x W $.&.O.#.) )  .#.$.#.R l                                                         ",
"                                                            + & - v J J c l &                                                               ",
"                                                                                                                                            ",
"                                                                                                                                            ",
"                                                                                                                                            ",
"                                                                                                                                            ",
"                                                                                                                                            ",
"                                                                                                                                            ",
"                                                                                                                                            ",
"                                                                                                                                            ",
"                                                                                                                                            ",
"                                                                                                                                            ",
"                                                                                                                                            ",
"                                                                                                                                            ",
"                                                                                                                                            ",
"                                                                                                                                            ",
"                                                                                                                                            ",
"                                                                                                                                            "
};
