/* XPM */
static char *ad2c9e54a0dd4c0cb42f4deabf36d2546pE9UO5ptGTIMJls[] = {
/* columns rows colors chars-per-pixel */
"70 70 205 2 ",
"   c None",
".  c #3F3E45",
"X  c #3F3F45",
"o  c #424045",
"O  c #45444A",
"+  c #49484D",
"@  c #4D4D52",
"#  c #4F4F53",
"$  c #525155",
"%  c #535255",
"&  c #545457",
"*  c #535459",
"=  c #54565D",
"-  c #58575A",
";  c #5B5B5E",
":  c #5D5D60",
">  c #5F5F61",
",  c #5D6066",
"<  c #5C6068",
"1  c #5F636C",
"2  c #606063",
"3  c #636365",
"4  c #656466",
"5  c #656567",
"6  c #696867",
"7  c #686869",
"8  c #68686A",
"9  c #6B6B6C",
"0  c #6F6E6D",
"q  c #6D6D6E",
"w  c #706F6F",
"e  c #73716F",
"r  c #7D776F",
"t  c #7E786E",
"y  c #676C73",
"u  c #676C74",
"i  c #676D74",
"p  c #686C73",
"a  c #696D73",
"s  c #6B6E72",
"d  c #6A6E73",
"f  c #6C6E72",
"g  c #6D6F72",
"h  c #6E6F72",
"j  c #686D74",
"k  c #696D74",
"l  c #696E75",
"z  c #6B6E74",
"x  c #6B6F74",
"c  c #6B6F75",
"v  c #686E76",
"b  c #6D6F74",
"n  c #6D7073",
"m  c #6F7072",
"M  c #6F7172",
"N  c #6E7073",
"B  c #6F7173",
"V  c #6D7074",
"C  c #6D7075",
"Z  c #6E7174",
"A  c #6F7174",
"S  c #6F7379",
"D  c gray44",
"F  c #717170",
"G  c #707071",
"H  c #707171",
"J  c #717171",
"K  c #727170",
"L  c #727271",
"P  c #707172",
"I  c #717172",
"U  c #707173",
"Y  c #727272",
"T  c #737272",
"R  c #737372",
"E  c #727273",
"W  c gray45",
"Q  c #747371",
"!  c #747372",
"~  c #747373",
"^  c #777470",
"/  c #747472",
"(  c #757473",
")  c #767472",
"_  c #767473",
"`  c #707274",
"'  c #737577",
"]  c #747474",
"[  c #757574",
"{  c #767574",
"}  c #777674",
"|  c #777776",
" . c #767677",
".. c #777777",
"X. c #797671",
"o. c #7B7670",
"O. c #7B7771",
"+. c #787674",
"@. c #787775",
"#. c #787776",
"$. c #7E7870",
"%. c #7F7970",
"&. c #797876",
"*. c #787877",
"=. c #797877",
"-. c #797977",
";. c #7A7976",
":. c #7A7977",
">. c #7B7A77",
",. c #717579",
"<. c #72757A",
"1. c #757778",
"2. c #767778",
"3. c #777878",
"4. c #797978",
"5. c #7A7978",
"6. c #7A7A79",
"7. c #7B7B7A",
"8. c #817A6F",
"9. c #827A6F",
"0. c #857C6F",
"q. c #877D6F",
"w. c #877E6F",
"e. c #897E6E",
"r. c #8A7F6E",
"t. c #8B7F6E",
"y. c #807A70",
"u. c #827D75",
"i. c #847E74",
"p. c #857F76",
"a. c #8E816D",
"s. c #92836D",
"d. c #94846C",
"f. c #99866A",
"g. c #9B886A",
"h. c #9D896B",
"j. c #9A896D",
"k. c #8F8472",
"l. c #A58D69",
"z. c #A58F6C",
"x. c #A88F69",
"c. c #AE9267",
"v. c #AF9267",
"b. c #B39466",
"n. c #B29467",
"m. c #B69665",
"M. c #B59566",
"N. c #B59666",
"B. c #B69666",
"V. c #B99765",
"C. c #BF9A63",
"Z. c #BB9965",
"A. c #BD9A65",
"S. c #B29568",
"D. c #D8A85E",
"F. c #D9A85F",
"G. c #DFAC5E",
"H. c #E0AC5E",
"J. c #E1AD5E",
"K. c #E2AD5E",
"L. c #E2AE5E",
"P. c #E5AF5D",
"I. c #EEB45B",
"U. c #FFBF57",
"Y. c #F1B55B",
"T. c #F2B55A",
"R. c #F2B65B",
"E. c #F4B75A",
"W. c #F5B75A",
"Q. c #F6B85A",
"!. c #F7B85A",
"~. c #F8B959",
"^. c #F9B959",
"/. c #F9BA59",
"(. c #FABA59",
"). c #FBBA59",
"_. c #FBBB59",
"`. c #FCBA58",
"'. c #FCBB59",
"]. c #FDBB59",
"[. c #FDBC59",
"{. c #FEBC58",
"}. c #FFBD58",
"|. c #FEBC59",
" X c #FFBD59",
".X c #FFBE58",
"XX c #FFBF58",
"oX c #C29B62",
"OX c #C39D63",
"+X c #C49D63",
"@X c #C59E63",
"#X c #C29C64",
"$X c #C29D64",
"%X c #CBA162",
"&X c #CDA261",
"*X c #CFA461",
"=X c #D0A461",
"-X c #D4A660",
";X c #D7A860",
":X c #FFC156",
">X c #FFC057",
",X c #FFC157",
"<X c #FFC256",
"1X c #FFC356",
"2X c #FFC257",
/* pixels */
"                                                                                                                                            ",
"                                                                                                                                            ",
"                                                                                                                                            ",
"                                                                    5                                                                       ",
"                                                                    k.7                                                                     ",
"                                                                  < d.i.                                                                    ",
"                                                                $ S C.h.b                                                                   ",
"                                                              - 3.) Q.#Xj )                                                                 ",
"                                                            5 >.y c.1XQ.y.W #.                                                              ",
"                                                           .#.k a.^.`.2X;Xm F 6.7                                                           ",
"                                                      7 6.Q v t.W.XXXX`.2X=XF h #.3.                                                        ",
"                                                  5 &. .s h x.^.XX`.XX`.`.2XH.i.j F &.W                                                     ",
"                                              : 6.#.h s k.;X2XXX|.XX|.XXXX|.XX^.Z.X.j Q >.Q                                                 ",
"                                            F #.F j y.+X|.>X|.|.XX|.|.|.|.`.|.XX1XI.l.] b Q #.>                                             ",
"                                          ..] h F B.Q.1X|.|. X|.|.|.|.|.|.|.XX|.`.XX2X;Xd.k G 6.4                                           ",
"                                        9  .b %.J.2XXX`.|.|. X X|.|.|.|.|.|.|.|.XX`.`.2XXXn.b G 6.                                          ",
"                                        #.h X.P.>X X X|.|.|. X X X X X X X X X X|.`.|.|.|.2Xn.j #.4                                         ",
"                                        6.s #X1X'.|. X'.|.|. X X X X X X X X X X|.|.|.XX|.XX`.p.m w                                         ",
"                                      X ..^ R.XX'. X X X|. X X X X X X X X X X X|.|.|.|.XX|.2XZ.j F                                         ",
"                                      X 2.r !.XX X'. X X|.>X X X X X X X X X X X|.|.|.|.|.|.>X%XC F                                         ",
"                                      X 2.r ^.XX'. X X X X X X X X X X X X X X X|.|.|.|. X[.>X*XW h                                         ",
"                                      X 2.o.!.XX X X X X X X X X X X X X X X X X|.>X|.>X X[.>X*XC e                                         ",
"                                      X  .r !.U. X X X X X X X X X X X X X X X X>X|.|.|. X X>X=Xm F                                         ",
"                                      X  .r !.{. X X X X X X X X X X X X X X X X X|.|.>X>X|.>X*XC F                                         ",
"                                      o 6.o.^.XX`.|.|.|. X X X X X X X X X X X X X X X X X X>X*XW e                                         ",
"                                  $ : 5 v X.^.XX`.XX|.|. X X X X X X X X X X X X X X X X X X>X*Xj j < * +                                   ",
"                            : F ,. .p.n.#X-X|.2X|.|.|.|. X X X X X X X X X X X X X X X X X|.|.Y.%XC.z.u.,.2.w #                             ",
"                        : 6.2.C f.D.(.U.2X2X|.|.>X|.|.>X X X X X X X X X X X X X X X X X X|.|.>X2X2XU.T.oX8.C &. .@                         ",
"                      q 6.m F +X1XU.XX|.|.|.|.|.|.|. X X X X X X X X X X X X X X X X X X|.|.XX|.`.|.|.XX2XW.g.q W 6.&                       ",
"                      6.F s B.2X`.`.|.|.`.|.|.|.|.|. X>X X X X X X X X X X X X X X X X X>X|.|.|.`.XX|.|.`.XX^.p.C W F                       ",
"                      6.F W J.XXXX`.XX|.|.|.|.>X>X|.>X|. X X X X X X X X X X X X|.>X|.|.|.|.|.|.|.|.|.|.U.^.1Xn.j ) F                       ",
"                      6.F F J.XX`.XX|.|.|.|.|.|.|.|.|.|. X X X X X X X X X X X X|.|.>X|.>X|.|.|.|.|.|.|.`.{.1XB.y  .F                       ",
"                      6.G ] K.XX_. X X X X X X X X X X X X X X X X X X X X X X X X X X X X X X X X X X X|.|.2XN.i  .F                       ",
"                      6.G F K.XX X X X X X X X X X X X X X X X X X X X X X X X X X X X X X X X X X X X X|._.2XN.k ] F                       ",
"                      6.G Q K.XX_. X X X X X X X X X X X X X X X X X X X X X X X X X X X X X X X X X X X|._.2XB.v ] G                       ",
"                      6.G Q K.XX X X X X X X X X X X X X X X X X X X X X X X X X X X X X X X X X X X X X|.|.2XB.y Q F                       ",
"                      6.G Q K.XX_. X X X X X X X X X X X X X X X X X X X X X X X X X X X X X X X X X X X X_.2XB.k _ W                       ",
"                      6.G ] K.XX X X X X X X X X X X X X X X X X X X X X X X X X X X X X X X X X X X X X X_.2XB.k ] F                       ",
"                      6.G Q K.XX_. X X X X X X X X X X X X X X X X X X X X X X X X X X X X X X X X X X X X'.>XB.v ] F                       ",
"                      6.G Q K.XX X X X X X X X X X X X X X X X X X X X X X X X X X X X X X X X X X X X X'.'.>XB.k Q F                       ",
"                      6.F ] K.XX_. X X X X X X X X X X X X X X X X X X X X X X X X X X X X X X X|.|.|.|.`.`.1XB.k ] F                       ",
"                      6.G Q K.XX X X X X X X X X X X X X X X X X X X X X X X X X X X X X X X X X>X|.>X|.|.`.1XB.k ] F                       ",
"                      6.G ] K.XX_. X X X X X X X X X X X X X X X X X X X X X X X X X X X X X X X|.|.|.|.|.|.1XB.k ] G                       ",
"                      6.G Q K.XX X X X X X X X X X X X X X X X X X X X X X X X X X X X X X X X X>X|.|.|.|.|.2XN.u T T                       ",
"                      6.U ] J.|._. X X X X X X X X X X X X X X X X X X X X X X X X X X X X X X X|.>X X X|.|.2XN.k _ F                       ",
"                      6.G 2.J.>X X X X X X X X X X X X X X X X X X X X X X X X X X X X X X X X X|.|. X X|.`.2XN.k ] W                       ",
"                      6.G ] J.>X_. X X X X X X X X X X X X X X X X X X X X X X X X X X X X X X X X X X XXX`.1XM.v Q F                       ",
"                      6.G Q J.|. X X X X X X X X X X X X X X X X X X X X X X X X X X X X X X X X X X X X`.`.U.M.k ] F                       ",
"                      6.F Q J.XX X X X X X X X X X X X X X X X X X X X X X X X X X X X X X X X X X X X X|.|.2XN.i  .F                       ",
"                      6.G ] J.XX_. X X X X X X X X X X X X X X X X X X X X X X X X X X X X X X X X X X X|._.2XN.k Q F                       ",
"                      6.G Q J.XX X X X X X X X X X X X X X X X X X X X X X X X X X X X X X X X X X X X X|._.2XB.v Q G                       ",
"                      6.G ] J.XX_. X X X X X X X X X X X X X X X X X X X X X X X X X X X X X X X X X X X|.|.2XB.v Q G                       ",
"                      6.G ] K.XX X X X X X X X X X X X X X X X X X X X X X X X X X X X X X X X X X X X X X[.2XB.k ] F                       ",
"                      6.G Q K.XX_. X X X X X X X X X X X X X X X X X X X X X X X X X X X X X X X X X X X X_.2XB.k ] W                       ",
"                      6.G Q K.XX X X X X X X X X X X X X X X X X X X X X X X X X X X X X X X X X X X X X'.'.>XB.v Q F                       ",
"                      6.G Q K.XX_. X X X X X X X X X X X X X X X X X X X X X X X X X X X X X X X X X X X X_.>XB.k Q W                       ",
"                      6.F Q J.XX X X X X X X X X X X X X X X X X X X X X X X X X X X X X X X X X|.|.|.|.`.`.1XB.k ] F                       ",
"                      6.G ] J.XX'. X X X X X X X X X X X X X X X X X X X X X X X X X X X X X X X>X|.>X|.|.`.1XB.k ] Q                       ",
"                      6.G Q J.XX X X X X X X X X X X X X X X X X X X X X X X X X X X X X X X X X|.|.|.|.|.|.1XB.k Q G                       ",
"                      6.G ] J.XX'. X X X X X X X X X X X X X X X X X X X X X X X X X X X X X X X>X|.|.|.|.|.2XN.v T G                       ",
"                      6.G ] K.XX X X X X X X X X X X X X X X X X X X X X X X X X X X X X X X X X|.>X X X|.|.2XN.k ] W                       ",
"                      6.G Q K.XX'. X X X X X X X X X X X X X X X X X X X X X X X X X X X X X X X|.|. X X|.`.2XN.k ] F                       ",
"                      6.G ] K.XX X X X X X X X X X X X X X X X X X X X X X X X X X X X X X X X X X X X XXX`.1XM.v Q F                       ",
"                      6.G F K.XX'. X'. X'. X'. X'. X'. X'. X'. X'. X'. X'. X'. X'. X'. X'. X'. X'. X X X`.`.U.M.k ] F                       ",
"                      6.F W H.1X`.XXXX`.XX`.XXXX`.XX`.XXXXXX`.XXXXXX`.XXXX`.XX`.XXXX`.XXXX`.XXXX`.XXXX`.XX`.2XB.k ] F                       ",
"                      6.G W G.XX`.`.|.|.XX^.`.`.|.|.XX`.`.`.|.|.`.`.`.`.|.|.XX^.`.`.|.|.XX^.`.`.|.`.XX^.`.^.2XN.j ] F                       ",
"                      6.F W i.t.t.t.p.t.t.t.t.t.p.t.t.t.t.t.p.t.t.t.t.t.p.t.t.t.t.t.p.t.t.t.t.t.p.t.t.t.t.t.p.8.b Q F                       ",
"                    O 6.F W h h h h h G m b h b h h h h h h h h b h b b G h h m h h h h m C h b G h h m h h G G W W W                       ",
"                    O 6.F Q F ] F  .Q Q Q ] ] Q Q ] ] Q Q Q ] Q ] Q Q Q Q ] ] Q Q Q ] Q Q ] ] Q Q ] ] Q F ] Q F W W F                       ",
"                    O 7.F F  .Q ] F  .F ] F W W W ] F W W W W W ] F ] W ] ] F W W W W W ] F W W ] ] F ]  .F F  .W F F                       "
};
