/* XPM */
static char *result[] = {
/* columns rows colors chars-per-pixel */
"70 70 229 2 ",
"   c #020303",
".  c #0A0404",
"X  c #0B0905",
"o  c #0A060B",
"O  c #05090D",
"+  c #0C0B0C",
"@  c #05070A",
"#  c #120D0C",
"$  c #150B06",
"%  c #0D110E",
"&  c #13110E",
"*  c #1A130C",
"=  c #0D0D12",
"-  c #080911",
";  c #120F12",
":  c #0D1113",
">  c #0F131A",
",  c #131313",
"<  c #1A1414",
"1  c #151815",
"2  c #1B1916",
"3  c #15141A",
"4  c #191619",
"5  c #16191C",
"6  c #1B1A1C",
"7  c #24140D",
"8  c #241A14",
"9  c #2B1C13",
"0  c #231C1B",
"q  c #271715",
"w  c #361A17",
"e  c #250F14",
"r  c #1E201C",
"t  c #23211D",
"y  c #2B231C",
"u  c #2C2A1E",
"i  c #332216",
"p  c #31221B",
"a  c #392919",
"s  c #1C1D22",
"d  c #181D28",
"f  c #211F22",
"g  c #1D2122",
"h  c #1C232B",
"j  c #1A2429",
"k  c #1C2C38",
"l  c #232224",
"z  c #23242B",
"x  c #25292C",
"c  c #2A2A2D",
"v  c #2B2825",
"b  c #332C24",
"n  c #372A27",
"m  c #2B312D",
"M  c #36312B",
"N  c #3B352A",
"B  c #232B33",
"V  c #2D2D33",
"C  c #2D2E39",
"Z  c #272835",
"A  c #302E34",
"S  c #2D3235",
"D  c #2D323B",
"F  c #263135",
"G  c #323335",
"H  c #32343B",
"J  c #3B3A3C",
"K  c #39373A",
"L  c #4E1C1D",
"P  c #432B1C",
"I  c #44311F",
"U  c #641D22",
"Y  c #542326",
"T  c #443524",
"R  c #4A3B29",
"E  c #483D35",
"W  c #50332B",
"Q  c #743C3B",
"!  c #484239",
"~  c #594B3A",
"^  c #564938",
"/  c #63523D",
"(  c #6D5137",
")  c #1D2A47",
"_  c #1C3353",
"`  c #283744",
"'  c #343641",
"]  c #343D43",
"[  c #3A3B44",
"{  c #3C3D49",
"}  c #383741",
"|  c #26344E",
" . c #313F67",
".. c #423F41",
"X. c #3E434D",
"o. c #3E4146",
"O. c #34435A",
"+. c #3A4B67",
"@. c #3C526D",
"#. c #3E6274",
"$. c #434344",
"%. c #42434D",
"&. c #4B4B4D",
"*. c #48484A",
"=. c #444552",
"-. c #484755",
";. c #464A56",
":. c #494956",
">. c #474B59",
",. c #4A4C59",
"<. c #514E57",
"1. c #4D525B",
"2. c #495158",
"3. c #535356",
"4. c #53545C",
"5. c #595959",
"6. c #5E5042",
"7. c #695B45",
"8. c #6F5751",
"9. c #75644C",
"0. c #766959",
"q. c #6B6556",
"w. c #475967",
"e. c #555562",
"r. c #5C5C65",
"t. c #5D5C69",
"y. c #565C62",
"u. c #485974",
"i. c #454F6B",
"p. c #605F66",
"a. c #5E656B",
"s. c #5B6167",
"d. c #4E617C",
"f. c #63636C",
"g. c #696768",
"h. c #696772",
"j. c #6C6B74",
"k. c #686A75",
"l. c #716F7A",
"z. c #6D7278",
"x. c #74747C",
"c. c #767777",
"v. c #8D2D32",
"b. c #9A6938",
"n. c #A53E44",
"m. c #884444",
"M. c #8B6641",
"N. c #946841",
"B. c #86785C",
"V. c #877866",
"C. c #937271",
"Z. c #AD6E6C",
"A. c #99815E",
"S. c #978465",
"D. c #9F9173",
"F. c #A38D6B",
"G. c #AB9677",
"H. c #B19073",
"J. c #B8A37D",
"K. c #CBAB7A",
"L. c #546A85",
"P. c #687687",
"I. c #737D83",
"U. c #7A7A82",
"Y. c #767782",
"T. c #727E99",
"R. c #6C7792",
"E. c #7B8589",
"W. c #78879A",
"Q. c #5B8BA1",
"!. c #7989A2",
"~. c #878889",
"^. c #858E95",
"/. c #959899",
"(. c #8A9094",
"). c #AE9185",
"_. c #B7A484",
"`. c #848DA7",
"'. c #8B9BA6",
"]. c #8A9DAB",
"[. c #8796A6",
"{. c #999EA4",
"}. c #909EB0",
"|. c #98A2A7",
" X c #93A4B2",
".X c #8FA0AB",
"XX c #A6AAAA",
"oX c #B5B4B6",
"OX c #ABADB0",
"+X c #D49494",
"@X c #C5AC87",
"#X c #D2B689",
"$X c #D3BB97",
"%X c #CEB68A",
"&X c #E1BB85",
"*X c #D7ACAB",
"=X c #E1ABA9",
"-X c #BDC0BE",
";X c #DCC196",
":X c #DCC08E",
">X c #E6C897",
",X c #F3D39C",
"<X c #FCD69C",
"1X c #FDD99D",
"2X c #FAD796",
"3X c #EFCA92",
"4X c #FFE49F",
"5X c #E5CDA2",
"6X c #FEDBA2",
"7X c #F7D7A8",
"8X c #FFE4A4",
"9X c #FEE4AA",
"0X c #FFEDAD",
"qX c #FFE9B4",
"wX c #B7BDC2",
"eX c #ABB4C7",
"rX c #BCC2CA",
"tX c #C4C5C7",
"yX c #CED2D4",
"uX c #D4D5D7",
"iX c #CECED2",
"pX c #DBE0DE",
"aX c #D6DEE7",
"sX c #DCE4E5",
"dX c #E9EBE9",
"fX c #FDFFFF",
"gX c #EAF0F4",
"hX c #EEC9C4",
"jX c None",
/* pixels */
"jXjXjXjXjXjXjXjXjXjXjXjXjXjXjXjXjXjXjXjXjXjXjXjXjXjXjXjXjXjXjXjXjXjXjXjXjXjXjXjXjXjXjXjXjXjXjXjXjXjXjXjXjXjXjXjXjXjXjXjXjXjXjXjXjXjXjXjXjXjX",
"jXjXjXjXjXjXjXjXjXjXjXjXjXjXjXjXjXjXjXjXjXjXjXjXjXjXjXjXjXjXjXjXjXjXjXjXjXjXjXjXjXjXjXjXjXjXjXjXjXjXjXjXjXjXjXjXjXjXjXjXjXjXjXjXjXjXjXjXjXjX",
"jXjXjXjXjXjXjXjXjXjXjXjXjXjXjXjXjXjXjXjXjXjXjXjXjXjXjXjXjXjXjXjXjXjXjXjXjXjXjXjXjXjXjXjXjXjXjXjXjXjXjXjXjXjXjXjXjXjXjXjXjXjXjXjXjXjXjXjXjXjX",
"jXjXjXjXjXjXjXjXjXjXjXjXjXjXjXjXjXjXjXjXjXjXjXjXjXjXjXjXjXjXjXjXjXjXjXjXjXjXjXjXjXjXjXjXjXjXjXjXjXjXjXjXjXjXjXjXjXjXjXjXjXjXjXjXjXjXjXjXjXjX",
"jXjXjXjXjXjXjXjXjXjXjXjXjXjXjXjXjXjXjXjXjXjXjXjXjXjXjXjXjXjXE.r.4.4.r.(.jXjXjXjXjXjXjXjXjXjXjXjXjXjXjXjXjXjXjXjXjXjXjXjXjXjXjXjXjXjXjXjXjXjX",
"jXjXjXjXjXjXjXjXjXjXjXjXjXjXjXjXjXjXjXjXjXjXjXjXjXjX|.&.z , = 6 s l 4 = 3 x.jXjXjXjXjXjXjXjXjXjXjXjXjXjXjXjXjXjXjXjXjXjXjXjXjXjXjXjXjXjXjXjX",
"jXjXjXjXjXjXjXjXjXjXjXjXjXjXjXjXjXjXjXjXjXjXjXjXh.C - 2 ..<.r.f.j.l.x.j.$.@ ;.jXjXjXjXjXjXjXjXjXjXjXjXjXjXjXjXjXjXjXjXjXjXjXjXjXjXjXjXjXjXjX",
"jXjXjXjXjXjXjXjXjXjXjXjXjXjXjXjXjXjXjXjXjXE.` O   & 5 l x x V } %.,.1.y.x.5.% X.jXjXjXjXjXjXjXjXjXjXjXjXjXjXjXjXjXjXjXjXjXjXjXjXjXjXjXjXjXjX",
"jXjXjXjXjXjXjXjXjXjXjXjXjXjXjXjXjXjXjXjXjX|.XXOXc.6 , , # + = , 6 V o.;.;.r.4.o s.jXjXjXjXjXjXjXjXjXjXjXjXjXjXjXjXjXjXjXjXjXjXjXjXjXjXjXjXjX",
"jXjXjXjXjXjXjXjXjXjXjXjXjXjXjXjXjXjXjXjXjXjXXXr.v & 4 v G K H V c 4 5 S *.%.1.[ : V s : - o - ; jXjXjXjXjXjXjXjXjXjXjXjXjXjXjXjXjXjXjXjXjXjX",
"jXjXjXjXjXjXjXjXjXjXjXjXjXjXjXjXjXjXjXjXjXV   s *.s.j.j.f.f.t.r.5.:.%.D ] ;.;.>.C c ' :.t.f.h.5.z jXjXjXjXjXjXjXjXjXjXjXjXjXjXjXjXjXjXjXjXjX",
"jXjXjXjXjXjXjXjXjXjXjXjXjXjXjXjXjXjXjX:.@ V f.x.l.t.4.:.-.=.X.=.;.;.>.,.;.;.;.>.>.,.,.>.,.<.t.l.U.<.jXjXjXjXjXjXjXjXjXjXjXjXjXjXjXjXjXjXjXjX",
"jXjXjXjXjXjXjXjXjXjXjXjXjXjXjXjXjXjXB = e.Y.t.e.=.=.-.-.;.-.>.>.>.>.;.;.>.;.;.;.;.;.=.=.' H [ =.5.U.<.jXjXjXjXjXjXjXjXjXjXjXjXjXjXjXjXjXjXjX",
"jXjXjXjXjXjXjXjXjXjXjXjXjXjXjXjXjXh s r.t.i.....;.=.-.,.-.;.-.>.;.:.;.>.;.;.;.;.;.;.;.;.{ C s s A =.x.jXjXjXjXjXjXjXjXjXjXjXjXjXjXjXjXjXjXjX",
"jXjXjXjXjXjXjXjXjXjXjXjXjXjXjXjXC 3 e.4.......i.e.e.,.-.;.;.;.>.;.>.;.;.;.;.;.;.;.;.;.;.>.>.%.A 3 3 ..J jXjXjXjXjXjXjXjXjXjXjXjXjXjXjXjXjXjX",
"jXjXjXjXjXjXjXjXjXjXjXjXjXjXjXy.- ....H ) ..t.k.t.4.-.-.;.;.;.-.;.;.;.>.;.;.;.;.;.;.;.;.>.;.>.,.[ s ; 4 jXjXjXjXjXjXjXjXjXjXjXjXjXjXjXjXjXjX",
"jXjXjXjXjXjXjXjXjXjXjXjXjXjXjX+ 6 g ; 3 %.l.f.-.-.-.-.-.-.>.,.>.;.;.;.;.>.>.>.>.>.>.;.>.>.>.>.>.,.%.f ; z jXjXjXjXjXjXjXjXjXjXjXjXjXjXjXjXjX",
"jXjXjXjXjXjXjXjXjXjXjXjXjXjXg @ 1 & 6 f.U.1...-.,.-.-.-.-.;.{ ' =.>.>.;.=.%.X.%.X.{ =.>.>.-.=.-.-.:.%.s d jXjXjXjXjXjXjXjXjXjXjXjXjXjXjXjXjX",
"jXjXjXjXjXjXjXjXjXjXjXjXjXjXm z.6 3 f.x.-.-.i.-.-.-.-.=.{ H C { ;.%.[ ' H C B z d x { =.=.=.-.>.;.;.>.:.= E.jXjXjXjXjXjXjXjXjXjXjXjXjXjXjXjX",
"jXjXjXjXjXjXjXjXjXjXjXjXjXjXjX/.+ 5.U.:.-.,.-.-.-.-.%.' C C C { ' V A B s 3 , , 3 3 x ] =.-.>...>.-.;.e.K 5 jXjXjXjXjXjXjXjXjXjXjXjXjXjXjXjX",
"jXjXjXjXjXjXjXjXjXjXjXjXjXjXjXz C U.e...-.,.,.-.-.{ A A V C C H A c 4 + 2 v v t ; + 1 c [ -.;.' =.-.>.,.t.= Y.jXjXjXjXjXjXjXjXjXjXjXjXjXjXjX",
"jXjXjXjXjXjXjXjXjXjXjXjXjXjXW.O h.h.-.,.-.-.-.-.} H H x V G H V s = s &.~.OXtXtX~.5., s A %.;.C } >.,.{ p.K D jXjXjXjXjXjXjXjXjXjXjXjXjXjXjX",
"jXjXjXjXjXjXjXjXjXjXjXjXjXjXo.V x.:.,.,.,.,.-.{ V H c c H G z 4 3 ! ~.oXuXgXdXdXuXXX*.+ c ' %.H H -.>.t.p.<.; jXjXjXjXjXjXjXjXjXjXjXjXjXjXjX",
"jXjXjXjXjXjXjXjXjXjXjXjXjXjX, 5.p.%...,.-.,...A S V l G A s + X   , z J 5.c._.tXiXOX/.t 4 H K G A ..-.f.Y.h.; jXjXjXjXjXjXjXjXjXjXjXjXjXjXjX",
"jXjXjXjXjXjXjXjXjXjXjXjXjXjX+ f.4.>.-.>.;.;.H H H f V A 3 + 3.c.j.g.! v & O % r G ! 5.G : m G V C { =.t.U.U.6 a.jXjXjXjXjXjXjXjXjXjXjXjXjXjX",
"jXjXjXjXjXjXjXjXjXjXjXjXjXa.5 f.....>.-.>.{ C H z 6 c 3 1 g./.(./.~.g.&.M 1 , % X   @ % & l H c z [ =.e.l.c.S %.jXjXjXjXjXjXjXjXjXjXjXjXjXjX",
"jXjXjXjXjXjXjXjXjXjXjXjXjX%.c e.z =.>.-.=.' H G 6 4 1 , , g % O       $ * 8 y y b N b v 1 2 G s f { =.e.p.=.J J jXjXjXjXjXjXjXjXjXjXjXjXjXjX",
"jXjXjXjXjXjXjXjXjXjXjXjXjX[ G G f >.-.>.%.D D x 1 1 1 6 u N ~ 7.0.B.V.S.F.H.G.J._._.0.0.m & m 4 f } =.e.h.f l H jXjXjXjXjXjXjXjXjXjXjXjXjXjX",
"jXjXjXjXjXjXjXjXjXjXjXjXjXo.f 4 Z >.;.;.' C z 1 , & $ * N V.$X;X>X>X>X>X3X,X>XV.! 8 $ 8 8 1 6 3 f ' -.,.h.0 # H jXjXjXjXjXjXjXjXjXjXjXjXjXjX",
"jXjXjXjXjXjXjXjXjXjXjXjXjX] , 3 C >.-.-.H D c 4 8 q.0.! * . 6.7X<X1X1X<X8X#Xp . 8 9.S.F.0.$ , < f ' =.,.h.f ; H jXjXjXjXjXjXjXjXjXjXjXjXjXjX",
"jXjXjXjXjXjXjXjXjXjXjXjXjX[ + , c ,.>.-.H H z , ^ S.F.5X>XB./ ,X<X<X<X2X8XK.R J.7X6X@XS.0.* l 0 s ' =.,.p.s + ' jXjXjXjXjXjXjXjXjXjXjXjXjXjX",
"jXjXjXjXjXjXjXjXjXjXjXjXjXH J G f ,.-.=.H D 6 , 6 4 < n 9.$X8X2X<X<X<X<X2X1X7XG.^ y 4 4 & * V.n 3 } -.<.r.6 z H jXjXjXjXjXjXjXjXjXjXjXjXjXjX",
"jXjXjXjXjXjXjXjXjXjXjXjXjXD jXl.3 ,.-.%.H V o $.`.u.u.| G $ J.4X<X<X<X<X2X9X7.# ] _ i.L.(.8 0.M 3 { ;.,.:.4 jX1.jXjXjXjXjXjXjXjXjXjXjXjXjXjX",
"jXjXjXjXjXjXjXjXjXjXjXjXjXjXjXjX- =.,.%.H x 1 oXR.O.) +.eX5.R 8X<X<X<X<X1X#X* /.`.P.)  .OXl.q v s { ;.e.J c jXjXjXjXjXjXjXjXjXjXjXjXjXjXjXjX",
"jXjXjXjXjXjXjXjXjXjXjXjXjXjXjXjX> H i.%.H s ! rXW.rX# ) `./.$ >X1X<X<X2X8XF.b tX!.OX  ) T.oX; 2 6 %.=.e.l s.jXjXjXjXjXjXjXjXjXjXjXjXjXjXjXjX",
"jXjXjXjXjXjXjXjXjXjXjXjXjXjXjXjX..f >.;.H s *.iXd.a.6 ) `.oX* :X6X<X<X<X9XS.K uXu.C s _ T.tX< < l :.:.&.+ {.jXjXjXjXjXjXjXjXjXjXjXjXjXjXjXjX",
"jXjXjXjXjXjXjXjXjXjXjXjXjXjXjXjXjX- { :.} 6 m dXd.R.{._ rX(.7 ,X1X<X1X1X8XH.0 pXP.u.wXO.eXOX. < c <.,.V B jXjXjXjXjXjXjXjXjXjXjXjXjXjXjXjXjX",
"jXjXjXjXjXjXjXjXjXjXjXjXjXjXjXjXjXD 0 :.J s X ~.dXW.T. XdXc 9.9X2X<X1X,X6X>X7 c.gXW.W.}.sXJ l 6 A <.{ - ~.jXjXjXjXjXjXjXjXjXjXjXjXjXjXjXjXjX",
"jXjXjXjXjXjXjXjXjXjXjXjXjXjXjXjXjXjX@ H $.6 1 < $.z.x.U.M 9 $X6X<X<X1X1X,X8XF.X 5.U.c.h.t u q.% } <.4 H jXjXjXjXjXjXjXjXjXjXjXjXjXjXjXjXjXjX",
"jXjXjXjXjXjXjXjXjXjXjXjXjXjXjXjXjXjXy.+ [ s t q.~ T a P / #X6X<X6X<X1X1X1X2X4XF.R n a T B.G.N % ..Z > jXjXjXjXjXjXjXjXjXjXjXjXjXjXjXjXjXjXjX",
"jXjXjXjXjXjXjXjXjXjXjXjXjXjXjXjXjXjXjXH , s = 0 B.5X9XqX0X1X<X6X<X&XK.3X6X<X<X9XqXqX6X7XG.9 X 5 l - jXjXjXjXjXjXjXjXjXjXjXjXjXjXjXjXjXjXjXjX",
"jXjXjXjXjXjXjXjXjXjXjXjXjXjXjXjXjXjXjXjXx # s d X u / S.@X>X,X<X6X,X,X6X6X1X,X>X%XF.7.y   o.S # 3 jXjXjXjXjXjXjXjXjXjXjXjXjXjXjXjXjXjXjXjXjX",
"jXjXjXjXjXjXjXjXjXjXjXjXjXjXjXjXjXjXjXjXjXd 5 Q.u.: - X * v N E ^ / 7./ ~ E n y 2 +   A -XgXo.: jXjXjXjXjXjXjXjXjXjXjXjXjXjXjXjXjXjXjXjXjXjX",
"jXjXjXjXjXjXjXjXjXjXjXjXjXjXjXjXjXjXjXjXjXrXh L.` & 6 1 1 w 7 $         X < w e < 6 6 z yXgX` jXjXjXjXjXjXjXjXjXjXjXjXjXjXjXjXjXjXjXjXjXjXjX",
"jXjXjXjXjXjXjXjXjXjXjXjXjXjXjXjXjXjXjXjXjXjXrXh % 5.x : 1 Y v.Z.).L 0.C.m.*XC.e 4 ; o.l x rXjXjXjXjXjXjXjXjXjXjXjXjXjXjXjXjXjXjXjXjXjXjXjXjX",
"jXjXjXjXjXjXjXjXjXjXjXjXjXjXjXjXjXjXjXjXjXjXXXO 3.E.1 : , + L ).=Xv.+XhXm.0.l ; 1 ; S E.X s.jXjXjXjXjXjXjXjXjXjXjXjXjXjXjXjXjXjXjXjXjXjXjXjX",
"jXjXjXjXjXjXjXjXjXjXjXjXjXjXjXjXjXjXjXjXjXjXh h |.s.+ 1.x - : m ..L 8.5.f $ e Y e * 4 W.2.O jXjXjXjXjXjXjXjXjXjXjXjXjXjXjXjXjXjXjXjXjXjXjXjX",
"jXjXjXjXjXjXjXjXjXjXjXjXjXjXjXjXjXjXjXjXjX/.+ I..XG 3 z.j.x O % # e o . ; # U v.w , , k.|.t 4.jXjXjXjXjXjXjXjXjXjXjXjXjXjXjXjXjXjXjXjXjXjXjX",
"jXjXjXjXjXjXjXjXjXjXjXjXjXjXjXjXjXjXjXjXjXZ $.fXtX6 V [.W.E.o.1 & l f.~.h.o L v.U 1 o s.fX~.O jXjXjXjXjXjXjXjXjXjXjXjXjXjXjXjXjXjXjXjXjXjXjX",
"jXjXjXjXjXjXjXjXjXjXjXjXjXjXjXjXjXjXjXjXjX> 1 ~.oX; X. X'.].[.F , % v c.oXs L n.Z.0 + $.(.c   E.jXjXjXjXjXjXjXjXjXjXjXjXjXjXjXjXjXjXjXjXjXjX",
"jXjXjXjXjXjXjXjXjXjXjXjXjXjXjXjXjXjXjXjX1.+ v X : % s. X'.'..XS F O.j @ E l c =XZ.8 1 1 . b b % jXjXjXjXjXjXjXjXjXjXjXjXjXjXjXjXjXjXjXjXjXjX",
"jXjXjXjXjXjXjXjXjXjXjXjXjXjXjXjXjXjXjXjX  9._.0.M % x. X'.'.'.F H O.l c , : w Z.Z.T : , ~ G.G.9 2.jXjXjXjXjXjXjXjXjXjXjXjXjXjXjXjXjXjXjXjXjX",
"jXjXjXjXjXjXjXjXjXjXjXjXjXjXjXjXjXjXjXjXf 5XK.@X~ : E..X].'..XD x ] g.m x : y *X+Xn ; # 7.%X7X/ j jXjXjXjXjXjXjXjXjXjXjXjXjXjXjXjXjXjXjXjXjX",
"jXjXjXjXjXjXjXjXjXjXjXjXjXjXjXjXjXjXjXjX< $X9X>XR 5 !.].'.].z.F F ] 5.F h 4 q v.v.q ; o 7.qX>Xu 2.jXjXjXjXjXjXjXjXjXjXjXjXjXjXjXjXjXjXjXjXjX",
"jXjXjXjXjXjXjXjXjXjXjXjXjXjXjXjXjXjXjXjX3 I $X7Xa x .X]. XE.d g ` +.k @.j , & w 7 1 K > R @XT O jXjXjXjXjXjXjXjXjXjXjXjXjXjXjXjXjXjXjXjXjXjX",
"jXjXjXjXjXjXjXjXjXjXjXjXjXjXjXjXjXjXjXjXjX; q T < x z.E.E.j : : ` d.#.#.h 6 v g l &.p.; X   h jXjXjXjXjXjXjXjXjXjXjXjXjXjXjXjXjXjXjXjXjXjXjX",
"jXjXjXjXjXjXjXjXjXjXjXjXjXjXjXjXjXjXjXjXjXf.. # , , # > : * < + g F j m 1 t x s 4 4 & m 4.jXjXjXjXjXjXjXjXjXjXjXjXjXjXjXjXjXjXjXjXjXjXjXjXjX",
"jXjXjXjXjXjXjXjXjXjXjXjXjXjXjXjXjXjXjXjXjXjXF l c G < n P ( W 2 1 1 x % 2 9 9 i T 7 o.jXjXjXjXjXjXjXjXjXjXjXjXjXjXjXjXjXjXjXjXjXjXjXjXjXjXjX",
"jXjXjXjXjXjXjXjXjXjXjXjXjXjXjXjXjXjXjXjXjXjXjXjXjXjXh P b.b.b.b.9 2.yX1 T b.b.b.( * a.jXjXjXjXjXjXjXjXjXjXjXjXjXjXjXjXjXjXjXjXjXjXjXjXjXjXjX",
"jXjXjXjXjXjXjXjXjXjXjXjXjXjXjXjXjXjXjXjXjXjXjXjXjXjXw.. 8 9 w y X ~.fXJ & i i 8 < - XXjXjXjXjXjXjXjXjXjXjXjXjXjXjXjXjXjXjXjXjXjXjXjXjXjXjXjX",
"jXjXjXjXjXjXjXjXjXjXjXjXjXjXjXjXjXjXjXjXjXjXjXjXjXjXjX+ p i i 8 1 tXjXU.o v i i 8 x jXjXjXjXjXjXjXjXjXjXjXjXjXjXjXjXjXjXjXjXjXjXjXjXjXjXjXjX",
"jXjXjXjXjXjXjXjXjXjXjXjXjXjXjXjXjXjXjXjXjXjXjXjXjXjXjX4 w P a $ y.jXjXyX5 7 P I $ X.jXjXjXjXjXjXjXjXjXjXjXjXjXjXjXjXjXjXjXjXjXjXjXjXjXjXjXjX",
"jXjXjXjXjXjXjXjXjXjXjXjXjXjXjXjXjXjXjXjXjXjXjXjXjXjXjXz.o # X ] jXjXjXjX{.3 # # 3 jXjXjXjXjXjXjXjXjXjXjXjXjXjXjXjXjXjXjXjXjXjXjXjXjXjXjXjXjX",
"jXjXjXjXjXjXjXjXjXjXjXjXjXjXjXjXjXjXjXjXjXjXjXjXjXjXjXjXjXjXjXjXjXjXjXjXjXuX{.{.jXjXjXjXjXjXjXjXjXjXjXjXjXjXjXjXjXjXjXjXjXjXjXjXjXjXjXjXjXjX",
"jXjXjXjXjXjXjXjXjXjXjXjXjXjXjXjXjXjXjXjXjXjXjXjXjXjXjXjXjXjXjXjXjXjXjXjXjXjXjXjXjXjXjXjXjXjXjXjXjXjXjXjXjXjXjXjXjXjXjXjXjXjXjXjXjXjXjXjXjXjX",
"jXjXjXjXjXjXjXjXjXjXjXjXjXjXjXjXjXjXjXjXjXjXjXjXjXjXjXjXjXjXjXjXjXjXjXjXjXjXjXjXjXjXjXjXjXjXjXjXjXjXjXjXjXjXjXjXjXjXjXjXjXjXjXjXjXjXjXjXjXjX",
"jXjXjXjXjXjXjXjXjXjXjXjXjXjXjXjXjXjXjXjXjXjXjXjXjXjXjXjXjXjXjXjXjXjXjXjXjXjXjXjXjXjXjXjXjXjXjXjXjXjXjXjXjXjXjXjXjXjXjXjXjXjXjXjXjXjXjXjXjXjX",
"jXjXjXjXjXjXjXjXjXjXjXjXjXjXjXjXjXjXjXjXjXjXjXjXjXjXjXjXjXjXjXjXjXjXjXjXjXjXjXjXjXjXjXjXjXjXjXjXjXjXjXjXjXjXjXjXjXjXjXjXjXjXjXjXjXjXjXjXjXjX",
"jXjXjXjXjXjXjXjXjXjXjXjXjXjXjXjXjXjXjXjXjXjXjXjXjXjXjXjXjXjXjXjXjXjXjXjXjXjXjXjXjXjXjXjXjXjXjXjXjXjXjXjXjXjXjXjXjXjXjXjXjXjXjXjXjXjXjXjXjXjX",
"jXjXjXjXjXjXjXjXjXjXjXjXjXjXjXjXjXjXjXjXjXjXjXjXjXjXjXjXjXjXjXjXjXjXjXjXjXjXjXjXjXjXjXjXjXjXjXjXjXjXjXjXjXjXjXjXjXjXjXjXjXjXjXjXjXjXjXjXjXjX"
};
