/* XPM */
static char *dd5a5767e5c54e02f135305dc9bc7486Vyc132H7lKrSq24v[] = {
/* columns rows colors chars-per-pixel */
"70 70 96 2 ",
"   c #3EAC3B",
".  c #42AE3C",
"X  c #44B23E",
"o  c #49B03F",
"O  c #3EAA43",
"+  c #45AC43",
"@  c #4CAD46",
"#  c #47A149",
"$  c #4DA44C",
"%  c #46AD49",
"&  c #4CAD4B",
"*  c #52A54D",
"=  c #52AC4D",
"-  c #59AD4E",
";  c #46B244",
":  c #4CB245",
">  c #4DB14B",
",  c #50B146",
"<  c #53B34D",
"1  c #59B44E",
"2  c #56B94E",
"3  c #4EA551",
"4  c #4FAA52",
"5  c #53A651",
"6  c #59A754",
"7  c #55AC53",
"8  c #5AAD55",
"9  c #5CA75C",
"0  c #55AD59",
"q  c #5CAD5B",
"w  c #4FB250",
"e  c #56B153",
"r  c #51B452",
"t  c #55B452",
"y  c #54B256",
"u  c #57B256",
"i  c #57B257",
"p  c #56B656",
"a  c #59B553",
"s  c #5AB154",
"d  c #5CB055",
"f  c #5BB454",
"g  c #58B557",
"h  c #59B757",
"j  c #5FB456",
"k  c #56B953",
"l  c #5CB955",
"z  c #57B459",
"x  c #57B45A",
"c  c #5AB358",
"v  c #5BB359",
"b  c #5CB358",
"n  c #5CB459",
"m  c #5BB25C",
"M  c #5FB35E",
"N  c #5EB65C",
"B  c #5FB65D",
"V  c #57B859",
"C  c #5ABA5A",
"Z  c #5DB95A",
"A  c #61AE55",
"S  c #60AC5D",
"D  c #62AE5C",
"F  c #61B456",
"G  c #61B956",
"H  c #60B25A",
"J  c #60B45C",
"K  c #63B45C",
"L  c #61B65E",
"P  c #69B55E",
"I  c #64B95C",
"U  c #69B95E",
"Y  c #5EAE61",
"T  c #5EB361",
"R  c #5DB560",
"E  c #5EB461",
"W  c #5FBC62",
"Q  c #63AE61",
"!  c #6AAE62",
"~  c #62B561",
"^  c #65B462",
"/  c #6AB563",
"(  c #65BA61",
")  c #66B863",
"_  c #6BBA64",
"`  c #67B569",
"'  c #6CB669",
"]  c #66BC69",
"[  c #6EBA69",
"{  c #70B667",
"}  c #70BB66",
"|  c #71B769",
" . c #72BB6A",
".. c #75BC71",
"X. c #72C06B",
"o. c #74C171",
/* pixels */
"O + : & O r > > ; % > r r < > r y & e u u > < M 7 7 7 > < 0 < < q * f L 7 s = r ~ 8 s < 7 f = 7 = s 8 s 8 7 7 Y 7 z 8 8 m 0 7 = 0 & 0 7 3 4 ",
"> < < % O > > > < & w = 4 & > V r = n & u C 7 0 h s 7 h = r 7 M e e 7 e q h = q s n 0 u 8 0 M n 7 n ~ c c n 8 8 q 0 L n 0 8 7 5 q 7 c 7 T 4 ",
"> > ; > w w < r < e > e C % & & h = a s > c z p n = u = < 4 u 7 s s 8 a G 0 e 7 q S s F f s M s n s L q 8 n 0 8 n q ~ m q 0 7 q 5 c m 7 Y 0 ",
"% ; > > % 4 < & & 0 < u r w & 7 t e = 7 e h r < h e f 7 n n = s 0 = M n 7 n = 0 m q f f = n 0 u s n ] 8 8 ^ q n m n 0 c f 0 8 0 q 7 8 0 4 7 ",
"O w t = > r r < e u r = u r u V = e s h s n Z Z p f 8 n h c h M f 8 f n r 8 q 8 f q H q q I ( n 7 s n S ^ 0 c s 8 8 0 q D 0 8 8 0 = n 8 0 5 ",
"w & & % w t 7 < w < z e p w t t a r Z p C f n l f J f L e c f f n I n n 8 = f < h = K K J D n L s s L q ~ 8 8 H J q J q 8 8 8 0 0 7 s 0 q 5 ",
"< w t & h t Z @ = u 7 C h t = 2 h s 7 < = e 8 n n M n G G L s 8 8 f f n F 8 = F F H q ^ K 8 8 q L q 8 n q F 6 D ) q 8 q J q 7 8 0 0 m q 0 D ",
"% p t < h Z t < > e u s a s p p s < h 8 8 h 8 s 8 f n G s G 8 n s f I n L H = f F f H H F F _ q L L J c H q 8 n q 8 n 6 0 q 6 0 6 0 D q 7 q ",
"p > p u ( l r p % u n r h s e s f n f I u n n M H G n I G G 8 q s _ h h G n 8 n K H K / 7 K ~ s L q ~ A / L 7 / J 8 D ^ 6 8 0 q 9 Y q 0 q 0 ",
"s % z p > k a h e Z p s G = a u p n < n r G s K F H f f n F F F n M f e ( f J ^ L / 8 G P K q 8 H L q s I K f D ^ q / 0 n 0 8 m 5 Q m 5 q 5 ",
"W y e w C n k t p h 8 s p s e l G 8 < s s L e n K q K A n ( H q G q / P I / 8 G K Q 6 A K F ^ H n / H / P q q D q 8 K 0 D ^ 7 n S A 7 0 q 6 ",
"p R z < p n Z n p Z h 8 f G c G I G n G a H G s h s f G f P U ^ H F A I I L H I ~ s 8 / K K D K D H q D ( 8 = / A q Q 8 q Q ~ J D 6 H Y q 8 ",
"W R ] w 4 V r s e a f n G G n I ~ ^ n U G I L G H ( f L 8 a U ^ P G D F / ^ I ^ I H K K P / S D ^ D H D P I D J J K K A ^ q J 8 8 8 0 0 Y q ",
"C u R W z ( W 2 t h e s J M h t c G n I J L H I n n f / H 8 U P I L J n I I ^ ^ P L I P 8 D / F ^ ^ q I H / q / S c / 9 / Q D S q q ~ Q D Q ",
"C V C w u W C < s Z h n n s L f f ^ M ~ 7 8 I I m _ I I F ^ F q P D n J H / G ^ / I K U K P F I ' K 8 / / / / / K 8 ^ n S ^ D ^ ^ q ~ ` Q m ",
"p r n p p p n n c I n F f n n I G Z ( G H L n n L _ K } q n G 8 / I P ^ ^ F K L P D { ^ / P 6 q / / K P / L F P / S K q ~ ^ ^ n Q Y 0 Q ^ Q ",
"V n p r n l z Z M p f n M C p M I f I f F n f I H ^ G / P G q ^ ] _ ^ ^ I L ' K D ! U P ' ^ P / ^ | K ' H q L  .K D  .q ^ ^ J q q 0 Q ^ ~ q ",
"w V C u u z > f ( G t I n Z e Z I n I I c M I G I n K n L P G f P / / H I _ L / I _ G K L I I _ ) G J q K Q q ) K / _ H / q D ^ Q Q ' Q q q ",
"x R ] z t 1 < t s _ L G f ( n Z ( n I ~ n L T n G _ P _ H q P P I I / ( P K I K I / P _ _ ( D / P / / D I ^ 7 ^ / ' _ / J q Q ^ J q T D Y q ",
"C W ( w p s n n n F n I n I L n L ( ( n F L _ s F U F K I ^ I _ _ _ I / P / / I _ _ K I { / K I P K / ^ / / / ^ / G / I / ~ ' Q J S ~ ~ Q q ",
"I R C p < n n p s h n Z G p n n I M ~ ( I M _ I I ^ | K U J ^  .^ P U ( G P / / _ _ m ^ / / _ [ H H J P [ ' ' ^ ' ^ ' ' / ~ ~ / Q S ^ ` ^ J ",
"C C Z C e f G t a G L f n I I G ( ^ L c ) P I I I H ^ ^ ^ / I ) / P ) _ U _ / q ^ ^ / G / ^ } _ P / [ H ^ _ ^ ( ^ ' | / ^ ' | S J ~ T q n S ",
"s 0 M p Z r c n e a h n G L M p G ( I ( P P ( } I H U _ _ U I / F U U } U U U G L L A ) / P { _ / / ..' ' [ ' ' ....! ' | ^ P Q D  .Y ^ Q q ",
"w V G C I n f n h n c G G M I I G I n F / ) I _ P I ) ) ( ( I U U ) P _ / | ) U P K U / / K _ } / / / _ ^ [ ' ' ' ^ ' / q ~ S ~ Q Q ^ ~ ^ q ",
"l l M C Z F p < l l a I F n I I I ( ~ H P G ( ( G ( / H _ K / P  ._ L } / P ' _ ' 8 / ^ H P K { _ ' ! / Q / / | _ K ' ! ^ ' ' ^ Q / Y q q q ",
"t u k M a h f a l n 8 L L G ( M n I L H ( P ( P L L / _ /  .K / ( _ ^ H _ U / H / / P { K / { P _  . .! D ! / ..' / { / / Q Y / ^ Q S m Q q ",
"= r p C a G a C a ] F s K U G H G G ^ L ( H H I I H _ U P / ( I _ _ ) S P _ _ J / _ } _ K P / D J _ | / P ! / / ' /  .^ ! ! S A ! q q D ^ q ",
"t p n Z f Z a 1 t G G n H f I ( I U ^ F } _ I I I F _ P ~ ~ [ X.I ^ ) / I _ _ ^ / P _ { / P P ! / _ /  .I P / { D | / / Q P / K / D S Q 0 D ",
"C e e n Z h l a a 1 n G I n I F L I G ( } } G / _ K _ P U  .[ [ ' _ S ' _ _ _ [ / / / / ! P / ' ! ' ! P K / ^ / / | { / K D K S / q q Q q Q ",
"& p p 1 G p 2 s n l s F G I ( I P H I L U _ I I P P _ I / _ [ [  ./  .I ' ^ _ ) K / / K P P ' ! ' | D / / / Q / ' ' / Q ^ ^ S { ! ^ ) Q q ^ ",
"e < r l a n I l Z G G f n G ( n l I I I  .I ( X.I I P U _ P ^ ( [ o.' [ [ / ^ ^ { P D P S / ' P / / D ! / } / Q ' ! / / / K J J Q J / ^ Y Q ",
"@ Z 1 t p f l 1 l G I h n I L n F G I L G G _ ) _ U _ } ( I ^ ^ _ )  . .[ [ _ ' | / K / P ^ / / |  .! { / ' / P { Q / ! Q P P S Q Y ^ Y ' Q ",
"& p k e a F a l f G I L G I G _ I U P ) U U I U _ U U n I ( M ( [ [  . . . .[ ^ [ ' ' ' ^ P ^ K q K ' / / S K K / Q / / Q ' ! J K q / Y ~ Q ",
"h t t < < 1 1 h L 1 I f G f ( ( P I U f I L I _ _ I X._ ( _ [ _ ) ^ / | |  .' / ..' ' / / I ^ P D K / / D ' / | P / A / P ! ' / ' q Q ~ Y Y ",
"l < < t l > l G l n G I ( u Z _ G L _ G I F I P _ G U _ _ / _  .[ / ) _ / ' D  .| ' {  .^ ' ' ' / ^ P ! !  ./ P ! D { D q / ' / ' ) m S ~ 8 ",
"1 a < k 1 G l l Z l a G ( G f I ( I I _ P I U I P P } / ( { _ ) )  ./ ^ S J /  ._ ' ' ' ' / P I / / ! | ! { P D Q / P Q D / K J / ' / ' q S ",
"k h k r 2 f h l I G G P G I G I ( ( G G G G U X.U P } ) _ } _ ( _ ' [ ^ '  .^ ! K  .| /  ._ / / / ' / / / / / P Q Q / / / ! ^ J K J / ^ c ~ ",
"a k z < Z n F h l G l I I I U U M n I ^ I I U _ _ I U _ _ _ _ _ ) ^ _ [ _  .[ [ Q /  .} / _ / / / _ K P K / { P D / ! K S / J ^ 0 ' / S Q q ",
"k 1 2 < t Z G 2 l h G I U U n I L G _ ( I U U P U U P I _ ) _ / ) _ _ [ / _ [ [ / _ P _ I _ / _ / U / / / P { { P H / ! A K / ' ' Q q 8 8 0 ",
"< k 1 > < l G G I f a I G I F I M I _ _ U I U _ ) )  .P U }  .A / K / ' / [  . .^ _ / ' / _ / / K  .} / S K S / ' / ' Q / ^ J Q / Q q ! q ~ ",
"2 h a < r f n l I I n I G U f G I I U U _ U U U _ U _ / U  .} I } P P  .( / _ U  .) F / P } / / } / | ' ' / / / / / K A / Q Q Q / ^ Q J ^ ^ ",
"2 t 1 l h a G 1 a I t l X.I U G ( ( U U L ^ ( I U  .U _ _ _ ) _ _ / _ / [ _ / ^ P } P P _ U / } / / } /  ./ / '  ./ { D / / ` ' ! / ' ' J S ",
"k r l k l k h f f n p I Z I G I I I _ _ _ P _ P ) } P } _ } / } P K } _ P } } D } P P } / / / P P / ' _ ^ H /  ./ { / P / Q P Q q ' ^ Q J 6 ",
"1 k 2 h l l l F G I I Z I l G U G _ } / I _ U P I U U P U U _ U } _ } P U / / P } U ' P {  . ._ / / / _ / A / / ^ / P / A K P D Q Q ` Y D 8 ",
"2 < 1 < l p t t k Z n I G I _ n I U ( _ I ~ _ ( _ ^ U ( U G U U { } P _ } F } ( } }  ./ / _ _ / P / { / I ^ / / [ _ | K / ^ K S Q q ~ ^ ` Y ",
"l k t a 2 s l Z k l G ( I n I ( _ ) L ) I / / G I U f P _ U } X.H P _ _ I } } ^ } P P I ( )  . .P ^ _ / ^ ' / } ' '  .^ ' S 8 ^ ` ` ' ` ` ^ ",
"l 2 1 k t M G C l I Z ( ( G Z ( _ I / I I I U ( P I I L U _ _ U I _ / U _ _ _ _ P } P U P | P K / D / ^ ' ' ' / _ I [ ' ^ J / 8 / ! ^ ` Q ^ ",
"% 2 1 p G a G Z M n Z I U l G U L n I P I F U I { _ K I _ _ _ _ _  ._ } ' /  ._ } P P / I K K ^ / / I / / ^  .' / K / [ | ' ' ^ D ~ Q ^ Q q ",
"& C G = 1 2 G Z F l I ( G u G I h I I G ( I P G L _ ( ) _ / _ [ } ) _ } / P P / } _ U P _ / ^ / ^ ' A / _ L K _ / K / / ! [ q / ` ~ 0 ^ ^ Y ",
"< w e t 1 f I G a e n s G ^ I ( X.( I ( I I _ ( _ ( / I ^ _ U _ X._ _ ) _ / / / I _ U } P H H I ( _ ' ) _ } / ^ ^ ^ K J [ ^ ` ^ ^ ` ^ Y Y T ",
"1 < > h n s L h l f F G G G G ] I ( _ G G _ ( U _ _ I P _ _ _ _ _ [ _ / _ ^ _ } F / } U } I U U P _ I L / _ ^ ^ ^ H L ) ` ) ` ~ Q ^ Y Q Q 8 ",
"> k a a n U a F G G G L I a z I G ( ( U _ ] ( U U _ I / _ _ / P I _ U ( / U P P } / / U P ..^ / _ ' P H / I ( / ( J ' ^ n ^ Q Q Y Q q q T ~ ",
"k k h a < a s l h s l F u G n X.I L n J I ( I _ U I / U I ^ K / ) I / ) K K P P P P / } I U / P I ! / _ A ^ P n ^ / / Q ^ H q ^ ^ Q ~ z J J ",
"k r 2 1 : n Z   = Z f U a f f l G I c m U  .s _ U G I L L G P F U P P I P _ P A L F / } _ K } P P / ] I I H K / = ^ ' / ^ L D Q Q ` Q Q S q ",
"e < f a a k Z X , Z f 1 k h I U f G I G ~ n I U I G I s L I J 8 H f H A P } F K P P } P P P H P ^ ^ I P P / ^ D G / D ^ q ' ^ D ^ Q q 0 Q q ",
"k l t h a G ( G a f 1 - G t F _ Z P I P I 8 / / I P / P P G P K D P / P U U P P P K P P P  ._ P / K ' / / / _ L 8 D / ^ H L q 8 7 m q q q c ",
"2 I h t e F 1 . @ 1 a G G f F K f I G K U U f K I H U G F P F F H / A F } U F U U P P K F / ' ^ ^ { / _  ./ P K L K A D ' F S 8 q 8 7 q Y c ",
", 1 2 k < : o . k 2 1 1 I 8 A G l F f H G P G P I P I U F F F h U F A P P | F F U F P K K K { I P } _ G / } } L P K P A D H ~ S 8 q 6 q L 0 ",
": 1 1 1 1 < 2 k Z 1 a < 1 F F F 1 F F f n K K F I K F P P - P F F F K P A K K A P P F K f / } F  .} P P q P | P / A K D K D / q q q 6 3 q q ",
"; > : < < 2 1 1 < F a 1 1 1 F F f P f G F H P _ K K A F P s P 1 F F K P F D F P F I P K I P / H P P P U H f q D F f q - 8 A I 8 ' q 5 7 6 7 ",
": : : > 1 2 r < 1 l a 1 a < - 1 f I 8 f U f F a P q G G F n ( F - F K A D D K P f 8 U G K G I P P G H F _ P 8 A D P - q D 0 q K ~ C q 6 7 7 ",
": 2 ; r r < > < < 1 , k 1 F G = 1 P I P 1 f - q G G ^ L 8 H P I 1 F K - P G - D P 1 1 F I s P f H 8 F / 8 q A F I H q f A D 8 8 8 8 0 7 9 4 ",
"; r r 1 2 @ > < < < = 1 s < Z 7 f s h l G 8 1 F I G G P G H F G F P K F P U = K q P F D A D U K H K f q q F K D f H 7 8 D S q 8 ^ 5 7 5 0 6 ",
"2 < < : < 1 @ < h 2 < 1 < s G F 1 < G F 8 f 1 < 8 1 a a G - s a I U I P s A K K A F I I A n L q P G H P 8 f 8 F 8 q q K I 8 = S 7 n 8 7 * * ",
"r ; 2 : : , : : a < 1 l 1 1 1 , s f l - 1 F 1 = 1 h G s f f 1 F U n U F 8 F I H P A f K f = P I D F n H 8 n f F 8 q F = 7 8 5 q 5 7 = * & # ",
"X o ; + : ; > 1 k & s a 2 e < t < a 1 F f f G 8 s F 1 s s f F F P I G H P c n H 8 D 8 f D H - f h q 8 f F 8 q f P ^ 8 8 n = 5 9 q 6 0 8 = 6 ",
"  : : : : h < < & , : 1 < > 1 , , f s k f < F s G a 1 a a 8 F h I P F H < 7 F f - F F A f f F = f F f L - $ H K D f F P 8 = 6 S 8 7 $ 6 $ $ ",
": ; 2 : : 2 : < < @ < < > > < : e s 7 @ l s h e s s a 1 F I G I I s 1 8 f l G H F s 8 F 1 8 f e 8 8 H = 8 f 8 L K = 0 n & 6 8 & 7 3 $ = * $ ",
", : X X ; : r , + < = 1 < < , h e , < = < f e = l e s F G 8 G G U G G 7 f s s 8 q - 8 G * 6 n s G s M L 8 f n n 8 f 0 f 8 * 6 8 8 & $ 6 & $ ",
"< X + : ; . @ < : : : = u : 1 < < s F & , a s f < s s 1 1 G f I a h 1 < = u = 0 - F F f - 6 6 f f q q f 1 s n s = 8 7 = 8 7 @ 7 7 = s $ * $ "
};
