/* XPM */
static char *result[] = {
/* columns rows colors chars-per-pixel */
"70 70 222 2 ",
"   c #040303",
".  c #0B0503",
"X  c #06060A",
"o  c #0A060B",
"O  c #06090B",
"+  c #0C0C0C",
"@  c #060806",
"#  c #120A06",
"$  c #120D0C",
"%  c #170A06",
"&  c #0F110E",
"*  c #14110D",
"=  c #1A150E",
"-  c #0C0D13",
";  c #060E10",
":  c #120E12",
">  c #0D1213",
",  c #0E131A",
"<  c #06101A",
"1  c #131314",
"2  c #191515",
"3  c #161814",
"4  c #15151A",
"5  c #1A161A",
"6  c #16191B",
"7  c #1B1A1C",
"8  c #1C1914",
"9  c #26160D",
"0  c #221B14",
"q  c #2A1B12",
"w  c #221D1D",
"e  c #271916",
"r  c #341A16",
"t  c #1F201F",
"y  c #2E2213",
"u  c #26221D",
"i  c #2B221C",
"p  c #252016",
"a  c #33251A",
"s  c #352519",
"d  c #1C1D22",
"f  c #161C23",
"g  c #211F21",
"h  c #281E2A",
"j  c #1E2224",
"k  c #1E242B",
"l  c #172124",
"z  c #1D273F",
"x  c #222224",
"c  c #24252B",
"v  c #26292D",
"b  c #2A2A2D",
"n  c #2B2624",
"m  c #312E2C",
"M  c #342A24",
"N  c #393328",
"B  c #252B32",
"V  c #2C2D33",
"C  c #2D2F3A",
"Z  c #242734",
"A  c #302F33",
"S  c #2E3135",
"D  c #2F313B",
"F  c #24313C",
"G  c #313236",
"H  c #32343C",
"J  c #3B3B3B",
"K  c #373939",
"L  c #2B312F",
"P  c #411E1F",
"I  c #452B1D",
"U  c #4B2A18",
"Y  c #4D381C",
"T  c #4C1E23",
"R  c #46392A",
"E  c #483133",
"W  c #622B2A",
"Q  c #56422C",
"!  c #4A4238",
"~  c #574838",
"^  c #5E523F",
"/  c #694B33",
"(  c #64523B",
")  c #6C5B3E",
"_  c #1F3746",
"`  c #343642",
"'  c #363943",
"]  c #3B3C44",
"[  c #3E3E4B",
"{  c #383641",
"}  c #293045",
"|  c #413E43",
" . c #403F4C",
".. c #3B4247",
"X. c #3D414B",
"o. c #38454B",
"O. c #3A4651",
"+. c #334974",
"@. c #424245",
"#. c #43444D",
"$. c #4A4A4D",
"%. c #46484D",
"&. c #585148",
"*. c #444552",
"=. c #484755",
"-. c #464A56",
";. c #494A56",
":. c #4A4B59",
">. c #454B5B",
",. c #514E57",
"<. c #4E535B",
"1. c #525253",
"2. c #53535B",
"3. c #525A5D",
"4. c #5A5B5D",
"5. c #5A5B57",
"6. c #594A4B",
"7. c #665746",
"8. c #705558",
"9. c #75674E",
"0. c #7A6954",
"q. c #66665F",
"w. c #5C5C62",
"e. c #565D65",
"r. c #41557B",
"t. c #615F68",
"y. c #5B646B",
"u. c #5C6466",
"i. c #5E6B73",
"p. c #63646C",
"a. c #6A6C6E",
"s. c #636C73",
"d. c #6A6A74",
"f. c #676772",
"g. c #716F79",
"h. c #6B737A",
"j. c #6B7377",
"k. c #72747C",
"l. c #787877",
"z. c #706268",
"x. c #816126",
"c. c #984244",
"v. c #857459",
"b. c #917A58",
"n. c #856E52",
"m. c #8D5F64",
"M. c #8C7963",
"N. c #8E7274",
"B. c #997E62",
"V. c #AE7979",
"C. c #AC8337",
"Z. c #9C8769",
"A. c #928678",
"S. c #A58A67",
"D. c #A8926C",
"F. c #A18E73",
"G. c #AB9574",
"H. c #A69477",
"J. c #BA9E7A",
"K. c #B59C7A",
"L. c #BBA17A",
"P. c #B8A37A",
"I. c #C3A87B",
"U. c #3E5183",
"Y. c #596A88",
"T. c #6C7E84",
"R. c #767A82",
"E. c #66738B",
"W. c #798388",
"Q. c #7B8C9F",
"!. c #82888B",
"~. c #83959B",
"^. c #8A9598",
"/. c #909596",
"(. c #BAA482",
"). c #B8A687",
"_. c #8699A1",
"`. c #8895A8",
"'. c #99A3A8",
"]. c #9AAAB4",
"[. c #8EA1A5",
"{. c #A5A7A9",
"}. c #A8ADB1",
"|. c #ACB5BC",
" X c #B7B7B8",
".X c #DBBB8B",
"XX c #D6B98A",
"oX c #D7BB94",
"OX c #CCA790",
"+X c #DAC297",
"@X c #E5C48D",
"#X c #EAC997",
"$X c #F5D39D",
"%X c #FCD59B",
"&X c #FCDA9C",
"*X c #F9D497",
"=X c #F4CF90",
"-X c #C6C3BA",
";X c #EED6A3",
":X c #FCD6A2",
">X c #FEDCA3",
",X c #FADBA6",
"<X c #FFE2A5",
"1X c #FFE3AA",
"2X c #FFEBAC",
"3X c #FFE7B2",
"4X c #FFF0B2",
"5X c #A8B3C6",
"6X c #B6BDC1",
"7X c #BBC1C6",
"8X c #BDC7D4",
"9X c #C6C5C7",
"0X c #C8CFDA",
"qX c #D3D5D8",
"wX c #E0E0DE",
"eX c #DADFE1",
"rX c #DCE1E3",
"tX c #ECEDED",
"yX c #EEF3F7",
"uX c #F9F9F9",
"iX c #F8F1EF",
"pX c None",
/* pixels */
"pXpXpXpXpXpXpXpXpXpXpXpXpXpXpXpXpXpXpXpXpXpXpXpXpXpXpXpXpXpXpXpXpXpXpXpXpXpXpXpXpXpXpXpXpXpXpXpXpXpXpXpXpXpXpXpXpXpXpXpXpXpXpXpXpXpXpXpXpXpX",
"pXpXpXpXpXpXpXpXpXpXpXpXpXpXpXpXpXpXpXpXpXpXpXpXpXpXpXpXpXpXpXpXpXpXpXpXpXpXpXpXpXpXpXpXpXpXpXpXpXpXpXpXpXpXpXpXpXpXpXpXpXpXpXpXpXpXpXpXpXpX",
"pXpXpXpXpXpXpXpXpXpXpXpXpXpXpXpXpXpXpXpXpXpXpXpXpXpXpXpXpXpXpXpXpXpXpXpXpXpXpXpXpXpXpXpXpXpXpXpXpXpXpXpXpXpXpXpXpXpXpXpXpXpXpXpXpXpXpXpXpXpX",
"pXpXpXpXpXpXpXpXpXpXpXpXpXpXpXpXpXpXpXpXpXpXpXpXpXpXpXpXpXpXpXpXpXpXpXpXpXpXpXpXpXpXpXpXpXpXpXpXpXpXpXpXpXpXpXpXpXpXpXpXpXpXpXpXpXpXpXpXpXpX",
"pXpXpXpXpXpXpXpXpXpXpXpXpXpXpXpXpXpXpXpXpXpXpXpXpXpXpXpXpXpXpXpXpXpXpXpX/.s.-.O.-.h.pXpXpXpXpXpXpXpXpXpXpXpXpXpXpXpXpXpXpXpXpXpXpXpXpXpXpXpX",
"pXpXpXpXpXpXpXpXpXpXpXpXpXpXpXpXpXpXpXpXpXpXpXpXpXpXpXpXpXpXpXpXT...l 1 + 2 x n w : - X.pXpXpXpXpXpXpXpXpXpXpXpXpXpXpXpXpXpXpXpXpXpXpXpXpXpX",
"pXpXpXpXpXpXpXpXpXpXpXpXpXpXpXpXpXpXpXpXpXpXpXpXpXpXpXpXu.V 6 + . + 1 1 1 x | t.g.g.,.1 c pXpXpXpXpXpXpXpXpXpXpXpXpXpXpXpXpXpXpXpXpXpXpXpXpX",
"pXpXpXpXpXpXpXpXpXpXpXpXpXpXpXpXpXpXpXpXpXpXpXpXpXpX] - - m ;.4.y.p.t.2.$.V 1 5 ] t.R.f.5 B pXpXpXpXpXpXpXpXpXpXpXpXpXpXpXpXpXpXpXpXpXpXpXpX",
"pXpXpXpXpXpXpXpXpXpXpXpXpXpXpXpXpXpXpXpXpXpXpXpXy.+ g 1.d.R.k.d.f.p.f.f.d.g.y.*.v v $.g.f.- ..pXpXpXpXpXpXpXpXpXpXpXpXpXpXpXpXpXpXpXpXpXpXpX",
"pXpXpXpXpXpXpXpXpXpXpXpXpXpXpXpXpXpXpXpXpXpXpXF - | w.2. .] { H ]  . .*.*.*.,.p.t.#.H #.d.4.O y.pXpXpXpXpXpXpXpXpXpXpXpXpXpXpXpXpXpXpXpXpXpX",
"pXpXpXpXpXpXpXpXpXpXpXpXpXpXpXpXpXpXpXpXpXpXf $ n v 3 + : 5 j v D  .=.=.=.=.*.#.*.,.:.*.*.s.@.@ 6 j H -.j.pXpXpXpXpXpXpXpXpXpXpXpXpXpXpXpXpX",
"pXpXpXpXpXpXpXpXpXpXpXpXpXpXpXpXpXpXpXpXpX1 5 7 3 + 1 h G  .%.;.;.:.=.=.:.;.=.-.;.=.;.;.=.;.p.;...K A g - - : @.pXpXpXpXpXpXpXpXpXpXpXpXpXpX",
"pXpXpXpXpXpXpXpXpXpXpXpXpXpXpXpXpXpXpXT.+ 2 7 1 5 V  .=.:.>.=.-.;.=.-.-.-.=.-.-.;.:.-.-.>.*.<.e.y.p.d.g.g.p.1.2 , pXpXpXpXpXpXpXpXpXpXpXpXpX",
"pXpXpXpXpXpXpXpXpXpXpXpXpXpXpXpXpXpX2.X 5 4 3 b #.;.:.=.=.=.-.-.=.;.-.-.-.-.-.-.=.=.-.-.-.-.=.*.*.#.*.:.w.f.R.k.c d pXpXpXpXpXpXpXpXpXpXpXpX",
"pXpXpXpXpXpXpXpXpXpXpXpXpXpXpXpXpX_ H b 1 f { :.;.=.=.=.;.=.=.>.>.-.-.-.-.-.-.:.>.-.-.-.-.-.-.-.-.-.[ C V ] $.g.f.o s.pXpXpXpXpXpXpXpXpXpXpX",
"pXpXpXpXpXpXpXpXpXpXpXpXpXpXpXpXpXpXpXd d [ :.=.:.:.=.=.;.-.-.=.*.*.=.-.-.-.-.-.-.-.-.-.:.-.-.-.-.=.=.[ f 4 w G p.] 6 pXpXpXpXpXpXpXpXpXpXpX",
"pXpXpXpXpXpXpXpXpXpXpXpXpXpXpXpXpXpX#.: #.:.=.:.=.=.:.=.#. .' H D D ] -.-.-.-.-.-.-.-.-.-.-.-.-.-.>.=.-.*.v * & j ! & pXpXpXpXpXpXpXpXpXpXpX",
"pXpXpXpXpXpXpXpXpXpXpXpXpXpXpXpXpXW.o J ;.*.;.=.;.;.=.] H G G G S D D *.-.-.>.-.-.-.-.-.<.-.-.-.-.=.-.=.;.;.x 1 1 , + k.pXpXpXpXpXpXpXpXpXpX",
"pXpXpXpXpXpXpXpXpXpXpXpXpXpXpXpXpXk x ;.=.*.=.;.;.[ H A b x 7 2 6 x S ..:.-.-.-.-.-.-.-.-.-.-.-.-.=.>.=.-.-.#.j > S 1 D pXpXpXpXpXpXpXpXpXpX",
"pXpXpXpXpXpXpXpXpXpXpXpXpXpXpXpXR.O ] ;.=.=.;.;.H v x $   o 7 K 7 6 S J -.-.=.-.O.<.-.-.>.-.-.>.>.*.>.-.-.*.:.] O 4. Xo.pXpXpXpXpXpXpXpXpXpX",
"pXpXpXpXpXpXpXpXpXpXpXpXpXpXpXpXv d -.;.*.:.%.S d 1 5 @.a.{.9XwX1.+ V H -.*.*.-.<.-.-.-.-.:.-.-.-.-.-.-.*.-.;.:.v 6 rXpXpXpXpXpXpXpXpXpXpXpX",
"pXpXpXpXpXpXpXpXpXpXpXpXpXpXpXpX1 H -.;.:...j + o - x a.{.-XqXtX/.& v G *.' *.-.-.-.-.-.-.-.-.>.-.-.-.>.o.` #.-...+ h.pXpXpXpXpXpXpXpXpXpXpX",
"pXpXpXpXpXpXpXpXpXpXpXpXpXpXpXW.O #.;.;.{ 3 - $.&.N w $ $ 3 m &.5.3 u S ] } o.-.-.-.-.-.-.-.-.-.-.-.-.=.X.C } X.;.h V pXpXpXpXpXpXpXpXpXpXpX",
"pXpXpXpXpXpXpXpXpXpXpXpXpXpXpXO.3 $.;.V 4 w a. X{.!.4.A 4 3 - o @ 1 6 S D D H -.-.-.-.-.-.:.-.-.-.=.>.=.X.D H D *.H 3 7XpXpXpXpXpXpXpXpXpXpX",
"pXpXpXpXpXpXpXpXpXpXpXpXpXpXpXk g :.A 1 1 3 x +   . o * 2 8 g n N x 4 S D C D *.-.-.-.-.>.-.-.-.>.-.=.-.X.D D v G ..; '.pXpXpXpXpXpXpXpXpXpX",
"pXpXpXpXpXpXpXpXpXpXpXpXpXpXpXf V H 1 3 n N N Q 7.7.7.8.0.M.F.G.(.( O v D c D X.-.-.-.-.:.-.-.-.=.-.=.>.X.D H B t G + !.pXpXpXpXpXpXpXpXpXpX",
"pXpXpXpXpXpXpXpXpXpXpXpXpXpXpX6 x 1 + u Z.P.).H.9.R 8 i R ( D..XI.9.& v S 7 S X.-.-.>.=.-.-.-.-.-.=.=.-.] C D S 7 v + k.pXpXpXpXpXpXpXpXpXpX",
"pXpXpXpXpXpXpXpXpXpXpXpXpXpXpXf * K ] 0 +X+X&.&   q n.(.+X#X*X$XOXv.= j b 7 L X.-.-.=.>.:.-.-.-.-.-.-.=.H S H S 7 d + h.pXpXpXpXpXpXpXpXpXpX",
"pXpXpXpXpXpXpXpXpXpXpXpXpXpXpXd 1 pX!.$ ;XD.  ~ (.;X2X2X1X>X%X&XXXZ.0 d x 6 V ] :.-.-.-.-.-.=.[ =.=.-.*.H D D S d 4 + k.pXpXpXpXpXpXpXpXpXpX",
"pXpXpXpXpXpXpXpXpXpXpXpXpXpXpX< k.pXpX+ .X.XG.+XZ.) R R Q P.1X%XXXH.i 1 7 6 V ] -.-.-.-.-.-.-.D ..>.:.X.H H D S x 3 + W.pXpXpXpXpXpXpXpXpXpX",
"pXpXpXpXpXpXpXpXpXpXpXpXpXpXpXO.pXpXpX. J.3X(.9 > z } w.@.% L.<XXXG.m 1 4 6 V ] -.-.=.O.*.=.[ C } *.=.` } H D D x 1 . ^.pXpXpXpXpXpXpXpXpXpX",
"pXpXpXpXpXpXpXpXpXpXpXpXpXpXpXpXpXpXpX@ S.,Xs #.Y.r.r.Q.yX6.M <X@XK.R : 2 6 B ] :.-.X.D %.*.H C D [ X.S D H D D g 5 + {.pXpXpXpXpXpXpXpXpXpX",
"pXpXpXpXpXpXpXpXpXpXpXpXpXpXpXpXpXpXpX; 0.#Xe R.} j.5X+.0X-X# L.=XJ.! 1 7 7 b ] ;.*.H C #.[ D D C ` ` C D D D S 7 4 - pXpXpXpXpXpXpXpXpXpXpX",
"pXpXpXpXpXpXpXpXpXpXpXpXpXpXpXpXpXpXpXf ) oXu s.f m h.+.5XiXw b.%XJ.E M J * S ] #.} C H ] H D D D D C C D D H D 1 $.J pXpXpXpXpXpXpXpXpXpXpX",
"pXpXpXpXpXpXpXpXpXpXpXpXpXpXpXpXpXpXpXv ( .Xp k.Z d !.U.5XiXw b.%X(.( v.N 1 S D ` C H H D D D D D H D D S S H b @ [.!.pXpXpXpXpXpXpXpXpXpXpX",
"pXpXpXpXpXpXpXpXpXpXpXpXpXpXpXpXpXpXpXf ) ,Xy l.Y.} Y.r.rX9X# L.>XL.S.F.p 6 S D D C C D D B D D D D D D v j K x 6 rXpXpXpXpXpXpXpXpXpXpXpXpX",
"pXpXpXpXpXpXpXpXpXpXpXpXpXpXpXpXpXpXpXO n.2X) x 0X`.E.8XuX1.M :X:XXXP.Z.= d S D D D D H B x D H D D D H d 6 L $ 3.pXpXpXpXpXpXpXpXpXpXpXpXpX",
"pXpXpXpXpXpXpXpXpXpXpXpXpXpXpXpXpXpXpXO Z.2X+X9 ] l.R.k.E # J.1X%X@XP.v.* x G D D D D H d b H C H C H v 4 7 x - |.pXpXpXpXpXpXpXpXpXpXpXpXpX",
"pXpXpXpXpXpXpXpXpXpXpXpXpXpXpXpXpXpXpX; v.1X&XK.R y a s ~ L.<X%X%X$XI.9.+ b H S H C H x d H G D D H V 7 1 7 O y.pXpXpXpXpXpXpXpXpXpXpXpXpXpX",
"pXpXpXpXpXpXpXpXpXpXpXpXpXpXpXpXpXpXpXS ~ 3X*X>X<X:X%X:X1X>X*X%X:X$XOX! : b H G V H Z 4 b G S G D V 4 + 6 * D pXpXpXpXpXpXpXpXpXpXpXpXpXpXpX",
"pXpXpXpXpXpXpXpXpXpXpXpXpXpXpXpXpXpXpXpXo K.3X%X*X:X%X%X%X%X%X%X>X@XD.p 4 G G G G c 1 j G G G G G : k !.x 1 pXpXpXpXpXpXpXpXpXpXpXpXpXpXpXpX",
"pXpXpXpXpXpXpXpXpXpXpXpXpXpXpXpXpXpXpXpXo.. Z.;X1X&X>X%X%X%X%X%X#XI.v.# j G G S c 1 4 V G G S c o v 0XeX, {.pXpXpXpXpXpXpXpXpXpXpXpXpXpXpXpX",
"pXpXpXpXpXpXpXpXpXpXpXpXpXpXpXpXpXpXpXpXpXe.o s b.oX;X,X>X<X,X#XI.(.~ O V G v 7 1 4 v G V c 7 - e.qXpX'.s.pXpXpXpXpXpXpXpXpXpXpXpXpXpXpXpXpX",
"pXpXpXpXpXpXpXpXpXpXpXpXpXpXpXpXpXpXpXpXpXpXpX;.$ * y Q ( ) 7.( 7.^ p 3 v 7 6 1 4 7 x 7 6 1 v }.uXpXpXpXpXpXpXpXpXpXpXpXpXpXpXpXpXpXpXpXpXpX",
"pXpXpXpXpXpXpXpXpXpXpXpXpXpXpXpXpXpXpXpXpXpXpXpXpXpXj.X.1 @ . $ + # 1 1 5 2 1 3 4 4 3 1 1 o K yXpXpXpXpXpXpXpXpXpXpXpXpXpXpXpXpXpXpXpXpXpXpX",
"pXpXpXpXpXpXpXpXpXpXpXpXpXpXpXpXpXpXpXpXpXpXpXpXpXpXpXpX] m N.T w 1 1 7 4 5 H 7 4 3 3 > R C.Y 3.pXpXpXpXpXpXpXpXpXpXpXpXpXpXpXpXpXpXpXpXpXpX",
"pXpXpXpXpXpXpXpXpXpXpXpXpXpXpXpXpXpXpXpXpXpXpXpXpXpXpXpX, z.N.9 2 d 2.] + e./.$.1 x x > R C.x.4.pXpXpXpXpXpXpXpXpXpXpXpXpXpXpXpXpXpXpXpXpXpX",
"pXpXpXpXpXpXpXpXpXpXpXpXpXpXpXpXpXpXpXpXpXpXpXpXpXpXpXpX> J 2 1 5 y.W.c 7 ~.~.k.k x 4.1 5 h % }.pXpXpXpXpXpXpXpXpXpXpXpXpXpXpXpXpXpXpXpXpXpX",
"pXpXpXpXpXpXpXpXpXpXpXpXpXpXpXpXpXpXpXpXpXpXpXpXpXpXpX'.- % 5 - ' Q.W.- K [.Q.W.@.> G 3 u $.G pXpXpXpXpXpXpXpXpXpXpXpXpXpXpXpXpXpXpXpXpXpXpX",
"pXpXpXpXpXpXpXpXpXpXpXpXpXpXpXpXpXpXpXpXpXpXpXpXpXpXpXs.% W T - j.].i.X <.].~.W.3.1 1 1 8 8 ,.pXpXpXpXpXpXpXpXpXpXpXpXpXpXpXpXpXpXpXpXpXpXpX",
"pXpXpXpXpXpXpXpXpXpXpXpXpXpXpXpXpXpXpXpXpXpXpXpXpXpXpXo.r c.r 6 W.].3.; y.[.~.T.u.3 1 @.7 * ..pXpXpXpXpXpXpXpXpXpXpXpXpXpXpXpXpXpXpXpXpXpXpX",
"pXpXpXpXpXpXpXpXpXpXpXpXpXpXpXpXpXpXpXpXpXpXpXpXpXpXpXl 6.OXs O <.].-., ].7X5X~./.L x a.2 7 ..pXpXpXpXpXpXpXpXpXpXpXpXpXpXpXpXpXpXpXpXpXpXpX",
"pXpXpXpXpXpXpXpXpXpXpXpXpXpXpXpXpXpXpXpXpXpXpXpXpXpXpXd 8.V.= $ & s.#.7 qXuXyX6X}.J 7 m 1 O !.pXpXpXpXpXpXpXpXpXpXpXpXpXpXpXpXpXpXpXpXpXpXpX",
"pXpXpXpXpXpXpXpXpXpXpXpXpXpXpXpXpXpXpXpXpXpXpXpXpXpXpX4 m.V.# J x @ 7 5 V #.;.K x 8 2 3 1 3 pXpXpXpXpXpXpXpXpXpXpXpXpXpXpXpXpXpXpXpXpXpXpXpX",
"pXpXpXpXpXpXpXpXpXpXpXpXpXpXpXpXpXpXpXpXpXpXpXpXpXpXpX1 T W # 2. X1.3 3 i 8 * 0 M 8 : b x S pXpXpXpXpXpXpXpXpXpXpXpXpXpXpXpXpXpXpXpXpXpXpXpX",
"pXpXpXpXpXpXpXpXpXpXpXpXpXpXpXpXpXpXpXpXpXpXpXpXpXpXpX> $ e : o 4. X..0 H.G.F.F.(.~ o  Xu.H pXpXpXpXpXpXpXpXpXpXpXpXpXpXpXpXpXpXpXpXpXpXpXpX",
"pXpXpXpXpXpXpXpXpXpXpXpXpXpXpXpXpXpXpXpXpXpXpXpXpXpXpX& F 4 L '   + 3 i +X@X@X.X,X9.1 tXl.l pXpXpXpXpXpXpXpXpXpXpXpXpXpXpXpXpXpXpXpXpXpXpXpX",
"pXpXpXpXpXpXpXpXpXpXpXpXpXpXpXpXpXpXpXpXpXpXpXpXpXpXs.+ >., j.].d.K u $ Z.2X<X2XoXq j 9Xp.> pXpXpXpXpXpXpXpXpXpXpXpXpXpXpXpXpXpXpXpXpXpXpXpX",
"pXpXpXpXpXpXpXpXpXpXpXpXpXpXpXpXpXpXpXpXpXpXpXpXpXpX<.@ > & H :.3.w...: 9 v.D.9.a $ 6 t 2 v pXpXpXpXpXpXpXpXpXpXpXpXpXpXpXpXpXpXpXpXpXpXpXpX",
"pXpXpXpXpXpXpXpXpXpXpXpXpXpXpXpXpXpXpXpXpXpXpXpXpXpXpXpXR.S + $ $ O 2 2 : . . . = 8 * H pXpXpXpXpXpXpXpXpXpXpXpXpXpXpXpXpXpXpXpXpXpXpXpXpXpX",
"pXpXpXpXpXpXpXpXpXpXpXpXpXpXpXpXpXpXpXpXpXpXpXpXpXpXpXpXpXpX& i M 7 2 R / / Q / Q = + pXpXpXpXpXpXpXpXpXpXpXpXpXpXpXpXpXpXpXpXpXpXpXpXpXpXpX",
"pXpXpXpXpXpXpXpXpXpXpXpXpXpXpXpXpXpXpXpXpXpXpXpXpXpXpXpXpXpXl * e 9 1 e s s r q e # 4.pXpXpXpXpXpXpXpXpXpXpXpXpXpXpXpXpXpXpXpXpXpXpXpXpXpXpX",
"pXpXpXpXpXpXpXpXpXpXpXpXpXpXpXpXpXpXpXpXpXpXpXpXpXpXpXpXpXpX*.% I I 3 2 9 q q s i 1 pXpXpXpXpXpXpXpXpXpXpXpXpXpXpXpXpXpXpXpXpXpXpXpXpXpXpXpX",
"pXpXpXpXpXpXpXpXpXpXpXpXpXpXpXpXpXpXpXpXpXpXpXpXpXpXpXpXpXpXg.. I I q 9 U U U U 9 G pXpXpXpXpXpXpXpXpXpXpXpXpXpXpXpXpXpXpXpXpXpXpXpXpXpXpXpX",
"pXpXpXpXpXpXpXpXpXpXpXpXpXpXpXpXpXpXpXpXpXpXpXpXpXpXpXpXpXpXpX1 # # + # q r y q   W.pXpXpXpXpXpXpXpXpXpXpXpXpXpXpXpXpXpXpXpXpXpXpXpXpXpXpXpX",
"pXpXpXpXpXpXpXpXpXpXpXpXpXpXpXpXpXpXpXpXpXpXpXpXpXpXpXpXpXpXpXpXpXW.W.1.l 1 1 7 a.pXpXpXpXpXpXpXpXpXpXpXpXpXpXpXpXpXpXpXpXpXpXpXpXpXpXpXpXpX",
"pXpXpXpXpXpXpXpXpXpXpXpXpXpXpXpXpXpXpXpXpXpXpXpXpXpXpXpXpXpXpXpXpXpXpXpXpXpXpXpXpXpXpXpXpXpXpXpXpXpXpXpXpXpXpXpXpXpXpXpXpXpXpXpXpXpXpXpXpXpX",
"pXpXpXpXpXpXpXpXpXpXpXpXpXpXpXpXpXpXpXpXpXpXpXpXpXpXpXpXpXpXpXpXpXpXpXpXpXpXpXpXpXpXpXpXpXpXpXpXpXpXpXpXpXpXpXpXpXpXpXpXpXpXpXpXpXpXpXpXpXpX",
"pXpXpXpXpXpXpXpXpXpXpXpXpXpXpXpXpXpXpXpXpXpXpXpXpXpXpXpXpXpXpXpXpXpXpXpXpXpXpXpXpXpXpXpXpXpXpXpXpXpXpXpXpXpXpXpXpXpXpXpXpXpXpXpXpXpXpXpXpXpX",
"pXpXpXpXpXpXpXpXpXpXpXpXpXpXpXpXpXpXpXpXpXpXpXpXpXpXpXpXpXpXpXpXpXpXpXpXpXpXpXpXpXpXpXpXpXpXpXpXpXpXpXpXpXpXpXpXpXpXpXpXpXpXpXpXpXpXpXpXpXpX"
};
