/* XPM */
static char *_c19045b128a4f7dc848375b4851036dXNq92wR3AYFPi18x[] = {
/* columns rows colors chars-per-pixel */
"70 70 163 2 ",
"   c None",
".  c #BF650B",
"X  c #C76F06",
"o  c #CE6F05",
"O  c #CC7704",
"+  c #CF7F01",
"@  c #C5741E",
"#  c #D48302",
"$  c #DD8C03",
"%  c #DD9901",
"&  c #E38E02",
"*  c #E88F00",
"=  c #E59401",
"-  c #EC9500",
";  c #E49B02",
":  c #EC9B02",
">  c #D6AB02",
",  c #DCAE02",
"<  c #D6AC0B",
"1  c #DFAC09",
"2  c #DEB102",
"3  c #DBB20E",
"4  c #DFAC14",
"5  c #DBA21A",
"6  c #D7B016",
"7  c #D7B018",
"8  c #D9B119",
"9  c #E4A302",
"0  c #EDA402",
"q  c #E1AD02",
"w  c #ECAB02",
"e  c #EAA20B",
"r  c #EEA80B",
"t  c #F3A501",
"y  c #F4AB01",
"u  c #E3B302",
"i  c #EBB402",
"p  c #E7B801",
"a  c #EDBA02",
"s  c #E8B608",
"d  c #F4B401",
"f  c #F8B701",
"g  c #F3BC02",
"h  c #F8BC01",
"j  c #EDAA10",
"k  c #E7B613",
"l  c #D48E2A",
"z  c #CF922E",
"x  c #D99A2B",
"c  c #D59833",
"v  c #DDA324",
"b  c #D7A32F",
"n  c #DEA328",
"m  c #D8B326",
"M  c #DAB529",
"N  c #D8A031",
"B  c #DEB53D",
"V  c #E6BB24",
"C  c #EFC004",
"Z  c #EECF03",
"A  c #F5C302",
"S  c #F9C501",
"D  c #F6CA02",
"F  c #FDCC01",
"G  c #FDCC0A",
"H  c #F7D102",
"J  c #FBD301",
"K  c #F6DA03",
"L  c #FBDB02",
"P  c #F3C215",
"I  c #F6CE13",
"U  c #FDCD13",
"Y  c #FBCE1A",
"T  c #F4E204",
"R  c #FCE302",
"E  c #F7EA04",
"W  c #FBEE04",
"Q  c #FCEC07",
"!  c #FDEC02",
"~  c #FBEF08",
"^  c #FAEB0D",
"/  c #FDF202",
"(  c #FCF202",
")  c #FCF002",
"_  c #FDF104",
"`  c #FAF705",
"'  c #FCF704",
"]  c #FCF404",
"[  c #FDFB05",
"{  c #FDF904",
"}  c #FDFC05",
"|  c #FDFE05",
" . c #FDFB04",
".. c #FCF40C",
"X. c #FCF20C",
"o. c #FCF714",
"O. c #FBF217",
"+. c #FCFC16",
"@. c #FAF31A",
"#. c #FCF31C",
"$. c #FACF24",
"%. c #F2C52C",
"&. c #F9CF2D",
"*. c #F6D32B",
"=. c #FAD12F",
"-. c #FADC28",
";. c #E7C638",
":. c #ECD33F",
">. c #F5D535",
",. c #FBD434",
"<. c #FAE825",
"1. c #FAF322",
"2. c #FCF429",
"3. c #FBF228",
"4. c #FCFC2A",
"5. c #F9EE36",
"6. c #FAF137",
"7. c #FBFB39",
"8. c #F1CC4C",
"9. c #F5D550",
"0. c #F0DE5C",
"q. c #FCDB59",
"w. c #FBDC5E",
"e. c #F7F445",
"r. c #FCFA47",
"t. c #F6F448",
"y. c #F5F14C",
"u. c #FAF54C",
"i. c #FBF94D",
"p. c #F8EE55",
"a. c #F6E35B",
"s. c #F9F55B",
"d. c #FBF85F",
"f. c #ECCF67",
"g. c #F7DB68",
"h. c #F4DA6A",
"j. c #F5DD6A",
"k. c #F9DF6F",
"l. c #EFD87D",
"z. c #F2D973",
"x. c #F8DE73",
"c. c #FAE064",
"v. c #F7EB60",
"b. c #FCEA62",
"n. c #FCE46C",
"m. c #F7F167",
"M. c #FBF067",
"N. c #FCE272",
"B. c #F9F87B",
"V. c #F0DE8F",
"C. c #E8D491",
"Z. c #FCE583",
"A. c #FBE485",
"S. c #FBE58D",
"D. c #F1EA8C",
"F. c #FBF483",
"G. c #FCFB88",
"H. c #F6E493",
"J. c #EDDEA0",
"K. c #E9DBA8",
"L. c #F3E3A0",
"P. c #FCEDAC",
"I. c #E9E0BD",
/* pixels */
"                                                                                                                                            ",
"                                                                                                                                            ",
"                                                                                                                                            ",
"                                                              Z.N.h.g.g.c.b.v.D.                                                            ",
"                                                          9.U F F F F J L R ! Q 5.                                                          ",
"                                                        =.F F F F F F L L L L R W 2.                                                        ",
"                                                      =.G F F F F F J J S h g A L _ y.                                                      ",
"                                                    9.F F F F F F F F g y d d d g L ..                                                      ",
"                                                    G F F F F F F F g y y y f d d g R 4.                                                    ",
"                                                  ,.F F F F F F J F y t y y d d g g D ..                                                    ",
"                                                H.G F F F F F F L h t t y y y d d g A R e.                                                  ",
"                                                =.F F F F F F J K y t t t y d d d g a D o.                                                  ",
"                                              P.F F F F F F F L S t t t t y d d d g g g E G.                                                ",
"                                              w.F F F F F F J R h y y t t y a d d d g a K r.                                                ",
"                                              $.F F F F F F J L d y y t t t K g d d g g A @.                                                ",
"                                            J.G F F F F F F R K d y y y t y ` D d d d g A ^                                                 ",
"                                            g.F F F F F F F ! D d d y y t a } L d d d a g L B.                                              ",
"                                            ,.F F F F F F J ! A d d y y t Z } W d d d g g H t.                                              ",
"                                            Y F F J F F F J ! g g d y y 0 T [ ` g d d g g D 1.                                              ",
"                                            G F F F F F F L R A g d d y w ~ [ [ K y d d a g X.                                              ",
"                                          Z.F F F F F F S R L A g g d y a [ } } R y d d a g R                                               ",
"                                          w.F F F F F F S ! H A A f d 0 Z [ } } ' f d d d g K                                               ",
"                                          ,.F F F F F F S ! D A g g g w E [ [ [ [ J d d d g H                                               ",
"                                          Y F F F F F S A R A A A A f L ( ( ( ( ] ( S d d g D                                               ",
"                                          G F F F F F S D L g A A A J ( ! ! ! ! ! ! ! S d f A                                               ",
"                                          F F F F F S A A K f A A H R R R ! R R R R R R D d g                                               ",
"                                          F F F F F S A D F d A F R R L R L R L L R L L L g 0                                               ",
"                                        H.F F F F S A A A F d 9 H L L K J L L L L L L L K ; w                                               ",
"                                        V.F F F S S A g A A d # a J J J J J J J J J J J A ; 0                                               ",
"                                        z.F F F S S A A A h y ; % F F J F F F F F F F F g ; 0                                               ",
"                                        x.F F F S A A a A h y w # S F F F F F F F F F J 9 : 0                                               ",
"                                        x.F F S S A A a g f t d O D F F F F F F F F F F ; 0 :                                               ",
"                                        N.F F S A A a a A f t y # i F F F F F F F F F S ; : :                                               ",
"                                        j.F S S A g a a g f t y ; % F F F F F F F F J g = : :                                               ",
"                                        z.F S A g g a i C d t y y + F F F F F F F F F w : : :                                               ",
"                                        z.S A A A a i p g h t t d # A F F F F F F F F : : : :                                               ",
"                                        A.A A A a a i p a f 0 t y $ a F F F F F F F S = - - :                                               ",
"                                        S.A A g a a u u a f y t y & 9 F J J F J J J F 0 = : :                                               ",
"                                        L.A A g a i u u i f t t : - > L L L L L L L J t : = :                                               ",
"                                        K.A A a a i u u i h t : - - w ! R R R R R R L e - : : >.                                            ",
"                                        I.A g a i p u , u S : - - - , ! ! ! ( ! ! ! ! t - - : >.                                            ",
"                                          P a a p u , , 2 g - - - * q { ` ` ' { { { ! 0 = - 0                                               ",
"                                          %.a s i u q , , A : - - * u [ | [ | | [ [ ' 0 - - 0                                               ",
"                                          8.a i u u , > > A t - - = q o.+.+.+.+.+.+.O.w - - y                                               ",
"                                          f.i p u , , > > C t - - - k 4.2.4.4.4.4.4.3.0 : - d                                               ",
"                                          C.s u u , > > > a y - - * 5 7.7.7.7.7.7.7.6.r : : h                                               ",
"                                            k u 2 , > > > u f - - - v r.i.t.;.8.i.i.y.r : :                                                 ",
"                                            V u 2 > > > > 2 g : - - n M.s.b O . B M.p.r : e                                                 ",
"                                              u , > > > > > A : - * x m.N $ w w X z 0.j 0 r                                                 ",
"                                              , > > > > > > C y - - l c & 0 0 d i # @ e 0 g                                                 ",
"                                                , > > > > > a d - - o * : : 0 w i y ; 9 0 I                                                 ",
"                                                > > > > > > 2 A - - - - : : 0 w i i w 0 w -.                                                ",
"                                                > > > > > > > D t - - - - : t t w i w 0 A a.                                                ",
"                                                  > > > > > > a d - : - - : : 0 w i w w K                                                   ",
"                                                  > > > > > > u F : - - - - : 0 w i i g <.                                                  ",
"                                                    > > > > > , S f - - - - : 0 0 w s K M.                                                  ",
"                                                    > > > > > > i S : : - - : t 0 w D ..                                                    ",
"                                                    M > > > > > , S f : - - - - 0 s E s.                                                    ",
"                                                      < > > > > > p S d : - - : w J 1.                                                      ",
"                                                        < > > > > > A F h t 0 w H R F.                                                      ",
"                                                          8 > > > > 2 A F F S F L a.                                                        ",
"                                                              m 7 8 7 3 A S S Y                                                             ",
"                                                                                                                                            ",
"                                                                                                                                            ",
"                                                                                                                                            ",
"                                                                                                                                            ",
"                                                                                                                                            ",
"                                                                                                                                            ",
"                                                                                                                                            ",
"                                                                                                                                            "
};
