/* XPM */
static char *a7e5902a097f4cd190be797780f7a77fAYILMjaD3njtbqXE[] = {
/* columns rows colors chars-per-pixel */
"70 70 180 2 ",
"   c None",
".  c #AD4302",
"X  c #B04702",
"o  c #B34B01",
"O  c #B65002",
"+  c #BD5502",
"@  c #BD5D03",
"#  c #BD610B",
"$  c #BD6610",
"%  c #C35E02",
"&  c #C96502",
"*  c #C76E02",
"=  c #C0660A",
"-  c #C26402",
";  c #CD7A02",
":  c #C6710A",
">  c #CF750B",
",  c #CE7C0E",
"<  c #CA7503",
"1  c #D27504",
"2  c #D47D02",
"3  c #C06D16",
"4  c #C06D1F",
"5  c #C97C16",
"6  c #D68104",
"7  c #DB8502",
"8  c #D68B02",
"9  c #DB8C02",
"0  c #D69102",
"q  c #DC9501",
"w  c #DA9A02",
"e  c #E08602",
"r  c #E68F02",
"t  c #E39301",
"y  c #EA9403",
"u  c #E79A02",
"i  c #EB9C02",
"p  c #F09F01",
"a  c #DCA603",
"s  c #E4A302",
"d  c #EBA302",
"f  c #E6AA02",
"g  c #EBAC02",
"h  c #F0A301",
"j  c #F1AC01",
"k  c #E0B203",
"l  c #ECB102",
"z  c #EFBA02",
"x  c #F1B301",
"c  c #F2BB02",
"v  c #E3A31D",
"b  c #CC8121",
"n  c #CA8824",
"m  c #CD8D2B",
"M  c #D08C23",
"N  c #D59C2B",
"B  c #C88435",
"V  c #CD8F3C",
"C  c #CF9433",
"Z  c #DCB12E",
"A  c #D6A330",
"S  c #DEB63A",
"D  c #E1BB22",
"F  c #E7C404",
"G  c #E9CB04",
"H  c #F4C202",
"J  c #F9C501",
"K  c #F6CC02",
"L  c #FACA01",
"P  c #FBCA0C",
"I  c #F2C30E",
"U  c #EED102",
"Y  c #EAD008",
"T  c #F6D202",
"R  c #FAD402",
"E  c #F7DB03",
"W  c #FBDB02",
"Q  c #FBD20C",
"!  c #FBDB0F",
"~  c #E5C616",
"^  c #F9CB13",
"/  c #F9CD1C",
"(  c #F2C31A",
")  c #FBD810",
"_  c #FAD419",
"`  c #FBD718",
"'  c #F4E203",
"]  c #FCE301",
"[  c #F6EA04",
"{  c #FDEB02",
"}  c #FDE40C",
"|  c #FCEA0D",
" . c #FDF403",
".. c #FDFA05",
"X. c #FCF50A",
"o. c #FDFA0E",
"O. c #FBE015",
"+. c #FCED11",
"@. c #FBE21C",
"#. c #FCF416",
"$. c #FCFA14",
"%. c #FBF816",
"&. c #FAF11E",
"*. c #FCF91E",
"=. c #F8CE22",
"-. c #F1C32A",
";. c #F6CE2F",
":. c #F8DF27",
">. c #FAD02F",
",. c #FADE2C",
"<. c #FBDF2F",
"1. c #F7CF30",
"2. c #F9D333",
"3. c #F9DC36",
"4. c #F6D038",
"5. c #FAD53E",
"6. c #FBEC25",
"7. c #FBE029",
"8. c #FCEC28",
"9. c #FCFA21",
"0. c #F9F72A",
"q. c #F9F22D",
"w. c #FBE53A",
"e. c #F8ED3B",
"r. c #FAF634",
"t. c #FBFB34",
"y. c #FCF739",
"u. c #FBF83A",
"i. c #D8A947",
"p. c #DEB541",
"a. c #DEB846",
"s. c #E4C441",
"d. c #EFDC40",
"f. c #EEDA4F",
"g. c #F5D143",
"h. c #FAD643",
"j. c #F6DD41",
"k. c #EEDC5C",
"l. c #F4D754",
"z. c #F5D75D",
"x. c #FBDA59",
"c. c #F7ED43",
"v. c #F8E649",
"b. c #FDF246",
"n. c #FBF847",
"m. c #FAF649",
"M. c #FAF94A",
"N. c #F4E253",
"B. c #FAE15F",
"V. c #F5F054",
"C. c #FCF656",
"Z. c #F6F259",
"A. c #FAF65C",
"S. c #E9D36A",
"D. c #FADC66",
"F. c #F4D86C",
"G. c #F3DA73",
"H. c #FBE663",
"J. c #F5EE66",
"K. c #F5EB68",
"L. c #F3E464",
"P. c #F4F261",
"I. c #F7F16E",
"U. c #F8F46A",
"Y. c #F2EB71",
"T. c #FCE778",
"R. c #F5EF7C",
"E. c #FAE97C",
"W. c #FAF271",
"Q. c #F3F17C",
"!. c #EEDD95",
"~. c #F3E287",
"^. c #FCED8C",
"/. c #EDEC9B",
"(. c #F0EF96",
"). c #F4F292",
"_. c #ECE8A3",
"`. c #F3F0A9",
"'. c #FBF9B0",
"]. c #E7E4D1",
/* pixels */
"                                                                                                                                            ",
"                                                                                                                                            ",
"                                                                                                                                            ",
"                                                                                                                                            ",
"                                                                                                                                            ",
"                                                                                                                                            ",
"                                                        ^.x.7.O.} } } | | +.6.c.Y.`.                                                        ",
"                                                  T.<.! W W W W W E W W ] ] {  .{ X.&.V.'.                                                  ",
"                                              l._ R R R L L H c c c c c H H K R W {  . .X.u.).                                              ",
"                                          z.P L L L c x j j j j j x x x x x c z z H T ] {  . .u.                                            ",
"                                        _ L L L x h h j h j j j j j j x j x c x l c z c K ]  . ...Z.                                        ",
"                                    H.Q R J x h h h h h h j j h j j x j x x x x c x c c z H K {  ...0.                                      ",
"                                  j.W R L j h h h h h h j h j j j j j x x j x x x x c c c c c H E  ...9./.                                  ",
"                                w.W W H j j h h h p p p h h h j h j j j j x j x x x x c c x c c c T {  .%.(.                                ",
"                              w.W W H x j h j h h h h p h h h h j j d H j x j x x x x c c l c c z H K { ..$.                                ",
"                            V.] ] H x j j j h j h h h h h h h h h u F  .H j j x x x x x x c c c z c c K { ..$.                              ",
"                          W.{ ] K x x x j j j j h h j h h h h h d a .... .c j j j x x x c x c c c z H c K  ...0.                            ",
"                          +.{ E c x x x j j j j j h h h h p p d 0  ....... .x j j j x x x x x x c c c z c T  ...P.                          ",
"                        q. .] H c x x x x j j j j j j h h h h 9 ' ..........{ x j j x j x x x c c z c z c H E ..o.                          ",
"                      Q... .K c c c c l x x x j j j h h h h t G ..............] j x j x j x x x x c c c c z H {  .u.                        ",
"                      %...] H z c c c l x x x x j j j j j t k ..................T j j j x x x x x x c c c c c T  ...                        ",
"                    ^. . .K H H c c c c x x x x x j j j d w  .....................K j j j x j x x x x c c z c c ]  .r.                      ",
"                    8.{ ] H H H H c c c c x x x j x j g 8 [ .............. . ... . .H j j j j x x x x x l c c c K  .X.                      ",
"                    ] { K z H H H H c c c c x x x x c H E  . . . . . . . . . . . . . .W H x x j x x x x c x c c H ]  .C.                    ",
"                  H.] W c c c H H H c c c c c c H R ] { { { { { { { { { {  .{ { { { { { { ] R H x x x x x c c x c T  .+.                    ",
"                  <.] L x c c c H H H H H H K E ] ] ] ] { ] ] ] ] ] ] ] ] ] ] ] ] ] ] ] ] ] ] ] W R H x x x x c c H {  ._.                  ",
"                  ! W c x x x c z H H K R W ] W ] W ] W W W W W W W W W W W W ] W W W W W W W W W W W W R H l g g g '  .W.                  ",
"                !.R R j x x x x 8 z R E W R E R R R W W R E W R W W W R W R R W W R W E W R W W R W E R R 0 u d d d T | b.                  ",
"                G.L L j j j x x # @ K R R L R R R R R R L R R R R R R R R R L R L R L T R R L R R L R R f 6 d d d g H { 6.                  ",
"                x.L J h j j x x f o ; L L L L L L L L L L L L L L L J L L L L L L L L L L L L L L L L c 6 i d d d d l { |                   ",
"                h.L c h h j j j x q X w L L L L L L L J L L L L J L L L L L L L L L L L L L L L L L L 9 t d d i d d l ] {                   ",
"                2.L c p h j h j j x ; o l L L L L L L L L L L L L L L J L L L L L L L L L L L L L L f 7 i i i d i d g ] ]                   ",
"                >.L c p h h h j j x x - @ H K L L J L L L L L L L L L L L L J L L L J L L L L L L H 2 i i u i i d i g W ]                   ",
"                >.J c p p h h h j j j d O ; L L L L L L L J L L L J L J L L L L L L L L L L L L L 7 y i i i i d i d g W ]                   ",
"                h.J c h h p p h h j j j q . s L L L J L L L L L L L L L L L L L L L L L L L L L d 7 y y i i i i i i g W ]                   ",
"                x.J c p p h h p h h j j g 2 o c L L L L L L L L L L L L L L J L L L L L L J L c 6 y y u y y i i i d l W O.                  ",
"                G.L J p p h p p h h h j j h o ; L L L L L R L L L L R L L L L R L R L L L L L l t y y y y y i i i i l W 7.                  ",
"                !.L J h p p p h h i p i i i e o K R R W R R W R W W R R R W R R R W W R W W W x r y y y y i i i i i c W v.                  ",
"                  P L j p p p y y y y y i i u o K W ] W W ] W ] W ] W ] ] W ] ] ] W ] W ] ] ] c y y y y y y y y i i J W E.                  ",
"                  2.L x y y y y y y y y y i u X U { { { { { { { { { { { { { { { { { { { { { { H y i y y y y y i i d R R                     ",
"                  D.L c y y y y y y y y y y y o Y  . ... . ... . . . ... . ... . ... .........H i y y y y y y y i g R `                     ",
"                    P J h y y y y y y y y y y o Y ..o.o.o.o.o.o...$...o.o.o.o.o.o.$.$...o.$.o.H i i i y y y y y y c R H.                    ",
"                    >.L x y y y y y y y y y y o ~ *.9.*.*.*.*.*.9.9.9.9.9.9.9.9.9.9.9.9.0.9.9.I i y y i y y y y d J Q                       ",
"                      L J i y y y y r y y y y O D t.t.t.t.t.t.t.t.t.t.t.t.t.t.t.t.t.t.t.t.t.t.I i i i i i y y y x P 2.                      ",
"                      / L j y y y y y y y y y % Z M.M.M.M.M.M.m.M.M.m.v.5.m.M.M.M.M.M.M.M.M.M.-.i i i i i i y d J P                         ",
"                        P J p y y y y y y y r % A A.C.A.A.A.A.N.s.N 5 : # $ n S l.Z.A.A.A.A.A.-.d i i i i i i c L 5.                        ",
"                        4.J x p y y y y y y y % C U.U.J.k.S M , 6 t i f f s 8 < = $ m a.F.K.W.-.d i d i i i x R Q                           ",
"                          ^ J j y y y y y y y % B S.i.b > 7 y d d d d g f f l l l s 8 : # $ V v d d d i i g L R                             ",
"                            P J j y y y y y y 1 % > e y y y y i i i d d s g g l l f g l g d 9 t d d d d f L E 3.                            ",
"                              L J h y y y y y y y r y y y y y y i i i d d g d g l l l g f g f d d d d f K W `                               ",
"                              h.L H h y y y y y y y y y y y y y u i i d d d d f f l l l g g g g g g g T ] @.                                ",
"                                h.L L j y y y y y y y y y y y y y i i i i d d g g g g l l g g f g l E ] @.                                  ",
"                                    P L x p y y y y y y y y y y y y i i i i d d d g g g l g g l H ] { 8.                                    ",
"                                      P P H h p y y y y y y y y y y y y i i i d s g g g g l H '  . .e.                                      ",
"                                        / J L c p p y y y y y y y y y y i i i d d s d g c E  ...X.                                          ",
"                                            ^ L J c j p y y y y y y y y y i i i d g H T {  .X.n.                                            ",
"                                                / L P J c c j h d i i p d d x c K E ] ] +.b.                                                ",
"                                                    5.^ P L L L L P H L L L L R W ) :.L.                                                    ",
"                                                          F.g.=.^ ^ ^ ^ ^ / 2.z.~.                                                          ",
"                                                                      ].                                                                    ",
"                                                                                                                                            ",
"                                                                                                                                            ",
"                                                                                                                                            ",
"                                                                                                                                            ",
"                                                                                                                                            ",
"                                                                                                                                            ",
"                                                                                                                                            ",
"                                                                                                                                            ",
"                                                                                                                                            ",
"                                                                                                                                            "
};
