/* XPM */
static char *_693aa35098b489bb234385f97b863f7dCeGOVJDdYooFjrB[] = {
/* columns rows colors chars-per-pixel */
"70 70 139 2 ",
"   c None",
".  c #BD5F07",
"X  c #CC7705",
"o  c #CF7E01",
"O  c #D27A03",
"+  c #C06D1E",
"@  c #CB7F17",
"#  c #D38201",
"$  c #D68A02",
"%  c #DA8C02",
"&  c #D4830E",
"*  c #D7880A",
"=  c #D8890F",
"-  c #DA9302",
";  c #D68511",
":  c #D78915",
">  c #E59502",
",  c #EC9601",
"<  c #E49C01",
"1  c #EC9B02",
"2  c #F09F01",
"3  c #D6AB02",
"4  c #DBAE02",
"5  c #D6AC0C",
"6  c #DFB301",
"7  c #D7AF13",
"8  c #ECA302",
"9  c #E0AF02",
"0  c #ECAC02",
"q  c #F3A501",
"w  c #F4AB01",
"e  c #E3B302",
"r  c #EBB402",
"t  c #E6B901",
"y  c #EDBA02",
"u  c #F3B401",
"i  c #F2BB02",
"p  c #F8BF01",
"a  c #F4BC0C",
"s  c #EABA15",
"d  c #CC8928",
"f  c #D9B425",
"g  c #D7A536",
"h  c #DDB935",
"j  c #E2A624",
"k  c #EEC001",
"l  c #EEC804",
"z  c #F4C202",
"x  c #F9C501",
"c  c #F6CB02",
"v  c #FECC01",
"b  c #F6C508",
"n  c #F5CF0A",
"m  c #FDCC0A",
"M  c #F4D203",
"N  c #FBD301",
"B  c #F3DE04",
"V  c #FBDA02",
"C  c #F9DA0D",
"Z  c #F4C512",
"A  c #F6C816",
"S  c #FDCD14",
"D  c #F3C71B",
"F  c #FCCE1A",
"G  c #FADF17",
"H  c #FCE301",
"J  c #FCEB03",
"K  c #FCF303",
"L  c #FDFB05",
"P  c #FCF40B",
"I  c #FAE211",
"U  c #FBEC13",
"Y  c #FBED1A",
"T  c #FBF412",
"R  c #FCFC13",
"E  c #FCF618",
"W  c #F4C723",
"Q  c #F6CD26",
"!  c #F2C62F",
"~  c #F8D222",
"^  c #FBD32F",
"/  c #F1C534",
"(  c #EDD83D",
")  c #FDD635",
"_  c #FAD935",
"`  c #FAEC22",
"'  c #F9F125",
"]  c #FCFC26",
"[  c #FCFC29",
"{  c #F8EF38",
"}  c #F9F433",
"|  c #FBFB36",
" . c #FCFC3A",
".. c #DBBC44",
"X. c #DEB84E",
"o. c #E9CC4C",
"O. c #EEDB4E",
"+. c #F6D240",
"@. c #F9D443",
"#. c #F5D54C",
"$. c #FAD64C",
"%. c #FBD94C",
"&. c #FADB55",
"*. c #F5DF5D",
"=. c #F4E845",
"-. c #F8EF47",
";. c #FDE64B",
":. c #FCEC4A",
">. c #FAF74A",
",. c #FBF94B",
"<. c #F4EA5D",
"1. c #F8EF5A",
"2. c #F6F25C",
"3. c #F9F35C",
"4. c #FBF95C",
"5. c #FADD65",
"6. c #F1E561",
"7. c #F6EC61",
"8. c #FCF26F",
"9. c #FBE073",
"0. c #FCE47F",
"q. c #F6E879",
"w. c #FBEF7A",
"e. c #FCF474",
"r. c #FBF47D",
"t. c #FAF87D",
"y. c #EEDC94",
"u. c #EFE58A",
"i. c #F0E381",
"p. c #F0EC87",
"a. c #FAE48A",
"s. c #F7F283",
"d. c #FBF886",
"f. c #F5F48C",
"g. c #EEEB98",
"h. c #F8E396",
"j. c #FCFBAC",
"k. c #EAEABB",
"l. c #F7F7C9",
/* pixels */
"                                                                                                                                            ",
"                                                                                                                                            ",
"                                                                                                                                            ",
"                                                                                                                                            ",
"                                                          <.:.;.%.#.#.&.&.9.                                                                ",
"                                                        U J H H V v v v v v S 5.                                                            ",
"                                                      P J V V V V V v v v v v v @.                                                          ",
"                                                    T J v i i i x N N v v v v v m $.                                                        ",
"                                                  ,.J c i u u w w x v v v v v v v v a.                                                      ",
"                                                  P V y u u u w w w x N v v v v v v S                                                       ",
"                                                ,.H i i u u u w w w w v N v v v v v v &.                                                    ",
"                                                E M i u u u w w q q q x V v v v v v v S                                                     ",
"                                              t.J z i u u u w w q q w u V N v v v v v v *.                                                  ",
"                                              } M i y u u u w w w q w w N N v v v v v v F                                                   ",
"                                            k.P z i i u u i r w q q w w v H v v v v v v m                                                   ",
"                                            f.J z i i u u c b 8 q q w w i J v v v v v v v @.                                                ",
"                                            4.V i i u u w H B 8 q q w u u H V v v v v v v F                                                 ",
"                                            } c i i u u u K J 8 q w w u u V H v v v v v v v                                                 ",
"                                          l.U z u u u u z L K r w w w u i c J v v v v v v v 5.                                              ",
"                                          j.H y i u u w V L L l q w u i i z J v v v v v v v )                                               ",
"                                          d.V y u u u u J L L H q w u u i z K v v v v v v v F                                               ",
"                                          2.M i y u u i K L L K 8 u u p i z H V v v v v v v S                                               ",
"                                          { b i u u r c L L L L r u u p i z V V v v v v v v v                                               ",
"                                          Y z u u u u J L L L L M w u i z z V V x v v v v v v                                               ",
"                                          U i u u u V K K K K K K c u i z z v V z v v v v v v $.                                            ",
"                                          I y u u V J J J J J J J J c z x z z V z v v v v v v )                                             ",
"                                          G u u N J H H H H H H H H H c z z z V z x v v v v v S                                             ",
"                                        g.n 8 c V V H V H V H H H H H V z i u V z z z v v v v m                                             ",
"                                        p.b 8 e V V V V V V V V V V V V k 0 u N z z z x v v v m                                             ",
"                                        s.b 8 < v N N N N N N N N N N V - < u v z z z v v v v v                                             ",
"                                        r.i 8 - c v v v v v v v v v v v O u w z z z z x x v v m                                             ",
"                                        e.y 8 > i v v v v v v v v v v z O u w x y i z x x v v m                                             ",
"                                        7.u 8 > r v v v v v v v v v v 0 % u w x i y z z z v v m                                             ",
"                                        <.a 1 < 8 v v v v v v v v v N - 1 w q p y y i z z v v m                                             ",
"                                        7.r 1 8 < v v v v v v v v v v # w q q x y y y i z x v v                                             ",
"                                        e.w 1 1 > z v v v v v v v v x # u q q x y y y b z z z m                                             ",
"                                        w.u 1 1 > u v v v v v v v v r % w q q x r r y y z z x x                                             ",
"                                        q.u 1 > , 0 v v v v v v v v - 1 w q q x r t y y z z b x                                             ",
"                                        i.r 1 , , u N N v N N v v N % 2 q q q x e e r y y z z b                                             ",
"                                        u.a 1 , , u V V V V V V V V $ 2 2 q q x e e t y y i z b                                             ",
"                                          a 1 , , i H H H H H H H V - 1 , 2 w x 4 9 r r y y b Z                                             ",
"                                          a , > , i K J J J J J J J - , , , q x 4 9 e t y y i W                                             ",
"                                          D , > > z L P K L K L K J $ , , , 8 z 4 9 e e y y i                                               ",
"                                          D , , 1 z L L L L L L L K $ , , , q y 3 4 9 e e y y                                               ",
"                                          Q 1 , , b R R R R R L R T $ 1 , , w y 3 4 9 e e r y                                               ",
"                                          +.1 , 1 A [ [ [ ] ] ] ] ' * , , , u t 3 4 4 9 e r y                                               ",
"                                          5.8 , 1 D  .| | | | | } } & , , , i e 3 3 3 9 e t s                                               ",
"                                          h.u > 1 W ,.,.,.( =.>.>.-.= , , , i 4 3 3 4 4 6 e                                                 ",
"                                            a , 1 ! 7.4.g . @ O.4.1.: , 1 1 z 3 3 3 3 4 9 e                                                 ",
"                                            F 1 1 / 6.d X 0 8 @ o.7.; , , q y 3 3 3 3 4 4 9                                                 ",
"                                            _ 0 1 j + - u 0 8 1 ; X.= , , u t 3 3 3 3 3 4                                                   ",
"                                            *.u 8 % < r r 0 q 1 , O O , , p 6 3 3 3 3 3 4                                                   ",
"                                              c 8 8 0 0 r 8 8 1 , , , , 1 c 4 3 3 3 3 3 3                                                   ",
"                                              G 0 0 0 r 0 q q , , , , , w z 3 3 3 3 3 3 5                                                   ",
"                                              :.k 8 0 r 0 8 1 , , , , , p t 3 3 3 3 3 3                                                     ",
"                                                C r e 0 0 q 1 , , , , 2 x 4 3 3 3 3 3 3                                                     ",
"                                                Y k 0 0 8 1 1 , , , , u z 3 3 3 3 3 3 f                                                     ",
"                                                7.H r 0 8 2 , , , , q x e 3 3 3 3 3 3                                                       ",
"                                                  E M 8 8 , , , , 2 p z 3 3 3 3 3 3 h                                                       ",
"                                                  7.K y 1 , , , 2 u v e 3 3 3 3 3 7                                                         ",
"                                                    ` V i 8 2 q i v k 3 3 3 3 3 5                                                           ",
"                                                      I M x x x v z 4 3 3 3 3 5                                                             ",
"                                                        ~ x x v z 4 3 5 3 7 ..                                                              ",
"                                                          y.a.h.                                                                            ",
"                                                                                                                                            ",
"                                                                                                                                            ",
"                                                                                                                                            ",
"                                                                                                                                            ",
"                                                                                                                                            ",
"                                                                                                                                            "
};
