/* XPM */
static char *_a7e965c840b49138bd12b73983b1f0dJ3eGzZFdWJHgcSjr[] = {
/* columns rows colors chars-per-pixel */
"70 70 163 2 ",
"   c None",
".  c #D4A903",
"X  c #D5A903",
"o  c #D5AA03",
"O  c #D6AB02",
"+  c #D6AA03",
"@  c #D6AB03",
"#  c #D5AA04",
"$  c #D6AB04",
"%  c #D9AB02",
"&  c #D9AC02",
"*  c #D9AD02",
"=  c #DAAC02",
"-  c #DBAD02",
";  c #DCAE02",
":  c #DDAE02",
">  c #DFAF02",
",  c #D9AB04",
"<  c #DCAC04",
"1  c #DEAE04",
"2  c #D6AC0F",
"3  c #D6AD0F",
"4  c #D6AC10",
"5  c #D7AE18",
"6  c #E0AF02",
"7  c #E2B101",
"8  c #E1B102",
"9  c #E1B003",
"0  c #E2B202",
"q  c #E4B301",
"w  c #E4B302",
"e  c #E6B501",
"r  c #E4B402",
"t  c #E7B402",
"y  c #E7B502",
"u  c #E6B602",
"i  c #E7B602",
"p  c #E9B602",
"a  c #E9B702",
"s  c #EAB702",
"d  c #E9B802",
"f  c #EAB802",
"g  c #ECB902",
"h  c #EDB902",
"j  c #ECBA02",
"k  c #EFBB02",
"l  c #EFBC02",
"z  c #EEBC03",
"x  c #F0BB02",
"c  c #F1BE02",
"v  c #F2BE02",
"b  c #F2BF02",
"n  c #F2BF03",
"m  c #F3C102",
"M  c #F4C102",
"N  c #F5C202",
"B  c #F5C302",
"V  c #F5C303",
"C  c #F7C402",
"Z  c #F7C502",
"A  c #F7C503",
"S  c #F9C701",
"D  c #FAC701",
"F  c #FAC702",
"G  c #FBC901",
"H  c #FCC901",
"J  c #FCCA01",
"K  c #FDCA01",
"L  c #FDCB01",
"P  c #FCC902",
"I  c #FCCA02",
"U  c #FDCA02",
"Y  c #FCCB02",
"T  c #FDCB02",
"R  c #FDCB03",
"E  c #FECA03",
"W  c #FECC01",
"Q  c #FDCC02",
"!  c #FDCC03",
"~  c #FDCB04",
"^  c #FCCC0C",
"/  c #FBCD1C",
"(  c #F9CD1F",
")  c #FBCD1E",
"_  c #FACD1F",
"`  c #FACE1E",
"'  c #FACE1F",
"]  c #FBCE1F",
"[  c #FBCF1F",
"{  c #FCCE1E",
"}  c #FCCE1F",
"|  c #FCCF1F",
" . c #EEC22D",
".. c #ECC22E",
"X. c #EFC42D",
"o. c #F3C826",
"O. c #F5CA26",
"+. c #FACE20",
"@. c #FBCE21",
"#. c #FACF21",
"$. c #FBCF21",
"%. c #FACF22",
"&. c #F9CE25",
"*. c #F9CF26",
"=. c #F2C62B",
"-. c #F2C72B",
";. c #F3CB2F",
":. c #F6CF2E",
">. c #F9CF2A",
",. c #FBD023",
"<. c #FCD121",
"1. c #FDD121",
"2. c #FCD022",
"3. c #FCD023",
"4. c #FBD025",
"5. c #FAD026",
"6. c #FCD124",
"7. c #FDD425",
"8. c #FCD527",
"9. c #FBD12B",
"0. c #FAD02D",
"q. c #FBD12D",
"w. c #F9D12E",
"e. c #F9D22F",
"r. c #FBD42C",
"t. c #FCD62C",
"y. c #EBC635",
"u. c #EBC439",
"i. c #E8C43B",
"p. c #E9C33C",
"a. c #F2CA30",
"s. c #F3CA38",
"d. c #F0C83D",
"f. c #F3CB3D",
"g. c #FBD534",
"h. c #FBD435",
"j. c #F7D33C",
"k. c #F8D238",
"l. c #F9D53A",
"z. c #FBD43C",
"x. c #FBD53D",
"c. c #E4C243",
"v. c #E3C24A",
"b. c #E3C44D",
"n. c #F8D441",
"m. c #F8D446",
"M. c #F9D64C",
"N. c #F8D94D",
"B. c #FADB57",
"V. c #FBDB57",
"C. c #FADB5E",
"Z. c #F2D662",
"A. c #F6D863",
"S. c #F9DD64",
"D. c #F4D96E",
"F. c #F3D973",
"G. c #F2DA75",
"H. c #F3DF86",
"J. c #F9E389",
"K. c #FDE895",
"L. c #EDDFA6",
"P. c #FAEBA1",
"I. c #FAE8A3",
/* pixels */
"                                                                                                                                            ",
"                                                                                                                                            ",
"                                                                                                                                            ",
"                                                                                                                                            ",
"                                                              $.~ L L ~ ! ^                                                                 ",
"                                                              ^ ~ L L L L L                                                                 ",
"                                                            L.~ L L L L L L I.                                                              ",
"                                                            P.L L L L L L L H.                                                              ",
"                                                            K.L L L L L L ~ F.                                                              ",
"                                                            J.L L L L L L ~ D.                                                              ",
"                                                            G.~ L L L L L L S.                                                              ",
"                                                            Z.L L L L L L L V.                                                              ",
"                                                            A.~ L L L L L L M.                                                              ",
"                                                            C.L L L L L L P m.                                                              ",
"                                                            V.L L L L L L L n.                                                              ",
"                                                            N.~ L L L L L L k.                                                              ",
"                                                            j.L L L L L L L g.                                                              ",
"                                                            k.L L L L L L L q.                                                              ",
"                                                            x.L L L L L L L >.                                                              ",
"                                                            x.L L L L L L L e.                                                              ",
"                                                            h.L L L L L L L e.                                                              ",
"                                                            e.L L L L L L L >.                                                              ",
"                                                            e.L L L L L L L *.                                                              ",
"                                                            e.L L L L L L L 5.                                                              ",
"                                                            t.L L L L L L ~ $.                                                              ",
"                                                            7.W L L L L L L 6.                                                              ",
"                                                            $.L L L L L L L 6.                                                              ",
"                                                            ( L L L L L L ~ $.                                                              ",
"                                                            ( L L L L L L L $.                                                              ",
"                                                            $.L L L L L L ~ (                                                               ",
"                                                            2.L L L L L L L }                                                               ",
"                                                            2.W L L L L L L }                                                               ",
"                                                            } L L L L L L ~ }                                                               ",
"                                                            ( L L L L L L L (                                                               ",
"                                                            | W L L L L L L /                                                               ",
"                                                            2.L L L L L L L }                                                               ",
"                                                            2.L L L L L L L $.                                                              ",
"                                                            $.L L L L L L L }                                                               ",
"                                                            ( W L L L L L L $.                                                              ",
"                                                            ( L L L L L L L $.                                                              ",
"                                                            ,.L L L L L W L 5.                                                              ",
"                                                            7.G L L L F G G 5.                                                              ",
"                                                            t.F F F F F G F *.                                                              ",
"                                                            :.F C C C B C C O.                                                              ",
"                                                            a.B B B B B B B o.                                                              ",
"                                                            a.V m m m B B c =.                                                              ",
"                                                            s.x c c c c c c =.                                                              ",
"                                                            f.x l l l k x l X.                                                              ",
"                                                            d.x k f k f f k  .                                                              ",
"                                                            u.t d f f p p p  .                                                              ",
"                                                            p.t u u u u u u y.                                                              ",
"                                                              q r r u 0 u q i.                                                              ",
"                                                              0 0 0 0 0 0 0 c.                                                              ",
"                                                              < ; > 6 ; 6 6 v.                                                              ",
"                                                              < ; ; ; ; ; & b.                                                              ",
"                                                              , ; & & & & =                                                                 ",
"                                                              X O O O O O X                                                                 ",
"                                                              O O O O O O O                                                                 ",
"                                                                O O O O @ X                                                                 ",
"                                                                O O O O @                                                                   ",
"                                                                @ @ O O @ O                                                                 ",
"                                                                @ $ X O @ O                                                                 ",
"                                                                3 3 3 3 4 5                                                                 ",
"                                                                                                                                            ",
"                                                                                                                                            ",
"                                                                                                                                            ",
"                                                                                                                                            ",
"                                                                                                                                            ",
"                                                                                                                                            ",
"                                                                                                                                            "
};
