/* XPM */
static char *_7acaf372cbb40f9c6e0c3da46eabd220Zm83yyHRhIyPWDC[] = {
/* columns rows colors chars-per-pixel */
"70 70 185 2 ",
"   c None",
".  c #B24A02",
"X  c #B55001",
"o  c #B95502",
"O  c #BC5C02",
"+  c #B85E12",
"@  c #BE6005",
"#  c #BC6009",
"$  c #BD6513",
"%  c #BF6F27",
"&  c #C15F04",
"*  c #C26203",
"=  c #C86502",
"-  c #CC7603",
";  c #CF7B03",
":  c #CE770F",
">  c #D27503",
",  c #C8771A",
"<  c #D58202",
"1  c #D98502",
"2  c #D68D01",
"3  c #DB8C02",
"4  c #DA9501",
"5  c #DC9902",
"6  c #CC8219",
"7  c #E18701",
"8  c #E38A00",
"9  c #E49201",
"0  c #ED9601",
"q  c #E49B02",
"w  c #EC9B01",
"e  c #F09D01",
"r  c #DCA703",
"t  c #D6AA03",
"y  c #DBAE02",
"u  c #DDB102",
"i  c #D7AE12",
"p  c #D8B11C",
"a  c #E3A402",
"s  c #ECA302",
"d  c #E5AB02",
"f  c #EDAC02",
"g  c #F3A501",
"h  c #F4AB01",
"j  c #E4B302",
"k  c #EDB202",
"l  c #E5B902",
"z  c #EDBA02",
"x  c #F4B401",
"c  c #F3BB01",
"v  c #F9BF01",
"b  c #ECBC1A",
"n  c #CC8F28",
"m  c #CF922B",
"M  c #D2972D",
"N  c #CA8730",
"B  c #DBB423",
"V  c #DAB62D",
"C  c #D8B737",
"Z  c #DEB43A",
"A  c #DFBA3F",
"S  c #E7BC2D",
"D  c #EAC904",
"F  c #F5C302",
"G  c #FAC601",
"H  c #F6CB02",
"J  c #FDCC01",
"K  c #FDCC0B",
"L  c #F4C30C",
"P  c #EBD004",
"I  c #F7D402",
"U  c #FBD402",
"Y  c #F5DD02",
"T  c #FCDB02",
"R  c #FAD70A",
"E  c #F0DB09",
"W  c #FBCE1D",
"Q  c #ECD41A",
"!  c #F8D515",
"~  c #F7D718",
"^  c #FBD11B",
"/  c #FADE1F",
"(  c #FBDA16",
")  c #F2E003",
"_  c #FCE301",
"`  c #F6EB04",
"'  c #FDEC02",
"]  c #FCED08",
"[  c #FCE10A",
"{  c #FDF403",
"}  c #FDFB05",
"|  c #FCF40A",
" . c #FDFC0C",
".. c #FCEF1B",
"X. c #FCF717",
"o. c #FCF913",
"O. c #FBF41B",
"+. c #FBFA1F",
"@. c #EACF28",
"#. c #F4C725",
"$. c #F9CE2A",
"%. c #FCD124",
"&. c #F7D820",
"*. c #F6D62C",
"=. c #FCD32A",
"-. c #E7CB34",
";. c #E5C73E",
":. c #F7D035",
">. c #FBD335",
",. c #F5D53A",
"<. c #FBD53C",
"1. c #FBDE38",
"2. c #FCE82B",
"3. c #FBF425",
"4. c #FCFC21",
"5. c #F6E83E",
"6. c #FCEA3C",
"7. c #F2E23C",
"8. c #F8F532",
"9. c #FCFB32",
"0. c #F7F03C",
"q. c #F9F839",
"w. c #FBF33F",
"e. c #D9AE49",
"r. c #DFBB54",
"t. c #E5C646",
"y. c #EDC640",
"u. c #ECCB44",
"i. c #ECD849",
"p. c #F7D346",
"a. c #FAD544",
"s. c #FAD946",
"d. c #F6D54E",
"f. c #F6DE49",
"g. c #FAD94D",
"h. c #FAD64B",
"j. c #E5C755",
"k. c #EFDE54",
"l. c #F4D455",
"z. c #F5D75C",
"x. c #FCDB56",
"c. c #FAE641",
"v. c #F6EC43",
"b. c #F6E244",
"n. c #FBF944",
"m. c #F9F64D",
"M. c #FCFA4C",
"N. c #F5E453",
"B. c #F4E75B",
"V. c #FCE45F",
"C. c #F8EE59",
"Z. c #F8EC54",
"A. c #FAF555",
"S. c #FAF659",
"D. c #FBF95B",
"F. c #ECD061",
"G. c #F5D762",
"H. c #F0DA79",
"J. c #F3ED6C",
"K. c #F9F562",
"L. c #F3F06D",
"P. c #FCF66A",
"I. c #F6E570",
"U. c #F1EF7E",
"Y. c #FCE47D",
"T. c #F3F27F",
"R. c #FCF578",
"E. c #EFDE8B",
"W. c #ECDC9D",
"Q. c #EEE08B",
"!. c #F4EB89",
"~. c #FBED8F",
"^. c #FDF484",
"/. c #EFE097",
"(. c #EEED94",
"). c #EEE79A",
"_. c #F7E493",
"`. c #F8E597",
"'. c #F6E49D",
"]. c #FBEA9F",
"[. c #FBF697",
"{. c #EBEAA9",
"}. c #F8EEAC",
"|. c #F6F3AA",
" X c #F3F0B3",
/* pixels */
"                                                                                                                                            ",
"                                                                                                                                            ",
"                                                                                                                                            ",
"                                                                                                                                            ",
"                                                                                                                                            ",
"                                                            ).!.R.^.!.Q.Q._.`.'.W.                                                          ",
"                                                    [.A...' ' [ _ [ _ [ T T U K G K W x.}.                                                  ",
"                                                P.3.{ ' ' ' _ _ _ _ _ T _ T T T U J J J K %.Y.                                              ",
"                                            J.O.{ { ' T U H G G v v v F G J U U U U J J J J J %.                                            ",
"                                          8.} { ' T H c c c c x x x x h h h x F J U J J J J J J K z.                                        ",
"                                        +.} ' T G z c c c x x x c h h x h h h h h v G J J J J J J J <.                                      ",
"                                    !.} } ' U F c c c c c x x x h x h h h h h h h g h F U U U J J K J $.                                    ",
"                                  T. .} ` H c c c c c c x x x x x h h h h h h g g g g h F U U T J J J J >.                                  ",
"                                (.o.{ _ G c c c c c c x x x x x x h h h g h g g g g g h h F T _ T J J J J p.                                ",
"                                X.} _ H z c c c c c x x x x x h h h h g h h g g g g h g h h J T _ T J J J J                                 ",
"                              q.} ` H z F c c c c x c x x x h F l g h h g g g g g g h h h h x J _ _ U J J J K                               ",
"                            J.| { I F z c c c c c x x x x x x ' ` 5 g h g g g g g g h h h h x v T _ ' J J J J >.                            ",
"                            o.} T c c z c c c c x x x x x h R } } D w g g g g g h h h h h x x x F ' ' T J J J J                             ",
"                          M.} ' F F z c c c c c x x x h h G } } } } d g g g g h h h h x x x x c c U { { U J J J %.                          ",
"                        |. .{ H z c c c c x x x x x x x x ' } } } } ) 3 g g g g h h h x x x x x c F ' { _ J J J K                           ",
"                        m.| ` F c k c c c c x x x h h h T } } } } } } l w h h h h h x x x x c c c v I } { U J J J %.                        ",
"                        X.{ H c c c c c x x x x x x x F } } } } } } } ` 5 g h h h h h x x x c v c v G { } _ J J J K                         ",
"                      R.} _ c c c c c x x x x x x h x { } } } } } } } } P 9 h h x x v x c x c v F F F T } { J J J J                         ",
"                      3.{ I c z c k c x x x x x x h T } } } } } } } } } { r g h x x x x c v c F F F F H { { U J J J W                       ",
"                    {.| ' F c c z k c x c h x h x H } } } } } } } } } } } ` 5 h x x x x v c v c F F F F _ ' T J J J J                       ",
"                    J.{ Y c x z c x x x x h x H ' { { { { { { { } } { { { { ` I c x c c c v F F F G F F U ' _ J J J J l.                    ",
"                    w.{ I c x c x x x x v U ' ' ' { ' ' ' { { ' ' { ' ' { ' ' { _ I F v v v F F G F c c F _ _ J J J J =.                    ",
"                    O.' c c z k k c G T _ ' _ _ _ _ _ ' _ ' _ _ _ _ _ ' _ _ ' _ ' _ _ U F F F F F F v c c T _ J J J J K                     ",
"                   X{ _ f f f x H T _ T _ _ _ T _ _ _ _ _ _ _ _ T _ _ _ _ _ _ _ _ _ _ _ _ I H G F c c c x J T U J J J K                     ",
"                  [.` I d s s 3 H U T T T T T T T T T T T T T T T T T T T T T T T T T T T T T H a c c x x F T J J J J J H.                  ",
"                  R.' H d s s q 2 U U U U U U U U U U U U U U U U U U U U U U U U U U U U U U d . s x h h v U J G J J J z.                  ",
"                  C.' F w s s s < z J J J J J J J J J J J J J J U J J J U J J J J J U J J U H O - c c h h x J J J G J J g.                  ",
"                  v.' z q s q s w 3 H J J J J J J J J J J J J J J J J J J J J J J J J J J J 2 o f c h h h h J J G J J J a.                  ",
"                  v._ k s s s s s 1 c J J J J J J J J J J J J J J J J J J J J J J J J J J c . 3 c h h h h g G J G G J K <.                  ",
"                  6.T h s s s q w w 3 J J J J J J J J J J J J J J J J J J J J J J J J J G - @ x x h h h g h G J G G G J $.                  ",
"                  6.R b w s s q w w 3 f J J J J J J J J J J J J J J J J J J J J J J J J a X a x h h h g g g J J G G G H $.                  ",
"                  c._ f w s q w w w w 1 G J J J J J J J J J J J J J J J J J J J J J J G O ; x h h g g g g g G J G G G J :.                  ",
"                  b.T k s w w w w w w 8 d U J J J J J J J J J J J J J J J J J J J J J 5 o f x h g h g g g h G J F F G G a.                  ",
"                  N._ k w w q w 0 e w 0 1 G J J J J J J J J J J J J J J J J J J J J G . 3 x h h h g g g g h J J F F F G h.                  ",
"                  I.T c w q w w w 0 0 w 8 v J J U J J U J U J J J J J U J J J J J H 2 o h h h h g g g g g h J G F F F G G.                  ",
"                  ~.T F w w w 0 0 0 0 0 0 G T T U T U U U T T U T U T U U T U U U U O < w e g g g g g g g x J G c F F F                     ",
"                  }.T G w w 0 q 0 0 0 0 0 G T _ _ T _ _ _ T _ T T _ T _ T _ _ T _ T O 0 e e 0 0 e e g g g v J G z F F L                     ",
"                    ( H s 0 0 0 9 0 0 0 w H ' ' ' ' ' ' ' ' _ ' ' _ ' ' _ ' ' ' ' Y O q e 0 e 0 0 0 w e g v J G F F z L                     ",
"                    1.U d 0 9 0 0 9 0 e w U { { { { { } { { { { { { { { { { { { ' ) o w 0 0 0 0 0 0 0 0 w v J c z F F #.                    ",
"                    K.K b 0 0 9 0 0 w w w T } } } } } } } } } } } } } } } } } } } ) o w 0 0 0 0 0 e 0 0 s J J c z c v l.                    ",
"                    /.J x 0 0 0 0 0 w w w R  . .o.o. . . . . . . . . .}  . . .} } E O w 0 0 0 0 0 0 0 e h J F z z z c                       ",
"                      ~ L w 0 9 9 0 w w w ~ 4.4.4.4.4.4.4.4.4.4.+.+.4.+.4.+.+.+.+.Q o 0 0 0 0 0 0 0 0 0 v K z z z F b                       ",
"                      l.G h 0 9 0 w w w s &.9.9.9.9.q.9.9.9.9.9.9.9.9.9.9.9.9.9.9.@.O w 0 0 0 0 0 0 e e G J z z z z u.                      ",
"                        K c w 0 w w w e s >.n.n.n.m.n.n.n.n.v.7.n.n.n.n.n.n.n.n.n.-.& 0 0 0 0 0 0 0 e h J F k k l c                         ",
"                        <.J f w w q q s s ,.S.S.S.S.D.S.u.m + # , M i.D.D.A.A.A.Z.;.& e 0 0 0 0 0 0 e G J z l l z b                         ",
"                          K F s q w s w g ,.P.K.B.t.m $ # ; q f s 1 - 6 Z k.K.K.K.A & e 0 0 0 0 0 0 h U G j j z j                           ",
"                          =.R k s w w s s u.r.N $ * < a k k k f f s s 0 7 : m j.I.e.& e 0 0 0 0 0 g G J l j j j b                           ",
"                            R U d w s w s > * < d x k k k f f f s s s w e e 8 > , % = 0 0 0 0 0 0 v J H y j j j                             ",
"                            f.T H d w d d d f f f f k k x f h s s s w w e 0 0 0 0 8 8 0 0 0 0 e h J G u u d j S                             ",
"                              &._ F s s s f d h k k k x f f g s s s e w 0 0 0 0 0 0 0 0 0 0 0 g G G z y y d u                               ",
"                                R _ c s d f f k x k k f f f s s w w e 0 0 0 0 0 0 0 0 0 0 0 e F J F u y y u                                 ",
"                                  _ _ F d f f k k k f h g s g s w e 0 0 0 0 0 0 0 0 0 0 0 e v J H y y y y                                   ",
"                                  N.' ] H f f j k k f f s s s w w w 0 0 0 e 0 0 0 0 0 0 g G J H y t t t V                                   ",
"                                    Z.{ ] I l f f f f s s s w w 0 0 0 0 0 0 0 0 0 0 w h G J G j t t t B                                     ",
"                                        | } _ H f f g s s s e 0 0 0 0 0 0 0 0 0 w e x J J F u t t t V                                       ",
"                                          o.} ' I z s s w w w w 0 0 0 0 0 0 0 e x G J H F y t t t                                           ",
"                                            5.] ` _ H c f s e 0 0 0 0 w e h x G J H G z t t t p                                             ",
"                                                2.[ T T U G v v x v v v G J J J G z u t t p                                                 ",
"                                                    f.~ J K G G J J J J J J G l y t i C                                                     ",
"                                                            l.d.s.g.l.l.F.                                                                  ",
"                                                                                                                                            ",
"                                                                                                                                            ",
"                                                                                                                                            ",
"                                                                                                                                            ",
"                                                                                                                                            "
};
