/* XPM */
static char *_054b769d88c4847e3bfe08e231b61cdg4f5rxBplkBRBjvF[] = {
/* columns rows colors chars-per-pixel */
"70 70 179 2 ",
"   c None",
".  c #B44D02",
"X  c #B65304",
"o  c #BA5504",
"O  c #B65801",
"+  c #B95C02",
"@  c #BA5C0C",
"#  c #BE6301",
"$  c #BE640F",
"%  c #C36502",
"&  c #C56A02",
"*  c #C76B0E",
"=  c #CA7402",
"-  c #CD7906",
";  c #CF740A",
":  c #D17C02",
">  c #C97613",
",  c #C97811",
"<  c #C37A22",
"1  c #C47A29",
"2  c #D68302",
"3  c #DB8503",
"4  c #D68C01",
"5  c #DC8C01",
"6  c #DC9101",
"7  c #DF9901",
"8  c #E18902",
"9  c #E39301",
"0  c #ED9601",
"q  c #E59F02",
"w  c #ED9B01",
"e  c #F09E00",
"r  c #DEA403",
"t  c #D6AB03",
"y  c #DBAD02",
"u  c #D5AB0A",
"i  c #D8AE0E",
"p  c #DDB002",
"a  c #DAB114",
"s  c #D8B01D",
"d  c #E4A401",
"f  c #ECA302",
"g  c #E3AC02",
"h  c #EDAC02",
"j  c #F3A501",
"k  c #F4AB01",
"l  c #E4B302",
"z  c #EDB302",
"x  c #E6B802",
"c  c #EDBA02",
"v  c #E2B30B",
"b  c #EFBC0B",
"n  c #F4B401",
"m  c #F3BB01",
"M  c #F8BE01",
"N  c #EABB1B",
"B  c #CB8821",
"V  c #CE8729",
"C  c #D39627",
"Z  c #DAB425",
"A  c #DFB62A",
"S  c #D6A133",
"D  c #DDA431",
"F  c #DCB936",
"G  c #E7BB24",
"H  c #E2BE3E",
"J  c #EACB04",
"K  c #F5C302",
"L  c #F9C501",
"P  c #F6CB02",
"I  c #FDCC01",
"U  c #F5C30B",
"Y  c #FDCC0A",
"T  c #F6D402",
"R  c #FCD402",
"E  c #F4DA04",
"W  c #FCDC02",
"Q  c #FBD50A",
"!  c #FCCD12",
"~  c #F5C618",
"^  c #FACD1B",
"/  c #FBD317",
"(  c #FBDD12",
")  c #FCDE18",
"_  c #F2E204",
"`  c #FCE302",
"'  c #F7EC04",
"]  c #FDEF02",
"[  c #FCEC02",
"{  c #FDEB02",
"}  c #FBE20B",
"|  c #F5E90B",
" . c #FDED0D",
".. c #FDF002",
"X. c #FDF304",
"o. c #FCF104",
"O. c #FDF504",
"+. c #FDF704",
"@. c #FDF607",
"#. c #FDF303",
"$. c #FDF905",
"%. c #FDFB05",
"&. c #FCFA05",
"*. c #FDFB06",
"=. c #FDFC05",
"-. c #FDFB04",
";. c #FDF30B",
":. c #FCFA0E",
">. c #FCFC0E",
",. c #FDE712",
"<. c #FCE312",
"1. c #FCEB14",
"2. c #F6E41E",
"3. c #FBEC1C",
"4. c #FBF517",
"5. c #FCFC11",
"6. c #FCF11E",
"7. c #FBF91B",
"8. c #FCFA1C",
"9. c #ECC12C",
"0. c #F0C423",
"q. c #FACF25",
"w. c #F7CE2D",
"e. c #F8CE2B",
"r. c #FCD324",
"t. c #FBDD21",
"y. c #FAD12D",
"u. c #E5C836",
"i. c #E7CB38",
"p. c #F5CC31",
"a. c #F2CD3D",
"s. c #F6DF36",
"d. c #F7E027",
"f. c #FAEC25",
"g. c #F2E42E",
"h. c #FAF324",
"j. c #FCFC25",
"k. c #FCF42B",
"l. c #F9F035",
"z. c #FBFB35",
"x. c #F6F23F",
"c. c #FAF43E",
"v. c #FCFB38",
"b. c #DFB745",
"n. c #DDB755",
"m. c #DFBA54",
"M. c #E7CB44",
"N. c #E9C74D",
"B. c #EAD24B",
"V. c #EFDC4E",
"C. c #F6D345",
"Z. c #FAD544",
"A. c #F7DE42",
"S. c #FDD847",
"D. c #F5DC4A",
"F. c #FBD948",
"G. c #EFDE59",
"H. c #F5D552",
"J. c #F6D456",
"K. c #FCDD5C",
"L. c #F1E040",
"P. c #F6EC46",
"I. c #F8EB46",
"U. c #FAF745",
"Y. c #FAF74A",
"T. c #FAF84A",
"R. c #F2E452",
"E. c #F5EA56",
"W. c #FAF65C",
"Q. c #F1D262",
"!. c #FADB60",
"~. c #F5DB6E",
"^. c #F3E861",
"/. c #FBE16F",
"(. c #F9F465",
"). c #FAF56C",
"_. c #F8E17C",
"`. c #F0ED83",
"'. c #FCF885",
/* pixels */
"                                                                                                                                            ",
"                                                                                                                                            ",
"                                                                                                                                            ",
"                                                                                                                                            ",
"                                                                                                                                            ",
"                                                    _.C.e.^ ^ / ( ( <.,.,.,.3.f.U.).                                                        ",
"                                                Z.Y I I I R R W W ` ` ` ` ` { { { ] ..k.'.                                                  ",
"                                            S.Y I I I I R R W R I P L P K K P R W ` ] o.@.h.`.                                              ",
"                                          / I I I I I I R I M M n n k n n n n m M M P W { @.@.U.                                            ",
"                                      !.Y I I I R I I I M k j k k k k n n n m n m m m m P _ ..%.8.                                          ",
"                                    H.I I I I R R I M k j j k j k k k n n n n n m n m m m K T [ +.:.                                        ",
"                                  K.Y I I I W R R L k j j j k j k k k k k n n n n m m m m m m P ` +.>.                                      ",
"                                ~.I I I I W W W M k k j j j j j k j k k k n n n n n n M m m c m P ` &.5.                                    ",
"                                Y I I I R ` W L k k k j j j j j k k k k k k k n n n n m m m m m m K ' &.8.                                  ",
"                              r.I I I R ` ` I n n k k j j k j j j k k j f E n n n n n m m m M m c K K [ =.c.                                ",
"                            K.Y I I I ` { W m n k k k k j k j e j k j e J @.P k n n n n n m m m m c K P o.%.                                ",
"                            Y I I I W ..{ K n n n n k k k k j j j j f r &.&.+.M k n n n n m m m m m K c T &.8.                              ",
"                          S.I I I I ....R m m n n n k k k k k j j k 9 E &.&.&.` k n n n n n n n m m m K K { &.                              ",
"                          Y I I I ` +.{ K m m n n n n k k k k j j w p &.&.&.=.=.R k n n n n m M m m m c c T +.7.                            ",
"                        H.I I I R +.+.R M M m m n n n n k k k k j 6 o.=.&.&.=.=.+.M k n n n n n n m m m m K ` &.                            ",
"                        ^ I I I W =.o.P M m M m m n n n k k k k 9 J =.=.=.=.=.=.=.` n k n n n n n m n c m m P O.4.                          ",
"                        I I I I { %.W K K K M m m n n n n n k f r =.=.=.=.=.=.=.=.&.T k k n n n n m m m c m K { %.                          ",
"                      Z.I I I R ] o.P K K K m m M m m n n n n 6 _ =.=.=.=.=.=.=.&.&.+.M n n n n n m n n m c m T +.x.                        ",
"                      ! I I I W ] ` K K K K K K M m m n n n z J +.+.+.%.=.+.+.+.&.&.&.[ P n k k n n n m m m m K ] 4.                        ",
"                      Y I I I W { R m K K K K K K M m m M R { ..+.........................` R m n n m n n n m m ` o.                        ",
"                    /.I I I I W ` L m M K K K K K M K T { ] { { { ] { ] { ] ] { { { { { { ] ] ` W K n n c m n m T o.(.                      ",
"                    Z.I I I I W W m m m m K K K P W ` ` ` ` ` ` ` ` ` ` ` ` ` ` ` ` ` ` ` ` ` ` ` ` W P m n c z m [ l.                      ",
"                    q.I I I I R P n n n M c P R W W ` W W W ` W W W ` W W ` W W W ` W W W W W W W W W W P d f f z { 6.                      ",
"                    ! I I I I R L k n n k # K W R W R W R W W R R R R R R R R W R R W R W R W R R R R W r 9 f h h W 1.                      ",
"                    I I I L I R M k n n m % = R I R R R R I I R R R R R R R R I R R I R I R I R R I R K 2 f f f f E  .                      ",
"                    I I I I I I m k k k n d X d I I I I I I I I I I I I I I I I I I I I I I I I I I I 9 9 f f f f P  .                      ",
"                    Y I L L L I k k k k k n - + L I I I I I I I I I I I I I I I I I I I I I I I I P m 5 w q f f d P {                       ",
"                    Y L L L I I n j j k k n h X 4 I I I I I I I I I I I I I I I I I I I I I I I I I 6 0 w w f f w U {                       ",
"                    I I L L L I k j j k k k n 9 . c I I I I I I I I I I I I I R I I I I I I I I I m 5 w w d f f d U `                       ",
"                    P L L K L I k j j j k k n n & = I I I I I I I I I I I I I I I I I I I I I I P 5 0 w w w w f q c }                       ",
"                    L L L K P I n j j j j k k k f X h I I I I I I I I I I I I I I I I I I I R I z 3 w w f w w w w K }                       ",
"                    L L K K P I n j j j j j k k n - & P I I I I I I I I I I I I I I I I I I I P 6 0 0 e 0 0 w w f K }                       ",
"                    U L K m L I n j j j j j k k k f . d I I I R I I R I I I I R I I I R I I I M 9 0 0 e w w w w w K (                       ",
"                    ~ K M K K I M j j j j j j j j f = & R R R R R R R R R R R W W R R R W W W P e 0 0 0 0 9 w q w P )                       ",
"                    w.U K K K I M j j e j w 0 0 0 w 5 % W W ` W ` ` ` W ` ` ` W W ` ` ` ` W ` P 0 0 0 0 0 0 w w f T t.                      ",
"                    J.M K c K I L k e 0 0 0 0 0 0 w 9 # { { { { { ` { { { { { { { { { { ] { { T w 0 0 0 9 0 0 w h R A.                      ",
"                      U K m m P L e 0 e 0 0 e 0 0 0 9 + ' ....+...+...+...+.+...+...+.+.+.+.+.W w w 0 0 0 0 0 9 z R                         ",
"                      U c K c K I k 0 0 0 0 0 0 0 0 9 + ' &.&.&.=.=.=.=.=.=.=.=.=.=.+.=.=.=.=.E w w 0 0 0 0 0 w m R                         ",
"                      0.c c c m I M 0 0 0 0 0 0 0 0 0 o | :.>.>.>.>.>.>.>.>.>.>.>.5.>.>.5.5.5.} w w 0 0 0 9 0 w P r.                        ",
"                      Q.m c x c I I e 0 0 0 0 0 0 0 0 X 2.8.j.j.j.j.j.j.j.j.j.j.j.j.j.j.j.j.j.d.f w w w 9 0 0 f I                           ",
"                        b c c z K I k 0 0 0 0 0 0 0 0 X g.z.z.z.z.z.z.z.z.z.z.z.z.z.z.v.v.v.v.t.f w w w 0 0 0 m I                           ",
"                        9.c x x c I M e 0 0 0 e 0 0 0 X L.T.U.Y.U.U.T.T.P.i.u.P.T.T.T.Y.Y.Y.Y.s.f w w f w 0 f L r.                          ",
"                          x z x z L I j 0 0 0 0 0 0 w X D.W.W.W.W.E.M.C , - & $ B u.R.(.(.W.W.A.f f f w w w m Y                             ",
"                          N x l l x I L 0 0 0 0 0 0 0 o H.(.(.G.S > : 9 f n z h 5 & @ < b.^.).D.f f f w w h P                               ",
"                            x l l l K I k 0 0 0 0 0 0 + m.m.V ; 8 w j f f f h z z z h 5 & @ 1 D f f f f f K Q                               ",
"                            G g p g z P I f 0 0 0 0 0 % * : 0 0 0 w f f f h h h z z n z z f 6 3 f f f f m W                                 ",
"                              v l y p K I M 0 0 0 0 0 0 0 0 0 0 0 0 w w f j f k h z z z z h h h h w w N W Q                                 ",
"                              N.y y y y L I n 0 0 0 0 0 0 0 0 0 0 0 e 0 w j f h h h n z z h h h f f z T _                                   ",
"                                G y y y l I I n 0 0 0 0 0 0 0 0 0 0 e w w f f f h h h z z z z h h z T `                                     ",
"                                  a y t t x I I n e 0 0 0 0 0 0 0 0 0 0 0 w f f f h h z z l z h b R [                                       ",
"                                    u t t t x I I n 0 0 0 0 0 0 0 0 0 0 e w w f f f k h h z z c _ ] 3.                                      ",
"                                      a t t t x I I M j 0 0 0 0 0 0 0 0 0 0 0 f f f j h h z T [ @.h.                                        ",
"                                        Z t t t l L I I n e w w 0 0 0 0 0 e 0 w f f f h K E +.:.                                            ",
"                                            u t t p K P I Y n f e 0 0 0 0 0 e 0 f h c R { ..;.                                              ",
"                                              F t t y x K I I I L M k k k k n m K R W ` } P.                                                ",
"                                                    s u y x K I I I I I I L Y I P Q t.                                                      ",
"                                                                  a.p.y.q.q.w.C.                                                            ",
"                                                                                                                                            ",
"                                                                                                                                            ",
"                                                                                                                                            ",
"                                                                                                                                            ",
"                                                                                                                                            ",
"                                                                                                                                            ",
"                                                                                                                                            ",
"                                                                                                                                            "
};
