/* XPM */
static char *_1c56e74a5c44a70c61110ecdb04151dYNAW5tvimDmLhkgm[] = {
/* columns rows colors chars-per-pixel */
"70 70 167 2 ",
"   c None",
".  c #19120F",
"X  c #161515",
"o  c #191615",
"O  c #1B1816",
"+  c #16161A",
"@  c #1A161A",
"#  c #15191B",
"$  c #1C191C",
"%  c #211A16",
"&  c #21171F",
"*  c #211C1C",
"=  c #26221D",
"-  c #29221E",
";  c #1F1722",
":  c #151E22",
">  c #1E1B21",
",  c #231C24",
"<  c #281E22",
"1  c #261E2A",
"2  c #2A1E2B",
"3  c #172123",
"4  c #1B2225",
"5  c #1C242C",
"6  c #1B2730",
"7  c #192A34",
"8  c #1E313E",
"9  c #252223",
"0  c #2A2422",
"q  c #2D2923",
"w  c #26212B",
"e  c #2A222D",
"r  c #2D2B2B",
"t  c #332B25",
"y  c #30262E",
"u  c #342D29",
"i  c #382E2C",
"p  c #37302E",
"a  c #3C342E",
"s  c #3D392F",
"d  c #2D2532",
"f  c #212A33",
"g  c #2F2B30",
"h  c #2F2538",
"j  c #212D3C",
"k  c #312535",
"l  c #312935",
"z  c #32273A",
"x  c #352B3B",
"c  c #392E3D",
"v  c #23333E",
"b  c #333433",
"n  c #3D3E3D",
"m  c #3D3738",
"M  c #433A34",
"N  c #443E3A",
"B  c #493E39",
"V  c #4B3D37",
"C  c #46403A",
"Z  c #4A453E",
"A  c #2F2B40",
"S  c #372D40",
"D  c #3A2E42",
"F  c #3E2F48",
"G  c #243342",
"H  c #233847",
"J  c #2B3946",
"K  c #273E48",
"L  c #293848",
"P  c #3D3245",
"I  c #3E334A",
"U  c #403246",
"Y  c #43354D",
"T  c #45384D",
"R  c #463652",
"E  c #483753",
"W  c #463953",
"Q  c #4A3A55",
"!  c #473959",
"~  c #4C3B5B",
"^  c #513F5C",
"/  c #4D3C61",
"(  c #513F62",
")  c #32404C",
"_  c #264255",
"`  c #2C4254",
"'  c #284258",
"]  c #2D4D5F",
"[  c #334E5D",
"{  c #3C505F",
"}  c #2C4D64",
"|  c #304D61",
" . c #375067",
".. c #3F5A6B",
"X. c #335C79",
"o. c #35607B",
"O. c #464646",
"+. c #504846",
"@. c #58534A",
"#. c #4B4057",
"$. c #4E415A",
"%. c #52455E",
"&. c #675F58",
"*. c #6E655E",
"=. c #4F4162",
"-. c #544364",
";. c #584666",
":. c #564862",
">. c #5B4867",
",. c #574469",
"<. c #5A476A",
"1. c #5D4A6F",
"2. c #5F4A6F",
"3. c #5D496E",
"4. c #5F4C6E",
"5. c #5C496C",
"6. c #5E4970",
"7. c #5F4971",
"8. c #5E4A70",
"9. c #5F4A71",
"0. c #5E4A71",
"q. c #5F4972",
"w. c #5F4A72",
"e. c #5E4A73",
"r. c #5D4A71",
"t. c #5F4D73",
"y. c #5E4A71",
"u. c #405F71",
"i. c #60476E",
"p. c #604A6D",
"a. c #604A71",
"s. c #604972",
"d. c #614E71",
"f. c #614A74",
"g. c #614B72",
"h. c #645173",
"j. c #6A5377",
"k. c #675079",
"l. c #6E547B",
"z. c #6B557C",
"x. c #436478",
"c. c #878177",
"v. c #888178",
"b. c #928A7E",
"n. c #3A7294",
"m. c #6D5781",
"M. c #705984",
"N. c #5A7F99",
"B. c #597D92",
"V. c #59839F",
"C. c #6398B9",
"Z. c #6999B9",
"A. c #938C83",
"S. c #9E9588",
"D. c #ADA399",
"F. c #B5AA9F",
"G. c #BAAE9D",
"H. c #B1ABA0",
"J. c #B9ACA2",
"K. c #C5B9A9",
"L. c #CDBFB0",
"P. c #D2C5AF",
"I. c #CAC0B0",
"U. c #DCD2BD",
"Y. c #D9CFC0",
"T. c #EADCC6",
"R. c #E5D5C3",
/* pixels */
"                                                                                                                                            ",
"                                                                                                                                            ",
"                                                                                                                                            ",
"                                                                                                                                            ",
"                                                            n.X.} _ _ ' } X.                                                                ",
"                                                        _ 5 + X O $ $ O o o # 7 }                                                           ",
"                                                    H o O e Y ;.h.l.l.j.d.-.Y 9 o : '                                                       ",
"                                                } # $ x 4.l.k.d.g.z.m.M.l.k.p.d.~ e + :                                                     ",
"                                              G o w -.t.3.<.g.3.9.9.s.6.6.6.9.q.9.3.P @ X K                                                 ",
"                                            5 o l 3.3.9.D %.3.g.9.9.q.q.9.6.9.9.6.9.-.! 2 X 8                                               ",
"                                          5 @ S >.s.3.3.e I t.g.t.9.q.q.9.9.3.9.g.g.>.~ Q d o j                                             ",
"                                        7 + z ~ ,.f.6.9.d , -.g.3.q.q.q.9.9.9.9.g.s.( ~ ~ ~ d @ H                                           ",
"                                        X x ~ ~ ,.f.9.9.Q o w %.g.9.9.g.9.9.9.9.3.3.( ~ ~ / ! 2 o                                           ",
"                                      o d ! / ~ ( f.1.9.3.c @ > P :.3.3.9.9.9.9.3.,.~ ^ ~ ~ ~ ! , $                                         ",
"                                    # , E ~ ~ ~ / r.r.9.9.3.E w $ 2 ! g.9.9.9.9.<.~ ~ ~ ~ ~ ~ ~ I ; 5                                       ",
"                                    $ I ~ ~ ~ ~ ~ / 1.9.9.9.p.<.,.-.<.9.9.9.9.3.( ~ ~ ~ ~ ~ ~ ~ ~ c o                                       ",
"                                  X k ~ ~ ~ ~ ~ ~ ~ ( g.g.9.6.f.6.9.9.6.9.9.6.9./ ~ ~ ~ ~ ~ ~ ~ ~ ~ w #                                     ",
"                                5 $ Q ~ ~ ~ ~ ~ ~ ~ ~ ( 9.9.6.9.9.9.9.9.9.9.9.<.~ ~ ~ ~ ~ ~ ~ ~ ~ ~ Y O G                                   ",
"                                + x ~ ~ ~ ~ ~ ~ ~ ~ ~ ~ -.i.3.9.9.9.9.9.9.9.9.-.~ ~ ~ Q ~ ~ ~ ~ ~ ~ ~ d o                                   ",
"                              5 & Q ~ ~ ~ ~ ~ ~ ~ E Y ~ ~ ,.3.g.6.9.9.9.9.6.,./ ~ ~ E Q ~ ~ ~ ~ ~ ~ ~ Y $ G                                 ",
"                              X z ! ~ ~ ~ ~ ~ ~ ~ ~ k T ~ ~ / <.r.9.q.t.1.-.~ ~ ~ I x ~ ~ ~ ~ ~ Q Y R ~ e #                                 ",
"                              @ U F ~ ~ Q ~ ~ ~ ~ ~ P d ( ~ ~ ~ ~ / =./ / ~ ~ ~ R , Q ~ ~ ~ ~ ~ ~ Y Y ~ P @                                 ",
"                            # e T I ~ ~ ~ ~ ~ ~ ~ ~ T & ! ~ ~ ~ ~ ~ ~ ~ ~ ~ ~ ~ d d ~ ~ ~ ~ ~ ~ ~ ~ ! I I , 5                               ",
"                            o S ~ Q ~ ~ ~ ~ ~ ~ ~ ~ Q & D ~ ~ ~ ~ ~ ~ ~ ~ ~ ~ I @ I ~ ~ ~ ~ ~ ~ ~ ~ ! Y I k @                               ",
"                            @ T Q ~ ~ ~ ~ ~ ~ ~ ~ ~ ! 9 r ~ ~ ~ ~ ~ ~ ~ ~ ~ / d $ Q ~ ~ Q ~ ~ ~ ~ ~ Q Q E D @                               ",
"                            & Q ~ ~ ~ ~ ~ ~ ~ ~ ~ ~ ! e * Q ~ ~ ~ ~ ~ ~ ~ ~ Q ; e ~ ~ ~ ~ ~ ~ ~ ~ ~ ~ ~ ~ Y @ |                             ",
"                          f < ~ ~ ~ ~ ~ ~ ~ ~ ~ ~ Q / x X U ~ ~ ~ ~ ~ ~ ~ ~ P X x ~ ~ ~ ~ ~ ~ ~ ~ ~ ~ ~ ~ R $ K                             ",
"                          4 w ~ ~ ~ ~ ~ ~ ~ ~ ~ ~ ~ ~ I X e ~ ~ ~ ! ~ ~ ~ ~ d X I ~ ~ ~ ~ ~ ~ ~ ~ ~ ~ ~ ~ Q $ G                             ",
"                          4 w ~ ~ ~ ~ ~ ~ ~ ~ ~ ~ ~ ~ ! , o I ~ ~ ~ ~ ~ ~ ~ , $ I ~ ~ ~ ~ ~ ~ ~ ~ ~ ~ ~ ~ Q , v                             ",
"                          3 w ~ ~ ~ ~ ~ ~ ~ ~ ~ ~ ~ ~ ~ x o , Q ~ ~ ! ~ ~ ~ ; $ R ~ ~ ~ ~ ~ ~ ~ ~ ~ ~ ~ ~ Q $ j                             ",
"                          5 w ~ ~ ~ ~ ~ ~ ~ ~ ~ ~ ~ ~ ~ E , o w Q ~ ~ ~ ~ R $ $ Q ~ ~ ~ ~ ~ ~ ~ ~ ~ ~ ~ ~ E $ L                             ",
"                          f , Q ~ ~ ~ ~ ~ ~ ~ ~ Q Y E ~ ~ T $ X e R ~ / ~ R > > Q ~ ~ ~ ~ ~ ~ ~ ~ ~ ~ ~ ~ T o `                             ",
"                          K & ! ! Q Q Q ~ ~ ! ~ E Y ! ~ / ~ P o X , I ~ ~ P o , Q ~ ~ ~ ~ ~ ~ ~ ~ ~ R I Y Y X                               ",
"                            o U Q d > S ~ ~ ~ / Q E ~ ~ ~ ~ ~ Y ; $ @ 1 e & o d ~ ~ ~ ~ ~ #.~ ~ T e & w T S @                               ",
"                            o z ~ Q e @ h ! ~ ~ E P E ~ ~ ~ Q ~ R e # X X X , T ~ ~ ~ ~ ~ ~ ~ D $ @ c ~ ~ e $                               ",
"                            5 , ~ ~ ~ 9 # P ~ ~ ~ I R ~ ~ ~ ~ ~ ~ ~ Y S h P Q ~ ~ ~ ~ ~ ~ #.x + $ Y ~ ~ T $ G                               ",
"                             .X c ~ ~ T $ ; R ~ ~ ! Q ~ ~ ~ ~ ~ ~ ^ ~ ^ ~ ~ ~ ~ Q ~ ~ ~ ~ z o & T ~ ^ ~ k X                                 ",
"                              4 @ Y ~ ~ x X c ~ ~ ~ ~ ~ ~ ~ ~ ~ ~ ~ ~ ~ ~ ~ ~ ~ ~ ~ ~ ~ I X , R ~ ~ ~ c o v                                 ",
"                                $ O P ~ Q w w ! ! / ~ ~ ~ ~ ~ ~ ~ ~ ~ ~ ~ ~ ~ ~ ~ ~ ~ Q $ * T ^ ~ ~ c O 5                                   ",
"                                  : @ r Q x o , I ~ ~ ~ ~ ~ ~ ~ ~ ~ ~ ~ ~ ~ ~ ~ ~ ~ Q l ; Y ~ ~ Q d O 6                                     ",
"                                    v o , $ < 0 ; S ~ ~ ~ ~ ~ ~ ~ ~ ~ ~ ~ ~ ~ ~ ~ ~ Q , Y / Q c , + L                                       ",
"                                      x.5 o - m t $ d Y k D ~ ~ ~ ~ ~ ~ ~ ~ ~ ~ ~ ~ R P U k , X 4                                           ",
"                                        C.u.9 0 s i $ $ $ $ k Y R R E E Y Y U P c d w ; o X f                                               ",
"                                            V.8 = p 0 # N b + @ $ ; @ , $ @ @ + X X X w u.                                                  ",
"                                              B.$ O X b O.r * % o $ w w e k d d $ o X 5 N.                                                  ",
"                                            Z.G X o r n r o M M < & z D E U x h P e o o >                                                   ",
"                                            ` O $ $ b b o 0 V C N 0 X o $ $ x E ~ Y @ o $ 6                                                 ",
"                                            @ k $.$ $ > * i t M B , O k o * l Y ^ T , , P X [                                               ",
"                                          w $ #.4.c X o * u q u p o d -.$ o 9 e , @ + x <.0 #                                               ",
"                                        [ + P Y d * $ x @ * 0 u = X Q Y @ + o o o O + y z #.@ v                                             ",
"                                        5 X , E T o e $.Y & O q O * $.w o @ r $ o * o d %.e o +                                             ",
"                                      v o Z * @ $ X P >.<.~ d o X x T $ X o o @ , + o $ + o N = :                                           ",
"                                      X *.F.S.@.= X Q Y ( 3.5.w o T x o # X e #.%., X o s v.F.A.%                                           ",
"                                      . F.U.K.J.+.@ -.T D 9.p.P X 9 $ o > P $.T , o o O A.G.P.Y.u J                                         ",
"                                      X b.T.R.I.s > -.%., >.3.3.S @ @ 1 W I w o o t M - q L.T.I.-                                           ",
"                                      5 0 c.K.F.q d -.r.k l 9.s.<.c , $ 9 $ X X - M B M % &.D.C X                                           ",
"                                        f $ * * o k -.9.-., $.3.3.-.#.1 + @ 9 X 0 u s V i o O $                                             ",
"                                            { ) o D 3.g.3.Y w <.9.3.r.:.d $ o X 0 u q i M O                                                 ",
"                                                X c t.3.g.3.T D 9.t.r.r.-., w w % - q r u o                                                 ",
"                                                4 $ P <.3.g.3.,.9.3.9.,.x Y 1.<.D O o $ O                                                   ",
"                                                  w # w T >.9.9.9.t.9.<.<.9.3.^ x # @                                                       ",
"                                                      o X , x Y Q =.$.~ T c 1 @ @ o                                                         ",
"                                                        X X X X X X X + X X X X o                                                           ",
"                                                                                                                                            ",
"                                                                                                                                            ",
"                                                                                                                                            ",
"                                                                                                                                            ",
"                                                                                                                                            ",
"                                                                                                                                            ",
"                                                                                                                                            "
};
