/* XPM */
static char *_3b17e14f2af4e5ecdfdd9206691fa0ey85itkSIzB8OunVD[] = {
/* columns rows colors chars-per-pixel */
"70 70 208 2 ",
"   c None",
".  c #18120F",
"X  c #15120D",
"o  c #161515",
"O  c #191515",
"+  c #161816",
"@  c #1B1915",
"#  c #151519",
"$  c #1A161A",
"%  c #15191B",
"&  c #1C1A1B",
"*  c #20161B",
"=  c #211D1C",
"-  c #201B14",
";  c #25221E",
":  c #2B241F",
">  c #161D23",
",  c #1C1D22",
"<  c #1C1B24",
"1  c #231D24",
"2  c #251E29",
"3  c #281F28",
"4  c #1C2227",
"5  c #1B232A",
"6  c #1A262B",
"7  c #1B2431",
"8  c #1C2A34",
"9  c #1E2C3A",
"0  c #1D303A",
"q  c #252322",
"w  c #2B2523",
"e  c #2D2A24",
"r  c #26222A",
"t  c #2A222C",
"y  c #2E2B2B",
"u  c #322E2B",
"i  c #312727",
"p  c #33312E",
"a  c #38332E",
"s  c #2D2533",
"d  c #2E2833",
"f  c #222E39",
"g  c #262330",
"h  c #322634",
"j  c #322935",
"k  c #32273A",
"l  c #352B3B",
"z  c #392D3E",
"x  c #382D37",
"c  c #25333B",
"v  c #353432",
"b  c #3A3632",
"n  c #3E3833",
"m  c #3D3B3B",
"M  c #38323E",
"N  c #423D36",
"B  c #423E3C",
"V  c #41392F",
"C  c #45423C",
"Z  c #4B443C",
"A  c #454137",
"S  c #1E3343",
"D  c #3A2E42",
"F  c #372F41",
"G  c #233642",
"H  c #293643",
"J  c #263C4D",
"K  c #2A3C4C",
"L  c #263944",
"P  c #3D3245",
"I  c #3E324A",
"U  c #333744",
"Y  c #2C3E53",
"T  c #413346",
"R  c #42344B",
"E  c #44394D",
"W  c #493A4F",
"Q  c #453651",
"!  c #463952",
"~  c #4A3A55",
"^  c #4C3B5B",
"/  c #4A3754",
"(  c #513C5F",
")  c #51375E",
"_  c #533B60",
"`  c #244155",
"'  c #2B4558",
"]  c #394D5C",
"[  c #334654",
"{  c #26424E",
"}  c #2C4E65",
"|  c #2F4F68",
" . c #36566C",
".. c #385364",
"X. c #2E5871",
"o. c #315B74",
"O. c #3E5E75",
"+. c #30516B",
"@. c #39617B",
"#. c #444341",
"$. c #4B4642",
"%. c #4F4943",
"&. c #4D4B4A",
"*. c #534E4C",
"=. c #524B44",
"-. c #52514E",
";. c #5B554C",
":. c #4F405C",
">. c #4C4055",
",. c #51435D",
"<. c #534C57",
"1. c #535150",
"2. c #5E5A53",
"3. c #5C5751",
"4. c #635B54",
"5. c #655B54",
"6. c #6B635A",
"7. c #696358",
"8. c #70685D",
"9. c #554463",
"0. c #594667",
"q. c #5B4967",
"w. c #59466A",
"e. c #5D4A6D",
"r. c #564566",
"t. c #5F4A72",
"y. c #5E4A71",
"u. c #5E4A72",
"i. c #624C6E",
"p. c #604A72",
"a. c #614B72",
"s. c #665174",
"d. c #67507B",
"f. c #6D547E",
"g. c #705B7C",
"h. c #426478",
"j. c #6D6A61",
"k. c #766E67",
"l. c #7B746B",
"z. c #797166",
"x. c #7D7770",
"c. c #82796D",
"v. c #81776C",
"b. c #847C73",
"n. c #887C72",
"m. c #8A837B",
"M. c #8E897E",
"N. c #898177",
"B. c #92897C",
"V. c #988A7C",
"C. c #396582",
"Z. c #6F5680",
"A. c #755A86",
"S. c #735A84",
"D. c #775B88",
"F. c #755A88",
"G. c #725A88",
"H. c #785A88",
"J. c #785A87",
"K. c #416A83",
"L. c #406582",
"P. c #45748F",
"I. c #477998",
"U. c #517D9B",
"Y. c #559BC0",
"T. c #958D83",
"R. c #988F82",
"E. c #9B9284",
"W. c #9C948A",
"Q. c #979085",
"!. c #8D8A82",
"~. c #A49B8E",
"^. c #AB9F8F",
"/. c #A59B91",
"(. c #AB9F93",
"). c #A7A08F",
"_. c #AAA194",
"`. c #AFA59B",
"'. c #B1A79C",
"]. c #B4AA9D",
"[. c #BAAE9F",
"{. c #B0A697",
"}. c #BCB09F",
"|. c #BAAEA2",
" X c #B6ADA3",
".X c #BEB3A3",
"XX c #BCB2A8",
"oX c #C2B5A5",
"OX c #C5BAAA",
"+X c #CABDAC",
"@X c #C5B8A7",
"#X c #CABDB2",
"$X c #CDC1AD",
"%X c #CDC3B3",
"&X c #D4C7B5",
"*X c #D4C9B6",
"=X c #D5CDBB",
"-X c #DBCDBC",
";X c #D3C5BA",
":X c #DED0BE",
">X c #E1D5BF",
",X c #DED2C0",
"<X c #E3D5C3",
"1X c #E6D9C4",
"2X c #E9DAC5",
"3X c #EBDDC9",
"4X c #E9D8C6",
"5X c #EFE2CF",
/* pixels */
"                                                                                                                                            ",
"                                                                                                                                            ",
"                                                                                                                                            ",
"                                                                                                                                            ",
"                                                                                                                                            ",
"                                                            8 > $ O & * O # $ 4 K                                                           ",
"                                                      U & @ y T ,.i.s.s.i.q.~ l 1 + 5                                                       ",
"                                                  ..& & P q.g.A.H.H.J.J.J.J.J.A.s.W 3 + c                                                   ",
"                                                c O d 0.s.d.f.J.H.F.F.F.F.H.A.F.d.t.w.l @ %                                                 ",
"                                              5 & T e.y.y.y.a.A.F.H.A.F.F.F.F.F.s.e.t.( I r # ]                                             ",
"                                            4 & ! y.e.y.a.y.p.A.H.F.F.F.F.F.A.d.t.t.w.^ ) ! r O [                                           ",
"                                          < & R e.9.e.y.e.a.y.f.F.F.A.F.A.Z.t.y.r.~ ^ k ~ ) ~ s @ ]                                         ",
"                                        6 $ I _ y.P P p.i.y.y.y.d.A.A.Z.d.y.t.t.I I e.r s ^ ) ~ r #                                         ",
"                                      H # F ^ ,.y.! & ,.y.t.y.y.e.a.p.p.p.y.t.q.r ! y.~ $ x ^ ^ / 1 &                                       ",
"                                      O k ~ ^ ^ w.w.1 1 q.e.e.t.e.t.a.y.u.y.e.E < ,.y.y.T O P ^ ^ R & 5                                     ",
"                                    $ 1 ! ! ^ ( _ u.R O r q.t.t.y.t.y.t.p.e.e.2 2 e.u.p.e.E 1 T ^ ^ l $ ]                                   ",
"                                  G O I Q D ^ ^ _ y.e.z # 1 :.t.p.y.p.p.a.a.T # T p.y.e.t.y.9.Q ^ ^ ^ r &                                   ",
"                                  o t ^ T s ^ ) ^ u.y.w.P & & P 0.e.p.p.e.,.& 1 0.e.y.p.p.p.y.u.( ^ ^ I & L                                 ",
"                                f $ W ^ j s ~ ^ ( y.y.y.i.9.D t D e.p.p.q.r # ! p.y.p.u.u.p.i.p.r.^ ^ ^ s %                                 ",
"                                # s ^ ~ 1 k ^ ~ 9.t.t.y.y.y.t.y.y.y.p.,.t # P w.y.y.y.t.t.p.e.y.w.( ~ ^ I & H                               ",
"                              L & R ^ R $ R ^ ^ 0.p.p.i.e.y.y.i.e.9.I < & M e.p.y.p.y.y.e.y.y.y.y.) ^ ^ ^ s &                               ",
"                              $ r ^ ^ s 2 ~ ^ ) ( ( ! ~ r.y.e./ s & & t ! w.i.p.y.e.r.,.( ( e.y.y.^ ^ ^ ^ I # ]                             ",
"                              O P ^ I & I ^ ^ Q s < # # 1 k 9.^ Q Q / ~ ^ ( e.e.! h 1 $ & 1 z q.w.^ ^ ^ ^ ~ 2 5                             ",
"                            K * / ^ 2 k ~ ~ ^ ~ R D u $ O # 3 W ( _ ) ^ ) 9.,.h # O # & z Q ~ ,.~ ^ ^ ^ ^ ~ d %                             ",
"                            6 = ^ R k ^ ~ ^ ^ ^ ^ k $ $ p C = O 2 P W ! T j & # u %.w # 1 R ~ ^ ~ ^ ^ ^ ^ ^ z # K.                          ",
"                            > s ^ / ^ ^ ^ ^ ^ Q 2 + y l.^.[.W.*.; # o $ + @ n l.'.}.).;.O & P ^ ^ ~ ^ ^ ^ ^ R + ..                          ",
"                            # k ^ ^ ^ / I ^ Q 3 + + q *.).$X$X@X_.b.6.5.z.W..XOX@X|.l.B @ O # z ^ ^ Q R ^ ^ ! % {                           ",
"                            o z ^ ^ Q ^ E ! 2 + $ @ o o ; ~.2X>X>X+XoX[.oX*X4X4X-X=.# + # & O O F ~ ~ / ^ ^ ~ < H                           ",
"                            o z ) R I ~ ^ 3 O n T.k.%.& + @ W.5X2X2X4X<X4X4X4X-XA o o y 2.N.z.# O R ^ ^ ~ ^ ^ & H                           ",
"                            o D ) Q R ~ l O 1 b.e . @ & + + @ {.2X2X2X2X4X4X:X;.o + + @ @ O 6.*.# 3 Q ^ ^ ^ ^ < H                           ",
"                            + k ^ ^ ^ ! & + 6.N q &.*.&.$.j & & T.*X2X2X<X@X;.O r C &.1.1.m # n.q # D ) ^ ^ ~ $ K                           ",
"                            % s ^ ^ ^ d + y V.= C 1.*.1.1.*.#.+ -.@X4X4X<Xb.q e &.1.-.-.-.-.= 4.8.# r ~ ^ ^ R # ]                           ",
"                            4 r ^ ~ ~ & + *.W.& &.1.*.1.1.*.&.. ].2X2X2X2X1XC p -.-.-.*.1.1.p $.).& & E ^ ^ I # O.                          ",
"                            G @ ^ ^ P & O ;._.= &.*.1.1.1.*.e i :X2X1X2X2X2Xb.@ #.1.*.1.1.1.p Z ].@ o P R ~ k # I.                          ",
"                             .O I ^ s * & N OX; m -.1.*.#.w : {.3X1X1X>X2X2X-X3.@ b *.-.-.-.% l.E.# o k / / 3 5                             ",
"                              % s ^ r x r = OX7., m b w & $.@X2X2X%X4.A E.>X2X:Xv.e , p m p ; $X5.+ 1 k ^ R O {                             ",
"                              c & ! s Q z + z.;X2.y a 4.{.>X2X2X%Xa q y = c.1X2X2X+Xc.A u n /.#X; 1 D z ~ t & P.                            ",
"                                % & T ^ ! 2 & ;.6.N.*X2X3X3X>X2XN q &.1.n & ~.2X2X-X:X1X_.j.5.a # z ~ ! k & Y                               ",
"                                 .+ 3 R ^ I 1 $ o o 7.2X2X>X1X$Xo m m v #.q 7.2X2XoX)..X* # O < j ~ ^ h # f                                 ",
"                                   .O & D ^ ~ Q P r ;  X4X>X>X:Xn = ; u & ; E.2X2X<X&X3.# z W ~ ~ ! s O f                                   ",
"                                      , O r P ^ ^ D # - z.5X2X5X<X@X*X>X$X&X2X2X>X2X5.+ * ^ ) / k & + '                                     ",
"                                        ' # O 3 M T * + n.2X1X].2X2X2X1X2X2X>X[.2X2X5.+ h R s & o 7 K.                                      ",
"                                          U.J # X # # + ~.>X).: 3X1X:XZ $X2X@Xw oX2Xz.# & o # 7 O.                                          ",
"                                              U.r @ # O =.*Xj.; ,X2X.X& ~.4X@X= M._.i # + + h.Y.                                            ",
"                                              } # = @ + O - q w W.].~.& B.{.N.; = O $ & $ + G                                               ",
"                                            I., r D , o & # # $ # @ $ $ @ + O # = 3 x * & k # L.                                            ",
"                                            J $ ~ R 2 o 3 $ + # # & # @ & # & & & * & o s 9.& 7                                             ",
"                                          P.& s R h & & R W $ q N : - & @ @ - $ * r 3 # s D M + @.                                          ",
"                                          | . t :.I + 2 z T $ 3. X_./.l.4.Q.M.= t ~ T O t ,.k O G                                           ",
"                                          9 O & & r + F l T # B.@X&XE.l.4.B.&Xa 1 ^ 9.& & 1 o * %                                           ",
"                                        L @ 5.l.A @ O ! j M o /.+X;.& # ; c.,X*.1 ^ 9.2 + p j.B.e 5                                         ",
"                                        > &.@X|.].Z # 9.j t & m.a O 1 d $ & 7.;.@ >.T x @ W.|.OXl.$                                         ",
"                                        % 4.4X*XoXn 1 w.D = + o = & & & O = . o + E l P X W.=X2Xb.$                                         ",
"                                        9 ; '.2X-Xu r e.,.& e b./.W.$.V z.OXE.;.+ z l ~ o B.4X[.i 5                                         ",
"                                          > q k.b.& s w.,.& 4.5XV.5.1X1X3X$X$X.X@ y D ,.# N 2.; %                                           ",
"                                          @.# o o # l 9.:.O w B.n.B c.~.*.4.E.*.O 1 W r.# + % 8                                             ",
"                                            4 @ & O D p.~ o + . o % o X o % o + + 1 9.,.O f                                                 ",
"                                              9 5 > & R E o t O { I.@.o.C.P., = = 3 ,.s # o.                                                ",
"                                                    4 + & + & o f         | + O + $ $ + J                                                   ",
"                                                      4 # O _.7.o }       6 w  XC & # { C.                                                  ",
"                                                      > b |.-X!.o '       5 n ,X}.m.o `                                                     ",
"                                                      & Z &XOXe % o.      S $ l.=XE.+ 0                                                     ",
"                                                      0 + w w $ `         o.5 & u @ > }                                                     ",
"                                                          9 7 `             X.S 8 S +.                                                      ",
"                                                                                                                                            ",
"                                                                                                                                            ",
"                                                                                                                                            ",
"                                                                                                                                            ",
"                                                                                                                                            ",
"                                                                                                                                            "
};
