/* XPM */
static char *c9e1d9a656754edac06c2187b146d2617y45KNdUcolia9c8[] = {
/* columns rows colors chars-per-pixel */
"70 70 237 2 ",
"   c None",
".  c #0C0B0E",
"X  c #0E0D12",
"o  c #100F14",
"O  c #121116",
"+  c #15151A",
"@  c #18171C",
"#  c #1A191E",
"$  c #16181B",
"%  c #1D1C23",
"&  c #1F1D28",
"*  c #201F26",
"=  c #211F2A",
"-  c #1D2126",
";  c #222127",
":  c #22212A",
">  c #262A2C",
",  c #2C2C33",
"<  c #2B2D3A",
"1  c #252834",
"2  c #322E3C",
"3  c #2D323B",
"4  c #34323C",
"5  c #37353A",
"6  c #3B201C",
"7  c #4B241B",
"8  c #5B2A16",
"9  c #562817",
"0  c #66351C",
"q  c #773A1B",
"w  c #472B26",
"e  c #593325",
"r  c #483739",
"t  c #5A3D36",
"y  c #5A3E3A",
"u  c #553D3A",
"i  c #512D25",
"p  c #683B28",
"a  c #683E30",
"s  c #7D411A",
"d  c #5C423E",
"f  c #55413D",
"g  c #4F403B",
"h  c #77452B",
"j  c #694639",
"k  c #764A39",
"l  c #7A523D",
"z  c #6C412C",
"x  c #2E3543",
"c  c #333442",
"v  c #353A45",
"b  c #3B3B45",
"n  c #3C3D4A",
"m  c #3B3742",
"M  c #423E44",
"N  c #473B47",
"B  c #523D41",
"V  c #3D414C",
"C  c #37434F",
"Z  c #3B4553",
"A  c #42434C",
"S  c #4A444C",
"D  c #464146",
"F  c #554343",
"G  c #5B4342",
"H  c #5C4944",
"J  c #5C4B4C",
"K  c #57464B",
"L  c #444553",
"P  c #4A4652",
"I  c #454954",
"U  c #4C4A55",
"Y  c #4B4B5C",
"T  c #46485B",
"R  c #534D5A",
"E  c #564C56",
"W  c #4E535C",
"Q  c #54515D",
"!  c #5C545C",
"~  c #565659",
"^  c #644B44",
"/  c #674B47",
"(  c #764E44",
")  c #6C514B",
"_  c #785447",
"`  c #6B5454",
"'  c #64545A",
"]  c #685859",
"[  c #775A56",
"{  c #614F56",
"}  c #7A625C",
"|  c #7D604F",
" . c #4C4D62",
".. c #4E5263",
"X. c #555462",
"o. c #5A5563",
"O. c #5C5A66",
"+. c #545569",
"@. c #565A6D",
"#. c #5E5C6A",
"$. c #585867",
"%. c #565971",
"&. c #5C5D71",
"*. c #554C63",
"=. c #635A64",
"-. c #625D6C",
";. c #675A64",
":. c #615D71",
">. c #695E70",
",. c #745D62",
"<. c #5D626C",
"1. c #586369",
"2. c #5C6673",
"3. c #63626D",
"4. c #6B6269",
"5. c #786466",
"6. c #646273",
"7. c #696878",
"8. c #746A74",
"9. c #6B767C",
"0. c #72767E",
"q. c #84451F",
"w. c #874A28",
"e. c #8D512A",
"r. c #93522D",
"t. c #98552C",
"y. c #834D35",
"u. c #8C5436",
"i. c #8C533A",
"p. c #895638",
"a. c #945534",
"s. c #955A3C",
"d. c #9D5C3B",
"f. c #985737",
"g. c #924F30",
"h. c #A25D38",
"j. c #A4633C",
"k. c #AA653C",
"l. c #A9663A",
"z. c #B46A3D",
"x. c #BA723B",
"c. c #9D6338",
"v. c #C0723F",
"b. c #825544",
"n. c #8D5B43",
"m. c #8B5E4B",
"M. c #865A48",
"N. c #945C45",
"B. c #855D54",
"V. c #844F46",
"C. c #8B614C",
"Z. c #94644C",
"A. c #9B654B",
"S. c #9D6A4D",
"D. c #976447",
"F. c #8C6353",
"G. c #866457",
"H. c #936453",
"J. c #976956",
"K. c #9C7053",
"L. c #A46443",
"P. c #AB6642",
"I. c #A56945",
"U. c #AC6A44",
"Y. c #A46B4C",
"T. c #AC6C4B",
"R. c #A4674B",
"E. c #B46E44",
"W. c #BA6E43",
"Q. c #B56E49",
"!. c #AC714B",
"~. c #BB7245",
"^. c #B5724B",
"/. c #BB744A",
"(. c #BC784D",
"). c #B47244",
"_. c #A46D53",
"`. c #A66D54",
"'. c #AA7357",
"]. c #B47453",
"[. c #BB7553",
"{. c #B97A58",
"}. c #906F66",
"|. c #A66F58",
" X c #C2744B",
".X c #C2794D",
"XX c #C97848",
"oX c #C47A52",
"OX c #C47955",
"+X c #6D807F",
"@X c #757C83",
"#X c #6A6F82",
"$X c #7B858B",
"%X c #788689",
"&X c #7E8D91",
"*X c #82898D",
"=X c #838D94",
"-X c #898F96",
";X c #8B949B",
":X c #8B9A9D",
">X c #849397",
",X c #93979D",
"<X c #8C9CA2",
"1X c #8995A1",
"2X c #939DA4",
"3X c #979FA6",
"4X c #94A3A5",
"5X c #94A3A9",
"6X c #99A6AC",
"7X c #9CAAAD",
"8X c #9CA4A8",
"9X c #9DACB2",
"0X c #93A5A6",
"qX c #A2A5AB",
"wX c #A3ABAE",
"eX c #A0A3A6",
"rX c #A2AEB3",
"tX c #A8ABB3",
"yX c #A4B2B5",
"uX c #AAB4B6",
"iX c #A5B4BA",
"pX c #AAB5BB",
"aX c #ACB9BC",
"sX c #A5B8BA",
"dX c #B3BCBD",
"fX c #B3B4BB",
"gX c #ACBCC2",
"hX c #ABB7C0",
"jX c #B4BDC2",
"kX c #B3C2C5",
"lX c #B9C6C8",
"zX c #B6C7C9",
"xX c #C4CACA",
"cX c #C9D5D6",
"vX c #CDD5D7",
"bX c #DCE2E3",
"nX c #EDF0F1",
/* pixels */
"                                                                                                                                            ",
"                                                                                                                                            ",
"                                                                                                                                            ",
"                                                                      bXxXuXdXlXjXdXkXlXlXxXvX                                              ",
"                                                                  bXjXyXtX,X;XlXcXkXlXlXlXzXqX$XuX                                          ",
"                                                              bXwX8XwX6X0XyXsX8XkXkXxXcXvXjX;XrXdXqXdX                                      ",
"                                                          xXdXlX;X:X9X5X:X4XkXyX9X4X9XyXkXaXjXpXdX4X:XaXaX                                  ",
"                                                      dX-XyXcXcXuX+XyXyX6X6XaXkXaX6X9X9XiXgXpXhXlX&XwXaXgXuXuX                              ",
"                                                  xXuX6X0X:X0X9X4X9.yXsXiXrXhX9X>X@X&X9XpXkXzXcXgX%XpXsXsXyXsXwXdX                          ",
"        $.                                      uX3.*X<X0X9X7X9XsX2X1XpXrX&X&.n < 1 x n <.>XhXlX2X4XhX9X5X5X6XrX+X7.                        ",
"  7.0.*.I I Y ..$X                            uXuX3X$.4X1X&X<X5XhX6X<.<.n < x V Y X. .L v , V 1.1.8XpX6X:X&X4X4X1.wXlXwX                    ",
"dX7.0.X.U U O.+. .X.@X                      wXuXuXuX=X$X9X:X5X9X<XW 1 < V Q $.X.I V Y X.! ~ g 3 3 ~ 2XiX9X<XrX%X2XvXvXdX4X                  ",
"fX6.#Xo.P J } ,.3.<.%.+.*X                yX9X9X7XyXyX&X3X9X2X7.v c I o.Q S 4 : : > V S J H ` ' S b v 7.6XyX2X$XsXzXkX9XuXuX                ",
"fX-.#X+.o.F n.K.F.5.6.#Xo.=.qX        xXyX9X0X<X<X0X6X7X;X@Xn < I $.X.b 1 : : : - - S S f 7 _ ( [ ] E c Z %X$X:X7X0X&XyXkXaXuX              ",
"fX-.#X%.E y u.T.!.T.B.G.7.&.#.@X      rX<X>X5XiX0X&X:X4X<., n @.Q c : = % ; : ; & - I E d 9 g.h Z.G.` ~ A 3 1.sXcX7X:X0XyXuXuXuX            ",
"fX%.>.+.Q y r.T.A._.g.N.}.}.7.@.8.xXxX9.>X5XsXsXkXrX:X$.3 P o.n 1 = = * % % % # % %  .o.f 9 y.h _ b.D.| ! W 5 2.:X%X0X:X0X7XyX=X            ",
"tXo.7.%.o.y u.S.m.H.i.d.'.m.[ 8.&.6.$X$.&XsXsXsXhX9XX., W Q c = = = % * # % # # + % T *.u 9 V.B.}.l l.!.G.] E x Z :X4X4X7X7X%XW *X          ",
"fX*.6.%.R y i._.'.J.i.h.~.j.i.}.8.:.@.$X9.+XrXsX6XW 3 Q Y , & : & & % % # # @ + + @  .o.B 9 N.H.}.s.l.x.!.l H ~ v W 4X7X7X9.9.yXlXdX        ",
"tXQ 6.%.-.y a.].!.].a.h. XW.h.S.j 5.-.<.0X%X@X;XQ , U P , : ; % % % % @ # @ + + O @ N *.^ 9 d.].].c.k./.).h j ` E 3 +.>X@X9.&X:X4X>X        ",
"tXR 6.&.=.^ g.OX X Xt.h.oXW.W.P.q M.} ! 9.hX=XD 1 P I , % = % % % % @ @ @ + + + O +  .;.d 9 N. X/.h.T.^.).w.a.F.) I 1 L :X9X7X>X&X7XyX      ",
"tXR >.%.=.B f.OX XoXt.j..X~.Q.T.q N.J.[ X.1X;X1 b R , : * * % % + % + + + O O o X O Y #.^ 9 N./. Xh.T.~.~.w.a.T.G.E Z 3 ;X9X6X9XsXsXiX      ",
"wXY :.@.%.j a.oXoXoXd.j..XXX/.T.q L.'.F.=.&.$., R 5 : & % % # @ + + + O + O O O o O  .#./ 8 d. X(.d.)./.Q.w.s.Q.L./ E x 2.9X<X1X1X9XiXiX    ",
"tXP :.%.o.^ i.oXoXXXd.L.{. X(.!.q L.E.A.) Q 3 A L : = * * % % @ % + + O O o o o o o Y +.^ 9 L. X(.d.).(./.q.s.W.k.k K D n 2X2X5X<X<X9XrX    ",
"qXU :.@.o.y a.oXoXoXf.L.(. X/.I.q h.~.j.k ' I I 2 = : * % # # @ O + O O o o X o . +  .+.^ 8 j.oX(.h.E.^.^.h u.I.U.h ^ S x @XrX5X4X5XiXyX    ",
"tXP :.&.-.^ a.OXoXoXh.h.oXXX.XT.0 L./.l.l ) E n 1 : = % % @ @ + O O O O X X X X X o  .:.G 8 L. X Xj.Q.).'.a a ( m.k _ ^ V W wX7X7X9XgXiXbX  ",
"qXP #.%.=.y f.OXoXOXN.h.OXOX^.l t _ K.j.u.[ E c = = = % % @ + + + O O X X X X X . O  .+.^ 8 P. X(.j.U.U.J.) ` ! ' a Z.j D 3 >XyX9X9XiXhXvX  ",
"qXL &.%.-.^ N.OXoXoXh.f.OXOXm.` ' ' [ N.s.[ R c = = % % # @ + + + O O O X X X X . o Y %.B 9 P.OX.Xh.k.E.J._ } ] { ) D.C.S < 1.9XrX9XyXyXbX  ",
"qXN -.%.o.d N.OXXXOXN.i.OXOXm.;.F ^ ' [ i.B.R n : * % % # @ + O O O O X X X X . . O L o./ 9 P.oXOXh.k.E.'.( H.'.b.] C.C.K x 1 9.=X&X$X,XnX  ",
"qXD #.%.X.G f.XXXXXXd.g.OXOX'.[ t H._ [ M.B.E N : = % @ @ @ + O o o X o X X . . . X T :.F 9 Y.{.'.N.N.H.|.j G.K.F.` 5.G.U 5 - +X4X6X9XrXbX  ",
"eXn #.%.>.G s.oXOXOXN.k [.].].J.h '.B.` }.5.E b : % % % @ + + O O o X X X X X . X o L o.F 9 D.J.G.' ] ,.[ ] 5.5.,.>.>.*.E 3 > 7XjXzXhXsXvX  ",
"eXD @.%.o.B N.OX].}.] / [ [ 5.5.` } 5.>.o.*.*.m = & % @ @ + + O O O o o X X X . X o T =.B 8 m.} ;.! ;.' ;.,.;.>.8.7.:.*.=.c > <XaXlXsXuXvX  ",
"eXD #.%.o.G f.{.S.G.=.=.;.>.4.4.4.4.8.>.! -.+.b = % % @ @ + O O O O o o X X X X X O P %.B 0 R.'.H._ C.C.F.j G.H.G.] ,.5.o.4 1 2XaXkXyXyXvX  ",
"qXM $.%.-.d a.oX].J.` / J.m.H.G./ [ [ =.` 5.R n ; % # # @ + + o O o o X o o X X . o T +.G 0 P.XXOXd.Q.W.].a T.[.N._ H.}./ 4 > 8XsX0X5X9XlXnX",
"3XM O.@.=.B d.oXOXOXV.g.{.[.{.J.k '._ ] G.J.E v ; % # # + + + o O O O o X o X X . o T >.B 0 P.OX/.f.[.[.'.) B.n.) ] A.R./ 4 , 7X0X<X<X9XcXnX",
"qXM =.@.R B N.OX XOXi.N.OXOXH._ t ( ) ` y.`.J v ; % # # @ + o + O O O O o X X X . + T +./ 0 R.OX/.f.].{.R.{ -./ ' _ R.T.j 5 , wX%X&X0X7XlX  ",
"qXM -.%.>.d s.oXXXOXw.h. X].M.] K J ` _ y.`.J m * % # # # + + + O O O O o o o X X O T %./ e L.OX/.h.).oXQ./ E ` [ n.T.P.^ 3 , wX%X&X<X9XjX  ",
"eXM #.@.o.d a..X X{.w.d.z.!.J.{ =.] B.N.w.`.J m * % # # @ @ + o + O + O o o o o X + N *.^ 8 d.oXT.i.^. X Xh _ A.S.k.E.P.j 3 > 0X1.&X9XyXlX  ",
"3XN O.@.o.d t.{.'.}.a N.P.k.^.D.a m.!.j.e._.J 5 * * # # # + + + O O O O O o o o X O  .%.B 8 d.L.G.}.}.].~.w.T.v.).P.P.P.j C - 9.1.9.%X#XdX  ",
"8XV #.@.Q d s.'.}.8.K n.L.h.~.(.w.j.x.j.e.`.^ 5 ; % # # # + + O + O O O O o o X X @ N =.G 8 a.N.5.8.}.]./.e.P.XXE.Q.z.I.^ 4 - 9.:X<X5X7XdX  ",
"eXD #.+.R d f.{.}.7.F m.T.z.~.(.e.l.~.L.e.`.J 5 ; % # # # @ + + + + O o O o o o X @  .R B 9 f.N.;.7.}.'.{.e.z.W.E.~.z.Y.H 5 4 9XkXkXkXyXdX  ",
"eXD #.X.3.d a.{.G.8.w m.T.Q././.r.l.W.L.r.Y.J 4 = % # # # @ + + + O O O O O o o o @ T *.B 9 N.m./ 8.[ '.{.e.l.~.x./.z.R.^ 4 c tXkXzXzXsXkX  ",
"eXM #.+.X.y m.B./ [ B V.R.Q././.r.j.W.L.a.Y.H 4 = % # # # # + + + + O O O O o o o @ N *.u 7 y.( _ [ a _ '.r.k.~.W.~.k.S.G 4 v 4XyXkXkXsXjX  ",
"8XD O.@.*.d V.k M.J.j ) d.Q. X.Xr.k./.I.f._.K 4 * % % % @ @ + + + + + O o O o o X + n 6.B 7 k B._.m.l j J.a.j.~.W./.P.A.H 4 V 9XyXsX9X7X    ",
"eXD #.X.! B _ a A./.a ) d.]././.t.j.W.L.r.Y.F 2 = % @ % # @ + + + + + + + O O o o % n +.N 7 ( [ ].d.( j J.r.h.~.E.~.z.S.H 5 V sXzXiX0X6X    ",
"qXD &.+.R u V.k l J.k ) d./././.r.j./.l.e.K.F < = = % % # @ # @ + + + + O O O O O % L *.r 8 y.( B.( t ( `.a.h.~.E.~.z.S.F 5 L yXsX5X7XyX    ",
"8XA -.+.=.u N.H.h k a M.Q.[.[.R.h b.Y.L.s Z.F 4 = * % % # # @ + + + + + O + O O o + N U r p N.n.( k k `.].a.f.(.z./.z.D.f 5 A yXrXrXrXsX    ",
"qXS :. .! t f.].T.D.0 _./.[._.) J ] | Z.w.A.F < = = % % # # + @ + + + O O O o O o % v %.w p L.[.T.N.R.[.^.r.d.(.k. Xx.A.f 4 4 %X%X&X%X%X    ",
"eXP &.*.R y a.[./.T.w.^.W.^.H.` ! K ` ) e.I.u c * * * % # @ # $ @ @ + + + + + o O % n +.r 0 k.~.^.L.h./.^.w.h A.I.E.z.A.f 4 V 2X2X:X:X=X    ",
"wXP -...R t a./. X!.w.!.).(.S.[ j j ` ` n.R.u c = & & % # # # # @ @ @ + + + + + O # L R r 0 l.~./.l.c.(._.j ^ ) V.`.E.A.u 4 A yXpXzXhXaX    ",
"qXP #...U t i.OXOXT.w.].^.~.!.J.h A.B.] F.A.u < = & & % % % # # # @ # @ + + + + @ # V U y 8 k.~.~.L.d.].m.` =.R ` m.U.Z.g 4 I pXkXyXyXpX    ",
"qXU #.+.o.t f.].].G.[ G.C.F.C.H.k Z.G.=.} [ S 3 : * % % % # # # # # # @ + + + + @ # n Q u 9 h. X^.P.d./.A.) G.b.( [ A.N.y 4 I 5X=X2XyXaX    ",
"wXI #. .o.t a.[.A.B.>.=.O.-.4.7.>.4.7.6.~ ! U , : * * % % % # # # # # # @ + @ + + % V o.f 8 h.(./.P.j.).].u.N.`.m.) F.F.B 3 x 1.=XkXdXaX    ",
"qXE -...E t a./.T.B.] [ ` [ [ [ ` } 4.-.o.>.R , : ; * % % # % # # * # # @ @ @ @ @ % n U G 0 s._.J.C.M.H.J.l b.Z.G.! } ;.P x x &XpXaX9X7X    ",
"rXU &. .R t s././.].D.!.^.Q.`.F.p.I.[ ;.} G.N < ; ; ; % * % % # # # # # @ @ @ @ @ * n P G 0 p.5.4.o.;.;.;.>.4.5.5.7.1.E  .c Z 7XpXyXyX7X    ",
"wXE <.X.N t i./.W.Q.h.~.).W.J.` _ S.( [ J.H.N , ; ; ; * % % # # # # % % @ % @ @ % % n U f p p.} [ ' ] ` ` ] ] ] ,.3.O.! o.3 v $X&X&X$X%X    ",
"tXQ 3. .o.t a.W.W.T.d.^.).W.M.{ ^ k { ( D.m.N , ; ; ; * * % % % % % % % @ % % % @ % M -.d p f.T.R.m.i.R.P.D.k S.F.) } 5.K 4 $.pXrX7X%X%X    ",
"tXQ :. .Q y p.W. XT.d.x.).!.n.' ' { [ _ j.n.r , : = = : = * * # % % % % % % # % % % V S G p t.x.Q.L.t./.U.n.h Z.l [ D.M.N c 7.zXzXkX:X&X    ",
"tXX.:. .P y i.~.x.E.a.E.W.E.S.j ^ B.J.p.l.n.N 1 : > : = = * % * % % ; % % % % % % % b P G p l [ C.D.s.!.Z./ J K / ` C.C.M 4 9.kXkXsX0X:X    ",
"fXX.:. .E u i.~.x.x.e.T.~.x.U.y.p.!.Q.e.l.M.M < : : = = = = ; * % % * % ; % % % % - V S G p z }.F.p.a.j.m.` ! ~ ` j N.C.r x 9.gXgXkX7X4X    ",
"fX$.:.Y A t a.!.U.).w.P.E.x.x.e.t.x.z.t.j.C.r < : : = = > = * * % * * % % % % ; % % b O.u i p G._ w.w.t.u.j H J l z w.j D x #XhXsXsXsX2X    ",
"fXO.:. .o.u y.C.b.Y.q.L.E.x.x.g.f. Xz.e.I.b.r , > : : : = = ; * * ; ; * ; % ; % ; ; b P r 7 8 a z e 0 z q a i 9 p 8 p t M c @XyX5X4XyX4X    ",
"fX$.:. .E t p.J.}.S.q.j.).z.E.g.a.W.W.w.S.( r , : : : : = = ; : ; ; ; * ; ; ; ; ; ; b P r 6 7 8 i w w 7 9 i w 7 i 7 i w M v @XyX7X5XsX      ",
"fX%.#X .N t u.R.P.L.s j.W.E.Q.r.f.].!.y.J.^ 5 , = 6 : : > = = > ; ; > ; ; ; ; ; ; ; b o.Q X.~ ! E E ! ! o.o.E R E E E U U A %X9X7X5XsX      ",
"fX%.#XT S t t.Q.Q.j.s L.T.Y.S.l k _ ^ g g g n , : : : : ; ; ; ; ; ; ; ; ; ; ; ; ; ; b X.-.@.-.@.#.6.3.3.>.:.:.-.:.:.R #.R Z =XpXiXyXaX      ",
"fX>.#XT N B i.Y.S.C.z _ / d G F D 5 b Q b D I V 5 b 5 5 b 5 5 5 5 5 5 5 , , 5 , , , S <.3.3.O.<.<.6.<.3.6.<.3.3.<.#.#.-.X.X.;XpXuX          ",
"jX7.7. ...N F F F D D D U P v C Z C Q %X                                                                                                    ",
"jX7.7. .T N N X.n P I D U 1.0.                                                                                                              ",
"  *X8.T n n D R o.8.-X                                                                                                                      ",
"    qX4.@X,XfX                                                                                                                              ",
"                                                                                                                                            "
};
