/* XPM */
static char *result[] = {
/* columns rows colors chars-per-pixel */
"70 70 207 2 ",
"   c #040304",
".  c #0B0704",
"X  c #0C0A05",
"o  c #04060B",
"O  c #0A070B",
"+  c #06090C",
"@  c #0C0B0C",
"#  c #110E0C",
"$  c #150A08",
"%  c #13120E",
"&  c #1E1208",
"*  c #0D0D12",
"=  c #070912",
"-  c #120E13",
";  c #0E1114",
":  c #0A1018",
">  c #141315",
",  c #1B1412",
"<  c #1C1B15",
"1  c #151519",
"2  c #19161C",
"3  c #151A1C",
"4  c #1B1A1D",
"5  c #26150E",
"6  c #211412",
"7  c #221B13",
"8  c #2C1B13",
"9  c #251D1A",
"0  c #271B1A",
"q  c #321B12",
"w  c #311F1C",
"e  c #2C220E",
"r  c #26231C",
"t  c #2C241E",
"y  c #2D2619",
"u  c #342219",
"i  c #3C2A1E",
"p  c #392418",
"a  c #151A24",
"s  c #1C1D23",
"d  c #181A26",
"f  c #211E23",
"g  c #1D2024",
"h  c #1E2429",
"j  c #162025",
"k  c #232325",
"l  c #292422",
"z  c #2C2A24",
"x  c #25252B",
"c  c #23292A",
"v  c #2A2A2D",
"b  c #2B272A",
"n  c #3A2F24",
"m  c #332A29",
"M  c #393327",
"N  c #262B33",
"B  c #2C2D32",
"V  c #2E2F39",
"C  c #252733",
"Z  c #332E32",
"A  c #302F38",
"S  c #2E3135",
"D  c #2E323A",
"F  c #2A343A",
"G  c #323236",
"H  c #31323B",
"J  c #343A3E",
"K  c #3B3A3D",
"L  c #3C3536",
"P  c #512D18",
"I  c #4C2916",
"U  c #4C3E29",
"Y  c #473826",
"T  c #523C2A",
"R  c #413F3D",
"E  c #423A34",
"W  c #4B2D24",
"Q  c #50412E",
"!  c #45423A",
"~  c #5C4B3B",
"^  c #644B39",
"/  c #63533D",
"(  c #6A583B",
")  c #2A3845",
"_  c #353642",
"`  c #393743",
"'  c #343A43",
"]  c #3B3B44",
"[  c #3D3D49",
"{  c #343D49",
"}  c #403F4C",
"|  c #3D4245",
" . c #3D434B",
".. c #39454B",
"X. c #384457",
"o. c #385276",
"O. c #434346",
"+. c #42434C",
"@. c #4A4849",
"#. c #5F5344",
"$. c #454552",
"%. c #484756",
"&. c #464956",
"*. c #494956",
"=. c #454A5A",
"-. c #4A4C59",
";. c #504F5E",
":. c #4C535A",
">. c #4E5456",
",. c #54545B",
"<. c #53585C",
"1. c #585959",
"2. c #514747",
"3. c #6C5B43",
"4. c #685849",
"5. c #6A605F",
"6. c #7C6D58",
"7. c #756749",
"8. c #4D5462",
"9. c #545561",
"0. c #565D62",
"q. c #5B5B63",
"w. c #5E5D6C",
"e. c #465B7E",
"r. c #555E7B",
"t. c #605E68",
"y. c #5F6062",
"u. c #5B6369",
"i. c #5F6971",
"p. c #636363",
"a. c #64646C",
"s. c #67696C",
"d. c #66706F",
"f. c #656C74",
"g. c #6B6A73",
"h. c #696D7A",
"j. c #6C7275",
"k. c #6D747C",
"l. c #74797C",
"z. c #737379",
"x. c #756B69",
"c. c #89765D",
"v. c #957D5E",
"b. c #846C51",
"n. c #8E7C61",
"m. c #847977",
"M. c #948264",
"N. c #9A8769",
"B. c #AA9473",
"V. c #AB977C",
"C. c #B09975",
"Z. c #BBA57C",
"A. c #C4AF7F",
"S. c #C2A67E",
"D. c #4E6581",
"F. c #586D8A",
"G. c #6C7681",
"H. c #737C83",
"J. c #7A7B83",
"K. c #757C89",
"L. c #75838C",
"P. c #7A848D",
"I. c #7A8186",
"U. c #738493",
"Y. c #7C8B94",
"T. c #858688",
"R. c #85939C",
"E. c #8C969B",
"W. c #909194",
"Q. c #B99F80",
"!. c #BBA588",
"~. c #8A9EA9",
"^. c #8797A4",
"/. c #959DA4",
"(. c #8CA0AB",
"). c #93A3AE",
"_. c #92A5B1",
"`. c #98A8B3",
"'. c #B6BABD",
"]. c #B8B5B2",
"[. c #ADACAB",
"{. c #C5AB84",
"}. c #CEB588",
"|. c #D5B78B",
" X c #DBBF91",
".X c #E4C998",
"XX c #F8D495",
"oX c #FFDD9D",
"OX c #FBD59B",
"+X c #E9D19E",
"@X c #FEDDA3",
"#X c #F6DAAA",
"$X c #EED2A4",
"%X c #FFE2A5",
"&X c #FFE5AA",
"*X c #FFEEB3",
"=X c #FFF0B6",
"-X c #B5BCCA",
";X c #C8CDD1",
":X c #CBD5D8",
">X c #D9D9D8",
",X c #CCCDC8",
"<X c #E0E4E8",
"1X c #EEF2F0",
"2X c #FCFFFC",
"3X c #F1F9FF",
"4X c None",
/* pixels */
"4X4X4X4X4X4X4X4X4X4X4X4X4X4X4X4X4X4X4X4X4X4X4X4X4X4X4X4X4X4X4X4X4X4X4X4X4X4X4X4X4X4X4X4X4X4X4X4X4X4X4X4X4X4X4X4X4X4X4X4X4X4X4X4X4X4X4X4X4X4X",
"4X4X4X4X4X4X4X4X4X4X4X4X4X4X4X4X4X4X4X4X4X4X4X4X4X4X4X4X4X4X4X4X4X4X4X4X4X4X4X4X4X4X4X4X4X4X4X4X4X4X4X4X4X4X4X4X4X4X4X4X4X4X4X4X4X4X4X4X4X4X",
"4X4X4X4X4X4X4X4X4X4X4X4X4X4X4X4X4X4X4X4X4X4X4X4X4X4X4X4X4X4X4X4X4X4X4X4X4X4X4X4X4X4X4X4X4X4X4X4X4X4X4X4X4X4X4X4X4X4X4X4X4X4X4X4X4X4X4X4X4X4X",
"4X4X4X4X4X4X4X4X4X4X4X4X4X4X4X4X4X4X4X4X4X4X4X4X4X4X4X4X4X4X4X4X4X4X4X4X4X4X4X4X4X4X4X4X4X4X4X4X4X4X4X4X4X4X4X4X4X4X4X4X4X4X4X4X4X4X4X4X4X4X",
"4X4X4X4X4X4X4X4X4X4X4X4X4X4X4X4X4X4X4X4X4X4X4X4X4X4X4X4X4X4X4X4X4X4X4X4X4X4X4X4X4X4X4X4X4X4X4X4X4X4X4X4X4X4X4X4X4X4X4X4X4X4X4X4X4X4X4X4X4X4X",
"4X4X4X4X4X4X4X4X4X4X4X4X4X4X4X4X4X4X4X4X4X4X4X4X4X4X4X4X4Xd = @ * @ @ > B k.4X4X4X4X4X4X4X4X4X4X4X4X4X4X4X4X4X4X4X4X4X4X4X4X4X4X4X4X4X4X4X4X",
"4X4X4X4X4X4X4X4X4X4X4X4X4X4X4X4X4X4X4X4X4X4X4X4X4X4X4XJ X K w.g.g.g.w.*.L 1 : $.4X4X4X4X4X4X4X4X4X4X4X4X4X4X4X4X4X4X4X4X4X4X4X4X4X4X4X4X4X4X",
"4X4X4X4X4X4X4X4X4X4X4X4X4X4X4X4X4X4X4X4X4X4X4X4X4X4XF - p.J.a.9.9.9.-.+.' b > ; O C P.4X4X4X4X4X4X4X4X4X4X4X4X4X4X4X4X4X4X4X4X4X4X4X4X4X4X4X",
"4X4X4X4X4X4X4X4X4X4X4X4X4X4X4X4X4X4X4X4X4X4X4X4X4X$.- s.l.;.} } H B C x x x C x g > + s u.4X4X4X4X4X4X4X4X4X4X4X4X4X4X4X4X4X4X4X4X4X4X4X4X4X",
"4X4X4X4X4X4X4X4X4X4X4X4X4X4X4X4X4X4X4X4X4X4X4X4X4Xo q.z.2.] ` ` } $.$.%.:.>.*.&.$. .` x * 1 8.4X4X4X4X4X4X4X4X4X4X4X4X4X4X4X4X4X4X4X4X4X4X4X",
"4X4X4X4X4X4X4X4X4X4X4X4X4X4X4X4X4X4X4X4X4X4X4X4X: | z.%.` } @.*.-.-.&.$.&.$.&.&.&.&.=.-.$.V * 3 P.4X4X4X4X4X4X4X4X4X4X4X4X4X4X4X4X4X4X4X4X4X",
"4X4X4X4X4X4X4X4X4X4X4X4X4X4X4X4X4X4X4XD 1 @ @ @ B g.-.} %.-.%.%.%.$.&.&.$.*.&.$.&.&.&.&.&.&.$.x + 8.4X4X4X4X4X4X4X4X4X4X4X4X4X4X4X4X4X4X4X4X",
"4X4X4X4X4X4X4X4X4X4X4X4X4X4X4X4X4X- - L >.t.a.a.q.-.$.*.;.%.%.%.$.%.$.*.&.&.$.&.$.&.&.=.=.&.>.$.K = { 4X4X4X4X4X4X4X4X4X4X4X4X4X4X4X4X4X4X4X",
"4X4X4X4X4X4X4X4X4X4X4X4X4X4X4X:.. R g.J.h.t.;.*.$.%.*.*.%.*.%.%.$.*.&.&.&.$.*.&.&.&.&.&.X.&.=.&.&.] = ..4X4X4X4X4X4X4X4X4X4X4X4X4X4X4X4X4X4X",
"4X4X4X4X4X4X4X4X4X4X4X4X4X4Xh.  ,.J.g.;.[ } *.*.*.*.*.$.%.%.%.%.*.*.&.&.&.&.*.&.&.&.&.&.>.&.&.&.$.-._   i.4X4X4X4X4X4X4X4X4X4X4X4X4X4X4X4X4X",
"4X4X4X4X4X4X4X4X4X4X4X4X4X4X= O.J.,.H C ` %.*.*.*.*.*.*.%.%.;.%.%.*.&.&.&.&.=.&.&.=.&.-.&.&.&.&.&.%.-.v : 4X4X4X4X4X4X4X4X4X4X4X4X4X4X4X4X4X",
"4X4X4X4X4X4X4X4X4X4X4X4X4Xh.1 g.[ s f +.*.*.*.*.*.*.*.%.%.*.%.%.*.&.&.&.&.&.&.&.&.&.&.&.&.-.&.&.-.&.-.$.@ :.4X4X4X4X4X4X4X4X4X4X4X4X4X4X4X4X",
"4X4X4X4X4X4X4X4X4X4X4X4X4X' r G > d $.-.*.*.$.*.*.*.-.%.%.-.-.%.*.-.&.=.=.&.&.=.&.=.&.=.&.&.=.&.&.&.-._   g.4X4X4X4X4X4X4X4X4X4X4X4X4X4X4X4X",
"4X4X4X4X4X4X4X4X4X4X4X4X4XN ; * a $.-.*.*.*.*.*.*.*.*.*.%.%.%.%.*.*.&.&.&.&.-.&.&.&.-.&.&.=.&.-.$.&.[ 1 - ] 4X4X4X4X4X4X4X4X4X4X4X4X4X4X4X4X",
"4X4X4X4X4X4X4X4X4X4X4X4X4Xs > < K *.%.*.*.*.*.*.*.*.*.*.-.%.*.-.-.%.&.&.&.-.=.=.&.=.&.&.&.&.&.%.&.$.s < b : 4X4X4X4X4X4X4X4X4X4X4X4X4X4X4X4X",
"4X4X4X4X4X4X4X4X4X4X4X4X4X&.# x %.%.*.*.*.*.*.%.*.*.*.*.*.*.*.*.%.$.&.&.&.&.&.&.&.&.&.-.&.&.&.=.-.N > 4 O.@ i.4X4X4X4X4X4X4X4X4X4X4X4X4X4X4X",
"4X4X4X4X4X4X4X4X4X4X4X4X4XI.@ O.*.%.%.*.*.*.-.*.*.-.*.*.*.%.*.%.%.-.&.&.&.&.&.&.&.&.&.&.&.*.$.-.H * > < K f F 4X4X4X4X4X4X4X4X4X4X4X4X4X4X4X",
"4X4X4X4X4X4X4X4X4X4X4X4X4XS f -.*.*.*.*.*.*.*.*.*.*.-.*.-.%.%.%.-.} _ &.&.&.&.&.&.[ $.&.%.$.*.J * @.T.@ H Z j 4X4X4X4X4X4X4X4X4X4X4X4X4X4X4X",
"4X4X4X4X4X4X4X4X4X4X4X4X4X; G -.$.*.*.*.*.*.*.*.*.*.%.%.*.%.%.-.$.V _ $.-.&.&.&.] C $.&.$.-.' 4 > >.1.% b G 1 4X4X4X4X4X4X4X4X4X4X4X4X4X4X4X",
"4X4X4X4X4X4X4X4X4X4X4X4X4X@ | | [ &.*.*.*.*.*.*.*.*.*.*.*.%.%.$._ V D $.&.&.-.[ d N *.*.-.` > @ # @ $ % c L 3 4X4X4X4X4X4X4X4X4X4X4X4X4X4X4X",
"4X4X4X4X4X4X4X4X4X4X4X4X4X@ +.k [ *.*.*.%.%.*.*.*.*.*.*.*.%.$.` B V V ..&.-. .B > K -.@.J > t ~ 4.n.6.# N G 3 4X4X4X4X4X4X4X4X4X4X4X4X4X4X4X",
"4X4X4X4X4X4X4X4X4X4X4X4Xj.> L 4 +.*.*.%.%.%.*.*.*.*.*.*.%.*.[ V A G V [ -.$.H x > x v s > @ 4.!. X.XZ.# 3 4 h 4X4X4X4X4X4X4X4X4X4X4X4X4X4X4X",
"4X4X4X4X4X4X4X4X4X4X4X4Xd.% s 4 } *.*.} %.*.*.%.*.*.*.%.-.+.H H G A V _ &.] B a > Z x @ f r   9 M.oXA.% < @ >.4X4X4X4X4X4X4X4X4X4X4X4X4X4X4X",
"4X4X4X4X4X4X4X4X4X4X4X4Xj.@ > s } %.} H $.%.%.%.%.*.%.*.*.` V H B C D H +.H v 1 < 2 > E B.}.V.M   M.A.$ d * 4X4X4X4X4X4X4X4X4X4X4X4X4X4X4X4X",
"4X4X4X4X4X4X4X4X4X4X4X4X4X@ < g ` @.H A } -.%.%.} %.*.%.$.L G G B x _ D _ D c > > > > y U 3.B..XM.S.Z.; 4X..4X4X4X4X4X4X4X4X4X4X4X4X4X4X4X4X",
"4X4X4X4X4X4X4X4X4X4X4X4X4X@ 1 k J } G H H $.*.} H } %.*.[ A D D B k H D D H s % y > b w.) j - u Z.=Xv.O 4X4X4X4X4X4X4X4X4X4X4X4X4X4X4X4X4X4X",
"4X4X4X4X4X4X4X4X4X4X4X4X4X@ 1 g H J A H A [ *.[ V _ } %.` A D D v s D D G H a r ! l ,X-XD.D.D.) e &Xb.d 4X4X4X4X4X4X4X4X4X4X4X4X4X4X4X4X4X4X",
"4X4X4X4X4X4X4X4X4X4X4X4X4X+ < s D H A H H H [ _ _ V _ [ H V D D B 3 D D H H 1 z < m.1Xo.F.'.=.K.9 |.( N 4X4X4X4X4X4X4X4X4X4X4X4X4X4X4X4X4X4X",
"4X4X4X4X4X4X4X4X4X4X4X4X4X<.q.; D H G G A V H H V V V V H D D D B 2 B H H D 1 z % ].:Xo.X.m 1 G.f S.U ' 4X4X4X4X4X4X4X4X4X4X4X4X4X4X4X4X4X4X",
"4X4X4X4X4X4X4X4X4X4X4X4X4X4X4X+ S G N G H A H H H V _ V D H D D S 1 b H G S < m , ].:Xo.U.h a K.0 S.n +.4X4X4X4X4X4X4X4X4X4X4X4X4X4X4X4X4X4X",
"4X4X4X4X4X4X4X4X4X4X4X4X4X4X4X; k G 1 Z H H H H H H H H H H D D S 3 s H D S > M e l.2XF.D.) D.h.y +XY  .4X4X4X4X4X4X4X4X4X4X4X4X4X4X4X4X4X4X",
"4X4X4X4X4X4X4X4X4X4X4X4X4X4X4X@.- B 1 k K B A H H H V H B G D D G s 2 B D D > M #.9 >X<XY.^.:XG ( =X~ D 4X4X4X4X4X4X4X4X4X4X4X4X4X4X4X4X4X4X",
"4X4X4X4X4X4X4X4X4X4X4X4X4X4X4X4X- 4 > 4 N G G G V H B A K G G G H x > x G G 4 7 !.Q % @.p.p.L 5 |.&X3.B 4X4X4X4X4X4X4X4X4X4X4X4X4X4X4X4X4X4X",
"4X4X4X4X4X4X4X4X4X4X4X4X4X4X4X4Xf.  3 > 2 S A V H G v v H G G G K v 1 2 B L k @ B.$Xv./ U U ^ !.@X@X~ J 4X4X4X4X4X4X4X4X4X4X4X4X4X4X4X4X4X4X",
"4X4X4X4X4X4X4X4X4X4X4X4X4X4X4X4X4XJ @ Z s > A H H G N 2 B G H G G B a > k G v @ 7.&X%X&X%X@X%X@XoX.X& 0.4X4X4X4X4X4X4X4X4X4X4X4X4X4X4X4X4X4X",
"4X4X4X4X4X4X4X4X4X4X4X4X4X4X4X4X4X4X; p.4Xg @ B G H S g > c A H A H l 1 1 l G > M .XOXXXOXXXXX%X#X4.@ 4X4X4X4X4X4X4X4X4X4X4X4X4X4X4X4X4X4X4X",
"4X4X4X4X4X4X4X4X4X4X4X4X4X4X4X4X4X4X4X_ 4X4X{ O 4 Z G G 3 > s B H H v 4 1 1 b k + c.&XoX%X&X@X{.Y   4X4X4X4X4X4X4X4X4X4X4X4X4X4X4X4X4X4X4X4X",
"4X4X4X4X4X4X4X4X4X4X4X4X4X4X4X4X4X4X4X4X4X4X4XH.d + 4 v v 2 > 2 k G L k > 1 1 4 < 0 Z. XZ.n.T . x 4X4X4X4X4X4X4X4X4X4X4X4X4X4X4X4X4X4X4X4X4X",
"4X4X4X4X4X4X4X4X4X4X4X4X4X4X4X4X4X4X4X4X4X4X4X4X4XG.G > 2 4 1 > > 4 k B 4 > 1 > * > 7 ,   1  .4X4X4X4X4X4X4X4X4X4X4X4X4X4X4X4X4X4X4X4X4X4X4X",
"4X4X4X4X4X4X4X4X4X4X4X4X4X4X4X4X4X4X4X4X4X4X4X4X4X4X4Xc 1 1 > > > * > 1 3 1 , 6 Z l $ ' 4X4X4X4X4X4X4X4X4X4X4X4X4X4X4X4X4X4X4X4X4X4X4X4X4X4X",
"4X4X4X4X4X4X4X4X4X4X4X4X4X4X4X4X4X4X4X4X4X4X4X4X4X4X4X<.= f 3 % +.0.1 1 1 - > 6 m.x.  &.4X4X4X4X4X4X4X4X4X4X4X4X4X4X4X4X4X4X4X4X4X4X4X4X4X4X",
"4X4X4X4X4X4X4X4X4X4X4X4X4X4X4X4X4X4X4X4X4X4X4X4X4X4X4X<.> ,.> S P.). .; $.*.1 ; m t.. f.4X4X4X4X4X4X4X4X4X4X4X4X4X4X4X4X4X4X4X4X4X4X4X4X4X4X",
"4X4X4X4X4X4X4X4X4X4X4X4X4X4X4X4X4X4X4X4X4X4X4X4X4X4X4Xa $.q.+ :.U.(.G.+ <.^.J > , , - 4X4X4X4X4X4X4X4X4X4X4X4X4X4X4X4X4X4X4X4X4X4X4X4X4X4X4X",
"4X4X4X4X4X4X4X4X4X4X4X4X4X4X4X4X4X4X4X4X4X4X4X4X4X4X$.o k.+.> d.P.(.Y.1 J _.G.1 O.3 | 4X4X4X4X4X4X4X4X4X4X4X4X4X4X4X4X4X4X4X4X4X4X4X4X4X4X4X",
"4X4X4X4X4X4X4X4X4X4X4X4X4X4X4X4X4X4X4X4X4X4X4X4X4X4X> > K.N k k.U.^.R.c h R.).x l.l.g 4X4X4X4X4X4X4X4X4X4X4X4X4X4X4X4X4X4X4X4X4X4X4X4X4X4X4X",
"4X4X4X4X4X4X4X4X4X4X4X4X4X4X4X4X4X4X4X4X4X4X4X4X4Xk.@ h I.1 | I.P./.`.[ : Y._. .0.'.o 4X4X4X4X4X4X4X4X4X4X4X4X4X4X4X4X4X4X4X4X4X4X4X4X4X4X4X",
"4X4X4X4X4X4X4X4X4X4X4X4X4X4X4X4X4X4X4X4X4X4X4X4X4Xj @ | H.+ z.'.;X3X2XH.o L._.f.c ;Xg f.4X4X4X4X4X4X4X4X4X4X4X4X4X4X4X4X4X4X4X4X4X4X4X4X4X4X",
"4X4X4X4X4X4X4X4X4X4X4X4X4X4X4X4X4X4X4X4X4X4X4X4X4XX # :.h.+ L s.P.E.W.+.: H._.R.2 '.y.J 4X4X4X4X4X4X4X4X4X4X4X4X4X4X4X4X4X4X4X4X4X4X4X4X4X4X",
"4X4X4X4X4X4X4X4X4X4X4X4X4X4X4X4X4X4X4X4X4X4X4X4XJ Z > u.G.; , > @ O X # d P.~.).N E.[.1 4X4X4X4X4X4X4X4X4X4X4X4X4X4X4X4X4X4X4X4X4X4X4X4X4X4X",
"4X4X4X4X4X4X4X4X4X4X4X4X4X4X4X4X4X4X4X4X4X4X4X4XN z > k.8.X 6.N.c.c.M.M 2 Y.~._.X.j.-X% 4X4X4X4X4X4X4X4X4X4X4X4X4X4X4X4X4X4X4X4X4X4X4X4X4X4X",
"4X4X4X4X4X4X4X4X4X4X4X4X4X4X4X4X4X4X4X4X4X4X4X4XB % : L. .X {. X}.|..X#.o L.~.).u.@.<X1 4X4X4X4X4X4X4X4X4X4X4X4X4X4X4X4X4X4X4X4X4X4X4X4X4X4X",
"4X4X4X4X4X4X4X4X4X4X4X4X4X4X4X4X4X4X4X4X4X4X4X4X9 L * l.>.  B.*XoX%X#Xm d E._.`.L.N >XS 0.4X4X4X4X4X4X4X4X4X4X4X4X4X4X4X4X4X4X4X4X4X4X4X4X4X",
"4X4X4X4X4X4X4X4X4X4X4X4X4X4X4X4X4X4X4X4X4X4X4X*.L G @ 2 r ; 7 b.}.}.^ $ Z d.u.<. .1 Z + ) 4X4X4X4X4X4X4X4X4X4X4X4X4X4X4X4X4X4X4X4X4X4X4X4X4X",
"4X4X4X4X4X4X4X4X4X4X4X4X4X4X4X4X4X4X4X4X4X4X4XN 2.R z k @ > > . % - . # ; ; @ @ X c ,.I.4X4X4X4X4X4X4X4X4X4X4X4X4X4X4X4X4X4X4X4X4X4X4X4X4X4X",
"4X4X4X4X4X4X4X4X4X4X4X4X4X4X4X4X4X4X4X4X4X4X4XB 2.! ! < d.] r ~ T T ^ ^ y % r z @ 4X4X4X4X4X4X4X4X4X4X4X4X4X4X4X4X4X4X4X4X4X4X4X4X4X4X4X4X4X",
"4X4X4X4X4X4X4X4X4X4X4X4X4X4X4X4X4X4X4X4X4X4X4X<.l E < ..4Xa.@ 9 p i i p < , 7 , 3 4X4X4X4X4X4X4X4X4X4X4X4X4X4X4X4X4X4X4X4X4X4X4X4X4X4X4X4X4X",
"4X4X4X4X4X4X4X4X4X4X4X4X4X4X4X4X4X4X4X4X4X4X4X4XB c d.4X4XJ.@ w 8 8 q 6 # u W 5 K 4X4X4X4X4X4X4X4X4X4X4X4X4X4X4X4X4X4X4X4X4X4X4X4X4X4X4X4X4X",
"4X4X4X4X4X4X4X4X4X4X4X4X4X4X4X4X4X4X4X4X4X4X4X4X4X4X4X4X4X4X@ I P I P u 6 p I $ >.4X4X4X4X4X4X4X4X4X4X4X4X4X4X4X4X4X4X4X4X4X4X4X4X4X4X4X4X4X",
"4X4X4X4X4X4X4X4X4X4X4X4X4X4X4X4X4X4X4X4X4X4X4X4X4X4X4X4X4X4X| . q q 8 & . X X ; 4X4X4X4X4X4X4X4X4X4X4X4X4X4X4X4X4X4X4X4X4X4X4X4X4X4X4X4X4X4X",
"4X4X4X4X4X4X4X4X4X4X4X4X4X4X4X4X4X4X4X4X4X4X4X4X4X4X4X4X4X4X4X' k k c | 4X4X4X4X4X4X4X4X4X4X4X4X4X4X4X4X4X4X4X4X4X4X4X4X4X4X4X4X4X4X4X4X4X4X",
"4X4X4X4X4X4X4X4X4X4X4X4X4X4X4X4X4X4X4X4X4X4X4X4X4X4X4X4X4X4X4X4X4X4X4X4X4X4X4X4X4X4X4X4X4X4X4X4X4X4X4X4X4X4X4X4X4X4X4X4X4X4X4X4X4X4X4X4X4X4X",
"4X4X4X4X4X4X4X4X4X4X4X4X4X4X4X4X4X4X4X4X4X4X4X4X4X4X4X4X4X4X4X4X4X4X4X4X4X4X4X4X4X4X4X4X4X4X4X4X4X4X4X4X4X4X4X4X4X4X4X4X4X4X4X4X4X4X4X4X4X4X",
"4X4X4X4X4X4X4X4X4X4X4X4X4X4X4X4X4X4X4X4X4X4X4X4X4X4X4X4X4X4X4X4X4X4X4X4X4X4X4X4X4X4X4X4X4X4X4X4X4X4X4X4X4X4X4X4X4X4X4X4X4X4X4X4X4X4X4X4X4X4X",
"4X4X4X4X4X4X4X4X4X4X4X4X4X4X4X4X4X4X4X4X4X4X4X4X4X4X4X4X4X4X4X4X4X4X4X4X4X4X4X4X4X4X4X4X4X4X4X4X4X4X4X4X4X4X4X4X4X4X4X4X4X4X4X4X4X4X4X4X4X4X",
"4X4X4X4X4X4X4X4X4X4X4X4X4X4X4X4X4X4X4X4X4X4X4X4X4X4X4X4X4X4X4X4X4X4X4X4X4X4X4X4X4X4X4X4X4X4X4X4X4X4X4X4X4X4X4X4X4X4X4X4X4X4X4X4X4X4X4X4X4X4X"
};
