/* XPM */
static char *result[] = {
/* columns rows colors chars-per-pixel */
"70 70 203 2 ",
"   c #010102",
".  c #0A0504",
"X  c #0A0805",
"o  c #03040A",
"O  c #0A070D",
"+  c #05090C",
"@  c #0C0B0D",
"#  c #120B05",
"$  c #110C0D",
"%  c #150B0B",
"&  c #15120D",
"*  c #1C140D",
"=  c #1D1007",
"-  c #050C10",
";  c #0C0E12",
":  c #050919",
">  c #130F12",
",  c #0D1113",
"<  c #0D121A",
"1  c #0E1D1B",
"2  c #141414",
"3  c #181514",
"4  c #161916",
"5  c #191916",
"6  c #151519",
"7  c #191619",
"8  c #15191B",
"9  c #1B1B1B",
"0  c #24140D",
"q  c #25180D",
"w  c #241714",
"e  c #231D13",
"r  c #2A1B12",
"t  c #221E1D",
"y  c #2F1F18",
"u  c #1E211E",
"i  c #25211D",
"p  c #2A211B",
"a  c #3C261C",
"s  c #3A291B",
"d  c #0F1D22",
"f  c #151C21",
"g  c #1C1D22",
"h  c #141B2B",
"j  c #221F21",
"k  c #1E2123",
"l  c #1E282C",
"z  c #1F2E31",
"x  c #232325",
"c  c #25262A",
"v  c #2A262A",
"b  c #252A2C",
"n  c #2A2A2D",
"m  c #2A2523",
"M  c #352C22",
"N  c #332E2C",
"B  c #37332F",
"V  c #252933",
"C  c #2B2C32",
"Z  c #2D2F3A",
"A  c #2B2730",
"S  c #322F35",
"D  c #2D3134",
"F  c #2F323B",
"G  c #323235",
"H  c #3B3533",
"J  c #3B3933",
"K  c #31323B",
"L  c #353A3C",
"P  c #3B3B3C",
"I  c #3B3739",
"U  c #492E1E",
"Y  c #42351B",
"T  c #432E22",
"R  c #453626",
"E  c #562E30",
"W  c #403C36",
"Q  c #413B3B",
"!  c #5F3434",
"~  c #5A2729",
"^  c #672828",
"/  c #574327",
"(  c #46413E",
")  c #4C453E",
"_  c #684625",
"`  c #65452D",
"'  c #775426",
"]  c #734D33",
"[  c #715130",
"{  c #766023",
"}  c #2F3741",
"|  c #343642",
" . c #363A43",
".. c #3A3C44",
"X. c #3C3D4A",
"o. c #383641",
"O. c #403F4A",
"+. c #3C4244",
"@. c #3E424C",
"#. c #3D484A",
"$. c #3E4051",
"%. c #3F5561",
"&. c #4B4541",
"*. c #4F4946",
"=. c #43444D",
"-. c #4C4B4D",
";. c #454749",
":. c #504C49",
">. c #574B4A",
",. c #55504C",
"<. c #5A524B",
"1. c #444552",
"2. c #464A56",
"3. c #494A55",
"4. c #474958",
"5. c #4A4C59",
"6. c #464759",
"7. c #4D5153",
"8. c #4C525A",
"9. c #4E5A5D",
"0. c #525454",
"q. c #53535E",
"w. c #53585C",
"e. c #595C5D",
"r. c #655C56",
"t. c #6E6047",
"y. c #7B6655",
"u. c #595764",
"i. c #535A62",
"p. c #5C5C64",
"a. c #5D5E68",
"s. c #555561",
"d. c #605E69",
"f. c #5C6164",
"g. c #596168",
"h. c #626366",
"j. c #696664",
"k. c #62646C",
"l. c #64676A",
"z. c #7D6B6C",
"x. c #6C6B74",
"c. c #6E6F7A",
"v. c #676973",
"b. c #726E78",
"n. c #6D7277",
"m. c #6A7578",
"M. c #73737C",
"N. c #73797E",
"B. c #7A7B7D",
"V. c #787579",
"C. c #875D3A",
"Z. c #8C623C",
"A. c #806937",
"S. c #917F66",
"D. c #8B7864",
"F. c #B88A32",
"G. c #B68E46",
"H. c #988771",
"J. c #978468",
"K. c #BFA57B",
"L. c #D3A643",
"P. c #F1B644",
"I. c #547886",
"U. c #737580",
"Y. c #767B82",
"T. c #7A7B83",
"R. c #7F7E89",
"E. c #787783",
"W. c #6B8087",
"Q. c #778187",
"!. c #7A8485",
"~. c #78858D",
"^. c #838688",
"/. c #8C8C8E",
"(. c #8B8F92",
"). c #808790",
"_. c #85929A",
"`. c #87929B",
"'. c #989B9D",
"]. c #A09D9E",
"[. c #BCA582",
"{. c #A5A29E",
"}. c #8E99A1",
"|. c #889CA9",
" X c #979EA1",
".X c #8CA1AD",
"XX c #9AA5AC",
"oX c #9FA1A4",
"OX c #97A8B3",
"+X c #A8A8AB",
"@X c #ACB0B3",
"#X c #D2B283",
"$X c #C5AA83",
"%X c #DEC599",
"&X c #E5C495",
"*X c #F8D8A4",
"=X c #FFF2B6",
"-X c #BEC1C1",
";X c #CED1D2",
":X c #C4C8CC",
">X c #ECEDEF",
",X c white",
"<X c None",
/* pixels */
"<X<X<X<X<X<X<X<X<X<X<X<X<X<X<X<X<X<X<X<X<X<X<X<X<X<X<X<X<X<X<X<X<X<X<X<X<X<X<X<X<X<X<X<X<X<X<X<X<X<X<X<X<X<X<X<X<X<X<X<X<X<X<X<X<X<X<X<X<X<X",
"<X<X<X<X<X<X<X<X<X<X<X<X<X<X<X<X<X<X<X<X<X<X<X<X<X<X<X<X<X<X<X<X<X<X<X<X<X<X<X<X<X<X<X<X<X<X<X<X<X<X<X<X<X<X<X<X<X<X<X<X<X<X<X<X<X<X<X<X<X<X",
"<X<X<X<X<X<X<X<X<X<X<X<X<X<X<X<X<X<X<X<X<X<X<X<X<X<X<X<X<X<X<X<X<X<X<X<X<X<X<X<X<X<X<X<X<X<X<X<X<X<X<X<X<X<X<X<X<X<X<X<X<X<X<X<X<X<X<X<X<X<X",
"<X<X<X<X<X<X<X<X<X<X<X<X<X<X<X<X<X<X<X<X<X<X<X<X<X<X<X<X<X<X<X<X<X<X<XC  .+.+.D <X<X<X<X<X<X<X<X<X<X<X<X<X<X<X<X<X<X<X<X<X<X<X<X<X<X<X<X<X<X",
"<X<X<X<X<X<X<X<X<X<X<X<X<X<X<X<X<X<X<X<X<X<X<X<X<X<X<X<X<X<X<X+ f O > > 8 6 > > @ 6 D F <X<X<X<X<X<X<X<X<X<X<X<X<X<X<X<X<X<X<X<X<X<X<X<X<X<X",
"<X<X<X<X<X<X<X<X<X<X<X<X<X<X<X<X<X<X<X<X<X<X<X<X<X<X<X<X<X  ; ; I u.x.b.V.V.M.x.p.*.c + , ;.<X<X<X<X<X<X<X<X<X<X<X<X<X<X<X<X<X<X<X<X<X<X<X<X",
"<X<X<X<X<X<X<X<X<X<X<X<X<X<X<X<X<X<X<X<X<X<X<X<X<X<X<X<X  o ;.c.R.R.b.x.d.d.d.k.b.T.E.x.-.2 @ 5.<X<X<X<X<X<X<X<X<X<X<X<X<X<X<X<X<X<X<X<X<X<X",
"<X<X<X<X<X<X<X<X<X<X<X<X<X<X<X<X<X<X<X<X<X<X<X          2 p.R.b.u.q.3.1.6.1.1.1.1.3.u.k.U.U.3.> f  .<X<X<X<X<X<X<X<X<X<X<X<X<X<X<X<X<X<X<X<X",
"<X<X<X<X<X<X<X<X<X<X<X<X<X<X<X<X<X<X<X<X<X<X    O.3.:.3.d.M.u.1.X.1.6.6.2.3.3.1.3.-.1.=.3.p.N.x.S o v.<X<X<X<X<X<X<X<X<X<X<X<X<X<X<X<X<X<X<X",
"<X<X<X<X<X<X<X<X<X<X<X<X<X<X<X<X<X<X<X<X      x.M.x.c.x.p.3.=.o.O.5.3.3.2.2.1.3.3.1.3.6.2.=.1.f.N.;.+ i.<X<X<X<X<X<X<X<X<X<X<X<X<X<X<X<X<X<X",
"<X<X<X<X<X<X<X<X<X<X<X<X<X<X<X<X<X<X<X    0.T.v.1.O.X.X.X.| F X.3.3.6.3.2.2.2.2.2.2.1.3.2.2.4.1.5.c.3.o i.<X<X<X<X<X<X<X<X<X<X<X<X<X<X<X<X<X",
"<X<X<X<X<X<X<X<X<X<X<X<X<X<X<X<X<X<X    h.B.s.1.1.1.| F | | =.2.6.1.3.3.2.2.2.2.2.6.6.3.2.6.6.5.1.1.k.-.  Y.<X<X<X<X<X<X<X<X<X<X<X<X<X<X<X<X",
"<X<X<X<X<X<X<X<X<X<X<X<X<X<X<X<X<X    j.T.8.2.5.6.6.6.1.2.2.2.2.6.2.2.2.2.2.2.2.3.2.2.2.2.3.=. .X.1.=.f.Q @ T.<X<X<X<X<X<X<X<X<X<X<X<X<X<X<X",
"<X<X<X<X<X<X<X<X<X<X<X<X<X<X<X<X    p.E.8.;.6.3.6.3.6.3.2.2.2.2.2.2.2.2.2.2.2.2.2.2.2.2.2.2.6.+.V f k A O.7 A <X<X<X<X<X<X<X<X<X<X<X<X<X<X<X",
"<X<X<X<X<X<X<X<X<X<X<X<X<X<X<X<X  =.T.8.6.6.2.2.2.2.2.2.2.2.2.2.2.6.2.2.2.2.2.2.2.3.2.2.2.2.2.2.3.o.g ; 2 9 @ k.<X<X<X<X<X<X<X<X<X<X<X<X<X<X",
"<X<X<X<X<X<X<X<X<X<X<X<X<X<X<X    U.u.=.6.6.2.2.2.3.2.2.2.2.2.2.2.3.2.2.2.2.2.7.2.2.2.2.2.2.2.2.6.5.=.g 2 5 8   g.<X<X<X<X<X<X<X<X<X<X<X<X<X",
"<X<X<X<X<X<X<X<X<X<X<X<X<X<X<X  e.v.=.6.6.2.2.2.2.2.2.2.2.2.2.2.2.2.2.2.2.2.2.2.2.2.2.2.2.2.2.2.3.2.3.=.g @ n.m.} <X<X<X<X<X<X<X<X<X<X<X<X<X",
"<X<X<X<X<X<X<X<X<X<X<X<X<X<X  j x.6.2.2.6.6.2.2.2.2.2.4.2.2.2.2.2.4.2.2.2.2.2.2.4.2.4.4.2.2.2.2.2.2.2.3.#.4 ;.,X<X<X<X<X<X<X<X<X<X<X<X<X<X<X",
"<X<X<X<X<X<X<X<X<X<X<X<X<X<X+ -.p.1.2.2.2.2.2.2.4.2.4.4.8.2.2.2.2.8.2.2.4.4.8.2.2.8.4.2.2.2.2.2.3.2.2.2.3.L + _.<X<X<X<X<X<X<X<X<X<X<X<X<X<X",
"<X<X<X<X<X<X<X<X<X<X<X<X<X  2 k.3.2.2.2.2.2.2.2.2.2.8.4.%.1.2.2.2.2.8.2.4.4.2.2.2.2.2.2.2.2.2.2.2.2.2.2.6.2.9 b :X<X<X<X<X<X<X<X<X<X<X<X<X<X",
"<X<X<X<X<X<X<X<X<X<X<X<X<X4 m i.$.2.2.2.2.2.2.2.2.2.4.4.8.2.2.2.2.2.8.%.2.2.8.2.2.2.8.%.2.2.2.2.2.2.2.2.2.3...+  X<X<X<X<X<X<X<X<X<X<X<X<X<X",
"<X<X<X<X<X<X<X<X<X<X<X<X<X8 L 5.2.2.2.2.2.2.2.2.2.2.2.4.2.2.2.8.4.2.2.1.2.8.2.2.2.4.2.1.2.2.8.2.2.2.2.6.6.6.2.< 2.<X<X<X<X<X<X<X<X<X<X<X<X<X",
"<X<X<X<X<X<X<X<X<X<X<X<X<X; X.5. .$.2.2.2.2.2.2.2.2.2.2.2.2.2.2.2.2.2.2.2.2.2.2.2.2.2.2.2.2.6.2.2.2.2.2.2.6.6.A 8 <X<X<X<X<X<X<X<X<X<X<X<X<X",
"<X<X<X<X<X<X<X<X<X<X<X<X<X@ O.| b 8.2.2.2.2.2.2.2.2.2.2.2.2.2.2.2.2.2.2.2.2.2.2.2.2.2.2.2.2.2.2.2.6.2.2.@.F 8.o.; Y.<X<X<X<X<X<X<X<X<X<X<X<X",
"<X<X<X<X<X<X<X<X<X<X<X<X<X@ o.8 F 5.2.6.6.6.2.2.2.2.2.2.2.2.2.2.2.2.2.2.2.2.2.2.2.2.2.2.2.2.2.2.2.2.2.6.6.g K 1.@ !.<X<X<X<X<X<X<X<X<X<X<X<X",
"<X<X<X<X<X<X<X<X<X<X<X<X<X; g 2 K 5.=.=.3.1.3.2.2.2.2.2.2.2.2.2.8.2.2.2.2.2.2.2.2.1.2.2.2.2.2.6.=.2.2.6.X.j 7 ..$ ^.<X<X<X<X<X<X<X<X<X<X<X<X",
"<X<X<X<X<X<X<X<X<X<X<X<X<X2 4 2 n 6.+.F 3.3.1.6.2.6.2.2.2.2.2.2.2.2.2.2.2.2.2.2.2.2.6.6.1.2.2.@.@.1.6.1.| c 2 c @ N.<X<X<X<X<X<X<X<X<X<X<X<X",
"<X<X<X<X<X<X<X<X<X<X<X<X<Xk & 4 b P o.Z o.1.3.1.L =.2.2.1.2.6.1.2.2.2.2.2.2.2.2.6.6.| 1.2.2.#.F  .3.1.| K n 3 8 O !.<X<X<X<X<X<X<X<X<X<X<X<X",
"<X<X<X<X<X<X<X<X<X<X<X<X<XL , 4 n K K F F o.3.O.Z Z X.3.6.6.1.| 1.2.2.2.2.2.2.2.6.| Z O.5.X.Z Z ..=.F F F C 4 8 ; W.<X<X<X<X<X<X<X<X<X<X<X<X",
"<X<X<X<X<X<X<X<X<X<X<X<X<Xf N.g m K K F K S K I K F Z  .;.3.X.Z | 1.2.1.2.1.2.1.| Z F X.X.} Z F F F F F L n 3 3 ; I.<X<X<X<X<X<X<X<X<X<X<X<X",
"<X<X<X<X<X<X<X<X<X<X<X<X<X<X<Xg i G F K F F S F K F Z Z L @.L Z F | 6.2.1.6.@.| Z } F F Z Z F F F F F F K n 4 b 8 <X<X<X<X<X<X<X<X<X<X<X<X<X",
"<X<X<X<X<X<X<X<X<X<X<X<X<X<X<XK 4 K G G S K K K Z K F K F F F Z F F | @.1.X.} F K F F F F F F F L F F F K n & v.z <X<X<X<X<X<X<X<X<X<X<X<X<X",
"<X<X<X<X<X<X<X<X<X<X<X<X<X<X<Xg.X G K G S K K K F F K K F F F F } Z } Z | Z Z Z F D F F F K K F F L Z F K c 7 <X%.<X<X<X<X<X<X<X<X<X<X<X<X<X",
"<X<X<X<X<X<X<X<X<X<X<X<X<X<X<X<X> v K S K F K K F F K K F F F F F Z Z F Z | | Z L F F } F F } K F K F F K g D <X<X<X<X<X<X<X<X<X<X<X<X<X<X<X",
"<X<X<X<X<X<X<X<X<X<X<X<X<X<X<X<X| 2 F F S K K K F F K F K K F K K Z Z F F F Z Z F F F F F F F F F F F F G @ 8.<X<X<X<X<X<X<X<X<X<X<X<X<X<X<X",
"<X<X<X<X<X<X<X<X<X<X<X<X<X<X<X<X<X- v G S K G K K F F K K F K F F } K K K F K K F F K F F F F K L F F F x , !.<X<X<X<X<X<X<X<X<X<X<X<X<X<X<X",
"<X<X<X<X<X<X<X<X<X<X<X<X<X<X<X<X<Xi.X D G G G x C K Z K F F F F F F K F F F K K F F F F F Z C K Z F } A + i.<X<X<X<X<X<X<X<X<X<X<X<X<X<X<X<X",
"<X<X<X<X<X<X<X<X<X<X<X<X<X<X<X<X<X<X} @ D G L k f Z K K F F K F F K F F F F F F K F D F L g c K F K C @ +.<X<X<X<X<X<X<X<X<X<X<X<X<X<X<X<X<X",
"<X<X<X<X<X<X<X<X<X<X<X<X<X<X<X<X<X<X<XD O n c 6 2 j G G Z F K F K L F K K F L F F Z Z Z k 6 c K S m @  .<X<X<X<X<X<X<X<X<X<X<X<X<X<X<X<X<X<X",
"<X<X<X<X<X<X<X<X<X<X<X<X<X<X<X<X<X<X<X<X6.> 9 x ; 4 9 G K L D F F F F F } F F F F G G c 2 6 n D 7 + w.<X<X<X<X<X<X<X<X<X<X<X<X<X<X<X<X<X<X<X",
"<X<X<X<X<X<X<X<X<X<X<X<X<X<X<X<X<X<X<X<X<XC Q {.*.@ 4 9 n G K K Z F D F F F F F K Z 9 2 3 7 9 @ k '.<X<X<X<X<X<X<X<X<X<X<X<X<X<X<X<X<X<X<X<X",
"<X<X<X<X<X<X<X<X<X<X<X<X<X<X<X<X<X<X<X<X<X<X9 e.{.j.3 2 6 ; k G F F F F F K G D x 8 4 9 7 $ ; l.<X<X<X<X<X<X<X<X<X<X<X<X<X<X<X<X<X<X<X<X<X<X",
"<X<X<X<X<X<X<X<X<X<X<X<X<X<X<X<X<X<X<X<X<X<X<X9 W  XV., s { q 5 x n D G D C c 7 4 4 7 9 9 #.@X<X<X<X<X<X<X<X<X<X<X<X<X<X<X<X<X<X<X<X<X<X<X<X",
"<X<X<X<X<X<X<X<X<X<X<X<X<X<X<X<X<X<X<X<X<X<X<X<XL J ,.& F.P.R # 2 4 9 9 2 . $ % 2 3 7 X N.<X<X<X<X<X<X<X<X<X<X<X<X<X<X<X<X<X<X<X<X<X<X<X<X<X",
"<X<X<X<X<X<X<X<X<X<X<X<X<X<X<X<X<X<X<X<X<X<X<X<X2.+ & ' L.' = J i 2 4 2 m >.! ^ ~ w 4 9 b <X<X<X<X<X<X<X<X<X<X<X<X<X<X<X<X<X<X<X<X<X<X<X<X<X",
"<X<X<X<X<X<X<X<X<X<X<X<X<X<X<X<X<X<X<X<X<X<X<X:   & / G.' X B <.*.i & $ S D.! ^ ~ w 2 0.g V <X<X<X<X<X<X<X<X<X<X<X<X<X<X<X<X<X<X<X<X<X<X<X<X",
"<X<X<X<X<X<X<X<X<X<X<X<X<X<X<X<X<X<X<X<X<X<X<X< D L Y A.q u W *.*.9 x ;.$ O 2 > @ 4 @ =.T.+ h <X<X<X<X<X<X<X<X<X<X<X<X<X<X<X<X<X<X<X<X<X<X<X",
"<X<X<X<X<X<X<X<X<X<X<X<X<X<X<X<X<X<X<X<X<X<Xo 9 <X<XX & 5 J B W W X j.-X7 > > x 7.f.k k '.1.+ <X<X<X<X<X<X<X<X<X<X<X<X<X<X<X<X<X<X<X<X<X<X<X",
"<X<X<X<X<X<X<X<X<X<X<X<X<X<X<X<X<X<X<X<X<X<X- <X<X1 , D 9 n J J i $ +X/.o n x 8 0.!.+.2 ~.XXC < <X<X<X<X<X<X<X<X<X<X<X<X<X<X<X<X<X<X<X<X<X<X",
"<X<X<X<X<X<X<X<X<X<X<X<X<X<X<X<X<X<X<X<X<Xo X <X<Xf 4 9.P @ i G 3 x @X-.+ I v o + 7.h.o ~.>XT.  <X<X<X<X<X<X<X<X<X<X<X<X<X<X<X<X<X<X<X<X<X<X",
"<X<X<X<X<X<X<X<X<X<X<X<X<X<X<X<X<X<X<X<X<Xo 2 o <Xm k  .; 8 9 4 @ p.(.4 4 . 2 V.+.$ -.@ l.+Xc   < <X<X<X<X<X<X<X<X<X<X<X<X<X<X<X<X<X<X<X<X<X",
"<X<X<X<X<X<X<X<X<X<X<X<X<X<X<X<X<X<X<X<Xo $ * O i 5 + + ;.<X<Xv 9 B...X ; -.-X;X:.X v 9 7   t R . <X<X<X<X<X<X<X<X<X<X<X<X<X<X<X<X<X<X<X<X<X",
"<X<X<X<X<X<X<X<X<X<X<X<X<X<X<X<X<X<X<X<X. y.[.D.i 2 D <X<X<X0.8 4 x @ G B.+XB.x X u 9 2 t r.H.$XT k <X<X<X<X<X<X<X<X<X<X<X<X<X<X<X<X<X<X<X<X",
"<X<X<X<X<X<X<X<X<X<X<X<X<X<X<X<X<X<X<X<XX %X&XK.e G <X<X#.k   D C + x ^.B.v o 2 B *.) t 3 S.#X*XJ.8 <X<X<X<X<X<X<X<X<X<X<X<X<X<X<X<X<X<X<X<X",
"<X<X<X<X<X<X<X<X<X<X<X<X<X<X<X<X<X<X<X<X. $X=X%X* P L 8   9 i.`.`.+.@ j 2 4 9 9 Q *.>.*.t y &X=Xt.k <X<X<X<X<X<X<X<X<X<X<X<X<X<X<X<X<X<X<X<X",
"<X<X<X<X<X<X<X<X<X<X<X<X<X<X<X<X<X<X<X<Xo * K.%XM # o u 9._..X|.|.|.w.6 @ G 9 t I H &.,.3.> y.J.  - <X<X<X<X<X<X<X<X<X<X<X<X<X<X<X<X<X<X<X<X",
"<X<X<X<X<X<X<X<X<X<X<X<X<X<X<X<X<X<X<X<X<X; X e 9 u k.`.OXOX.X.X.X.XOXQ.b , 2 9 J H H ( ,.G & X f <X<X<X<X<X<X<X<X<X<X<X<X<X<X<X<X<X<X<X<X<X",
"<X<X<X<X<X<X<X<X<X<X<X<X<X<X<X<X<X<X<X<X<X<X<X+ 2 , P @.2.g.v.n.Q.~.~.~.n.;.n 5 i G I G ( ) 7 <X<X<X<X<X<X<X<X<X<X<X<X<X<X<X<X<X<X<X<X<X<X<X",
"<X<X<X<X<X<X<X<X<X<X<X<X<X<X<X<X<X<X<X<X<X<X<X<X<Xz @ , X . X @ 2 8 ; > 9 8 4 $ @ 2 m N N M 7 <X<X<X<X<X<X<X<X<X<X<X<X<X<X<X<X<X<X<X<X<X<X<X",
"<X<X<X<X<X<X<X<X<X<X<X<X<X<X<X<X<X<X<X<X<X<X<X<X<X<X8 s C.' _ ] T > k.w.O R ` _ ' ! 0 3 x m + <X<X<X<X<X<X<X<X<X<X<X<X<X<X<X<X<X<X<X<X<X<X<X",
"<X<X<X<X<X<X<X<X<X<X<X<X<X<X<X<X<X<X<X<X<X<X<X<X<X<Xd 0 ] Z.Z.] a g <X<X; U C.Z.C.] $ l <X<X<X<X<X<X<X<X<X<X<X<X<X<X<X<X<X<X<X<X<X<X<X<X<X<X",
"<X<X<X<X<X<X<X<X<X<X<X<X<X<X<X<X<X<X<X<X<X<X<X<X<X<X+ o 2 3 0 & + #.<X<XD % * * * & + <X<X<X<X<X<X<X<X<X<X<X<X<X<X<X<X<X<X<X<X<X<X<X<X<X<X<X",
"<X<X<X<X<X<X<X<X<X<X<X<X<X<X<X<X<X<X<X<X<X<X<X<X<X<X<X; y a a s > <X<X<XF % a a U w c <X<X<X<X<X<X<X<X<X<X<X<X<X<X<X<X<X<X<X<X<X<X<X<X<X<X<X",
"<X<X<X<X<X<X<X<X<X<X<X<X<X<X<X<X<X<X<X<X<X<X<X<X<X<X<Xo . q w # C <X<X<X<X; = r q   + <X<X<X<X<X<X<X<X<X<X<X<X<X<X<X<X<X<X<X<X<X<X<X<X<X<X<X",
"<X<X<X<X<X<X<X<X<X<X<X<X<X<X<X<X<X<X<X<X<X<X<X<X<X<X<X<Xo 8 b C <X<X<X<X<X<XC C k + <X<X<X<X<X<X<X<X<X<X<X<X<X<X<X<X<X<X<X<X<X<X<X<X<X<X<X<X",
"<X<X<X<X<X<X<X<X<X<X<X<X<X<X<X<X<X<X<X<X<X<X<X<X<X<X<X<X<X<X<X<X<X<X<X<X<X<X<X<X<X<X<X<X<X<X<X<X<X<X<X<X<X<X<X<X<X<X<X<X<X<X<X<X<X<X<X<X<X<X",
"<X<X<X<X<X<X<X<X<X<X<X<X<X<X<X<X<X<X<X<X<X<X<X<X<X<X<X<X<X<X<X<X<X<X<X<X<X<X<X<X<X<X<X<X<X<X<X<X<X<X<X<X<X<X<X<X<X<X<X<X<X<X<X<X<X<X<X<X<X<X",
"<X<X<X<X<X<X<X<X<X<X<X<X<X<X<X<X<X<X<X<X<X<X<X<X<X<X<X<X<X<X<X<X<X<X<X<X<X<X<X<X<X<X<X<X<X<X<X<X<X<X<X<X<X<X<X<X<X<X<X<X<X<X<X<X<X<X<X<X<X<X",
"<X<X<X<X<X<X<X<X<X<X<X<X<X<X<X<X<X<X<X<X<X<X<X<X<X<X<X<X<X<X<X<X<X<X<X<X<X<X<X<X<X<X<X<X<X<X<X<X<X<X<X<X<X<X<X<X<X<X<X<X<X<X<X<X<X<X<X<X<X<X",
"<X<X<X<X<X<X<X<X<X<X<X<X<X<X<X<X<X<X<X<X<X<X<X<X<X<X<X<X<X<X<X<X<X<X<X<X<X<X<X<X<X<X<X<X<X<X<X<X<X<X<X<X<X<X<X<X<X<X<X<X<X<X<X<X<X<X<X<X<X<X"
};
