/* XPM */
static char *_7cdf293220e454bdb29c2f257a149a9EdfTZdb3RkPE6C79[] = {
/* columns rows colors chars-per-pixel */
"70 70 163 2 ",
"   c #000D13",
".  c #001116",
"X  c #00151B",
"o  c #011A1F",
"O  c #031D23",
"+  c #091E26",
"@  c #051E29",
"#  c #081F28",
"$  c #062126",
"%  c #092227",
"&  c #062129",
"*  c #0A242C",
"=  c #0D292E",
"-  c #10262B",
";  c #1A272F",
":  c #11292F",
">  c #0D2631",
",  c #0E2932",
"<  c #102733",
"1  c #122C34",
"2  c #142E39",
"3  c #163137",
"4  c #193136",
"5  c #16313A",
"6  c #1A343D",
"7  c #1E393F",
"8  c #20353E",
"9  c #21393E",
"0  c #1C3641",
"q  c #1E3942",
"w  c #223C45",
"e  c #293D46",
"r  c #243E49",
"t  c #283F4E",
"y  c #254146",
"u  c #26414A",
"i  c #29444D",
"p  c #2D494F",
"a  c #30464F",
"s  c #2B4651",
"d  c #2E4A53",
"f  c #2F4D58",
"g  c #304753",
"h  c #324D55",
"j  c #334E59",
"k  c #355156",
"l  c #385457",
"z  c #36525B",
"x  c #3A555C",
"c  c #3C595E",
"v  c #375561",
"b  c #3B5661",
"n  c #3E5A63",
"m  c #3F5D69",
"M  c #415760",
"N  c #415D66",
"B  c #425E69",
"V  c #436066",
"C  c #45626B",
"Z  c #48666E",
"A  c #4A686F",
"S  c #466671",
"D  c #496671",
"F  c #466871",
"G  c #4C6A74",
"H  c #4D6E79",
"J  c #516E76",
"K  c #516F7A",
"L  c #4E707A",
"P  c #517077",
"I  c #53737C",
"U  c #5A767D",
"Y  c #59787F",
"T  c #557680",
"R  c #587781",
"E  c #567983",
"W  c #5A7B85",
"Q  c #5C7E89",
"!  c #607E87",
"~  c #5E818C",
"^  c #5F8793",
"/  c #62838D",
"(  c #6A858D",
")  c #66888F",
"_  c #718B8F",
"`  c #638691",
"'  c #688690",
"]  c #668994",
"[  c #6B8C95",
"{  c #648D98",
"}  c #6B8E99",
"|  c #728C94",
" . c #6F9094",
".. c #6D919C",
"X. c #749397",
"o. c #71939D",
"O. c #79989F",
"+. c #6F96A2",
"@. c #7295A1",
"#. c #7599A4",
"$. c #7B9BA4",
"%. c #769CA8",
"&. c #7B9FAA",
"*. c #7CA2AD",
"=. c #7EA4B1",
"-. c #82959E",
";. c #819BA3",
":. c #829EA9",
">. c #85A1A7",
",. c #83A4AD",
"<. c #88A3AB",
"1. c #85A8AD",
"2. c #81A5B0",
"3. c #84AAB5",
"4. c #8BACB5",
"5. c #85ADB9",
"6. c #8AAFB9",
"7. c #95ADB3",
"8. c #93ADB5",
"9. c #8CB1BB",
"0. c #91B2B9",
"q. c #92B4BE",
"w. c #99B0B8",
"e. c #9AB6BD",
"r. c #99B5BE",
"t. c #93B8BE",
"y. c #9BB9BF",
"u. c #A0BABF",
"i. c #8FB9C5",
"p. c #92B6C2",
"a. c #95BBC4",
"s. c #97BDC7",
"d. c #9CBDC2",
"f. c #95BFC9",
"g. c #9ABDC9",
"h. c #A4BFC6",
"j. c #9DC2CC",
"k. c #9CC4CF",
"l. c #A3C1C6",
"z. c #A2C4C8",
"x. c #AAC4CA",
"c. c #ACC8CF",
"v. c #A6CBD3",
"b. c #A8C9D1",
"n. c #A8CBD3",
"m. c #ACCBD2",
"M. c #AFCFD6",
"N. c #A7CFDA",
"B. c #ACCFD9",
"V. c #B2CCD0",
"C. c #AAD0D8",
"Z. c #ADD4DD",
"A. c #B3D1D7",
"S. c #B4D0D6",
"D. c #B8D1D6",
"F. c #B1D4DC",
"G. c #B9D7DF",
"H. c #B7D8DF",
"J. c #B4DBE3",
"K. c #BCDAE0",
"L. c #BDE2E7",
"P. c #BCE4EB",
"I. c #C4E3E7",
/* pixels */
"O O O O O # + @ & & * % + O O O # # # @ O O o o & * @ * O O O O o o @ O O O O O + @ & & * * $ + O o O O O o o # + + o X o O o O O O $ O O O ",
"+ + * = 2 6 r s s u w u s r 5 1 2 2 > 2 % O O * > 6 r w 1 * O o $ > > 1 5 e r 0 > @ O > & @ @ % O O o O # > C ' Z Z P n 2 O o O > , 2 2 5 q ",
"O & 2 i U 7.x.V.D.j.o.] { @.#.$.:.;.T t > $ % < C 0.h.} w > $ O % 6 B { 8.w.e.4.r < J :.$.| G 2 > $ O O & r #.p.3.3.S.I.8.f X # 0 S / ..&.#.",
"O & 5 m [ -.>.2.2.f.B.b.m.G.G.A.c.M.,.s > $ * 2 I 0.&.[ h 3 & + 2 C ..&.%.&.=.$.s S m.M.e.w.,.1 & * O O % 2 H { { ] ` 2.l.Z . 1 I *.k.b.h.s.",
"O & 0 I H 3 m L j B Q / [ ` T G n n n r * O & 2 g z j x x 2 & # s T T ..} ] Q H r E *.{ ^ Q I x * * o & * 3 Q #.^ I ` ^ C 7 X 7 / Q ` E Z I ",
"& * q ..C p V r p c n B G I m z x z j w * O $ 5 c Z T n x 1 # % f C n ` { S B m 6 W { ] E m C F q > o * & 7 +.+.M m T W n w X 7 W H F Z C A ",
"& > s =.D h n s z d n N N D j z n x z q > O * 3 z P H x x < * % v F x n Z N C j 2 H ^ Y n l c c h > O * * 6 +.T y n B C N p o d ] V m Z m C ",
"O & s i.Q v B b v s j z d r u x c M v w > O = 2 y V Z x z 1 * = z m m n n m N v 3 H Y m c b x c z > O * > 6 I z V F B C n i O C Q c x N V V ",
"@ 2 > T W N N m m N m b j r s b x c c w * + > 2 y I F M z , & > q n S S S j B m 5 E Z z c c x c j > O % > 2 r N Y H M n N w O N A M c c c z ",
"+ 2 s f K S B N B B N B D N x x x h g r & O & * * 2 - 1 5 > & > 5 q s f r 0 s r > T F m N n c n z * O + * 6 j V n x b x d 2 % j B B B n x i ",
"O > H m j B N N N C C n D H M x N l h u $ $ > y s k F I v 2 O 0 S G W ' K v f r 2 n C N N x z M v > O O @ s V v B n j q 3 3 < h Z N c B B 9 ",
"% u w f S N B B B m D C N V C C Z b h w O * 2 Y l.d.o.I C 5 O 5 G E ~ Q ] } [ K 5 r C N B m x N z = O O @ r N x b a w w w < - h c c l x j < ",
"% G r m Q N B B N C I D N n b D Z B F 6 & % 6 Z I l h h z 0 @ > z S F V C C N C q < f N V U V c q @ + O # 6 c h 6 * 1 6 3 O 2 k x h c u < > ",
"O z v m E Z n B B G m x N c x N C n ) j $ + w x l x c x l 0 @ 0 B x S N m D n v q > * 0 s u 5 @ O O O O $ - w w - o X O o o $ p b v k 5 3 1 ",
"O u h f S N n N B N N Z N c c M n l z p + O w N c c x c l 7 @ r H n Z V n V n g j s > & @ O O 0 k * O $ # 1 * 6 c Z j 7 = O o 3 r s 6 6 5 * ",
"@ 3 6 z W n N J n B C V m n c n n c b q $ + w B c c c x x 6 @ q S m o.o.n x b c j v g d 1 & t ` { q > , + O h ;.$.[ I K s O O & % > < # & & ",
"> 2 , v Q z ~ I b B N N m n v b c c l 5 % @ w N n v c x x 4 & 2 u b [ Z c n c c v n c c 0 1 V / B w 2 > * > f C c V l i 4 O o % 6 M e ! J 1 ",
"* 5 0 f C b ' m Z B n N N b x x l c p > # O 7 b z l x x z 4 @ < u b k l N N M v Z M l c d > n Z l i > * & * > w c n w % O $ O 6 F ( A W J w ",
"> 0 0 q l F R Z H N n N N i c N V Z w * & & > p n L I b d % % 1 k C x N N b j v N c c l x 2 q C c i = & $ O $ & o X X O O # * + % * 4 - - * ",
"> 0 q 0 s b I E E I K U s 2 g C B 8 * < * & * 3 d L S p q % 3 2 f C c M v n h b n x c c n r 2 r q 5 > $ & & > % * 1 6 w h H H N y * + + O O ",
"> 2 w 2 > * # 6 g z d p 3 < 1 * % $ = = & * * 3 5 6 6 2 > * < 2 q m m n N g p C V c c N B h 1 f j q * % > > - u W 4.g.=.,.*.p.5.` S r q > $ ",
"> , 1 5 j X.;.( Q K C S K K K I I n h y , * & & $ $ & $ $ $ $ * 5 s Z z r q q r v C C n v u 0 0 s r 1 % = * 1 #.K.7.U B n z ' Z.F.3.E v w & ",
"> > < M K U R R U G V N B C G H Z N N i O O & $ * * * * * $ $ % 1 5 0 4 1 1 , , > 5 q 0 6 0 q < * % > * = $ 4 ~ G 3 1 p l l p C $.} @.H w O ",
"& % - < < < 4 w w w w d z g g f p 7 - * - = = = = 1 2 > & $ O O = 1 w s s s i s u q 7 < & * + # 5 6 2 = = o m ..p h c V c l c k x z n C 6 $ ",
"+ $ & 2 j M j u 6 4 1 < * $ $ O + y m G U B m m 0 r j 0 O $ O $ j G W W I I I B c c N l y : % x P c l 0 % O C =.n n C Z x h n Z V b x D p O ",
"+ & 2 x K ! W F x g y 6 , , , & < z I I G b j u 2 3 , , % $ $ O h ' G G Z C V x x l l x c w 0 I V c c 6 & O u G N v n n B C P ! Z b x N f O ",
"& 2 5 w q 5 1 : 1 - - 5 2 2 > * * 2 q u w 6 6 6 2 1 5 6 * O & < w N i 8 1 4 9 w e e w 7 : + < x p p 0 = & % w D N n N M v Z G x c v x b w $ ",
"O * 2 5 0 r r w 0 6 3 3 = * * & * 1 1 = - 1 1 3 , 5 0 3 * % % * # . o - 4 5 5 4 : - O o X O $ $ $ O O $ & + 7 *.I x B n v m b B n M n z w + ",
"$ O * > = > = * & = > * $ $ O O O & * : = < 2 * @ & & @ & O @ $ * 2 n @.3.5.&...E b p n H G C b h p w 3 % $ 2 W D n B Z N B x g C C B x q & ",
"O O o o % % $ O O O & * = 2 w y q 3 5 1 > * @ 6 u 0 2 2 , > & O * v p.C.z.b.M.N.4.....=.5.v.P.v.s.} N 6 $ * < Z U v C D b B x u C B B b 0 O ",
"O $ = < = 3 2 $ + & O * 1 h L m m G E ] ' | | { H Z C y 2 > % X q a.#.I D R ! K G K W I m U O./ X.C w * O & = I [ C B x N j C G B N Z z 7 O ",
"O * 7 i 7 3 w w > O O > 9 B p 5 n ] 3.3.1.<.:.@.m F ..z r @ + O h v.Z n B Z Z b B n x x l k z z p f 2 & + O * ..I z N D x r R B n n n l 3 & ",
"O $ 5 z J ( A 7 1 $ O 3 i N Z 1.*.@. .H T F Z G c j R H 0 & O O 7 p.W n V N n V A V l c N n c N N h > % $ o * ) V m C h 1 < s Z G G Z x 1 > ",
"o o s $.l.u.[ w > * o 3 h Q a.&.R H C B Q V n G M c c N q O O $ > Z ~ n n Z Z B m b n c C c p f s q 2 @ O $ $ i i 8 ; i K b r ; r x h 6 > + ",
"o O p Y V z n k 5 * O O x L C F Z C V n H n n H R C c x q $ o * = > u j j v c x n n k i s C / ~ S z 6 > & & & O X h 1.L.P.C.v.4.z > * 2 < O ",
"o $ p I N x l h 5 = O O p R c D C m N N C m x K H n v j 0 & O & = j E ] ` C f i s q d G ~ ` T C m b 0 0 * * = y ,.v.g.F.J.F.l.h.[ q 2 r , @ ",
"o % d W V x V m 5 = + O p I n B C N N N n n c V B n v j q & O O @ n W J Z V B B c 7 b C C n j j q i q 2 o 3 = P Z.] B S T B C B V n 0 , 5 > ",
"O O y F n x W V & * $ O d I x N m N N n n N N N B n b b 0 , & O + = 5 6 3 6 6 0 7 3 7 7 q q q 4 1 0 > O o 1 * V U B D H S V V b n N d 1 , > ",
"O $ 3 h x x z s > & $ * e A b B K D n D G N x v M c x u 1 , O o O O O * = = * * : = $ * = % > = % O O O & , 5 I D C W ] o.) V x c h y 2 , 2 ",
"O $ > w l h i y 6 * $ = 1 i F V Z n y F Z n B C n h x r 2 = O + = = 1 = % % * % $ O $ O $ & + & O O % & % , k G n N Z V c n c x x s d 5 1 , ",
"O O 5 5 q y 6 u 0 = $ * 4 q N y 3 0 v F h z B m N b N b 0 > O & 6 0 0 r p 6 * * * $ $ $ * , 3 = * & & O * * k F x c c x x v N x m c 5 3 > > ",
"* $ = 3 5 2 = 2 = % $ $ = 3 6 m ] ..] H U I B N B N j p 6 > O O w n c N c 0 * * 1 2 2 > , 5 2 1 5 = $ O & & s F h x I W Z N C N S d 3 2 , > ",
"O O $ $ O o O o $ $ O $ = > F ..W N b M N m n S Z c N u > 1 $ o > 6 7 w 0 = 2 5 0 m ) ,.8.e.e./ 5 2 & O & * 0 m h w g V S s 6 i u q i , 2 & ",
"O O & , 3 $ o $ O $ $ o = 2 S l c B B B B B C G Z N c h 5 , O O , 3 5 2 $ * > s O.H.I.x.w.j.j.f.n 5 1 & @ & 3 C s w 6 6 w r s s u y 6 > > + ",
"O $ 3 p y 3 O 3 4 1 * $ > 2 b n B Z m F C B B H C d j s 2 > O O + & - % # i J 8.I.O.G n H @.' m H Z 2 * & $ > q q q q y w r w y w 4 2 & $ O ",
"o = 3 w k I F 7 > 2 & $ > , r p q y p z z n C G V C N w 3 = o O $ O O x ;.y.e.1.J z x c V L J B n V r , & O O O @ & = & * < * > = $ $ $ $ O ",
"$ = * N 4.F.a.,.m * O $ * > 6 u B S C s e j V n x i 1 4 2 O o O O $ % ` ,.V v v n n B B N n N B N v g 0 & + + o O o O O o $ O O o o o $ O O ",
"& O - ~ <.I z K R 4 o O & & = 6 s N Z z u 6 6 4 % X $ O X o O O O O 2 ' G s N B V m B B B C D B N n f r * - 4 i w = + o O O o $ $ o $ O o O ",
"O * d G M l l k x q o O o o o X         . X o O O + - 4 r 1 O o O * q ] N v N m N N N N B B B B B b j r 2 * y y s n A N r 0 < O * = * 7 5 $ ",
"$ $ V E l c c l n y o # w d 3 6 f n d l I ..#.@.o.O.#.} I 6 + O & % s W x N N D B Z B N B B N Z Q / B b 7 o < m 4.j.a.t.4.@.x O : 3 6 F q o ",
"O O 6 F c x x c x w o < Z 9.6.t.p.#.) &.$.o.' 2.q.' ! D z = $ O + & 0 ` B M B C B B Z N B B N B C T Q N 0 * = W 9.F l l Z M p * 5 3 z E 7 o ",
"@ O * p x l c l f 1 o * y W U W G p u x N c x F n j b x h = & O $ @ 6 o.I N S B B N N J B B B N b N D g w 3 4 l %.p c c x c u % 5 1 n F > O ",
"O O o l N c c p 0 = $ & 7 F c x x n n c x l h h l N C c k & & O $ $ 2 ` ` b B B N n T K N N N v B B D x r < w k ..v b B V n 3 O 5 3 5 d > O ",
"O O % d F V p e u 2 * * 1 w p l z h i w i h n M n m d q w $ O O $ $ 3 ~ #.b N B N B D B D D B B B B V b r 1 1 i d n z x l p > o & 1 3 y = o ",
"O @ & < 6 1 % % = 4 1 % * O X O X X + = = > 1 1 % < 5 * $ & O O $ O 3 #.=.H D H n D Q Q K J B N N B n v y 1 2 1 5 a y q 0 0 * O * = , 5 > $ ",
"O O + o O - : % O > 2 , 7 0 0 y s g i z H Z n v C W E z u 3 & @ $ X C N.} @.` N J D D R B B B N N B B x y 1 5 > 5 i d u q q * O = & > , , o ",
"o % * 6 w d h x L Z 1 n 2.l.e.h.v.z.p.9.p.p.a.&...H K V f 6 * O $ X Z p.~ Z C W W n b N N B B B m C m l y , $ & % > < 2 2 * & * $ O = 2 = o ",
"o $ 1 p l [ 4.3.*.C 6 I R [ _ | [ q.g.W H H G n x N n Z d , > O $ O 2 m h e / L V n N n N B B B b c c c i & o & + % X X X O O % $ O $ O O O ",
"O o > d { 0.[ K C r H A Z z x H S D D S W B c c x x x x z 0 > $ $ O = c V B I V D m B b n n b b z x c n p $ & = 2 1 0 s q * & O $ O $ * & o ",
"O O > I } S n v 5 n H n C N N D D n b B F n c c x m b x f q > O $ o 7 C V n N C Z M c c v v b b l m c c y & * 1 p H &.@.*.v & O & & 1 6 y O ",
"o O < n V s s h q N N N B B m N C D B B Z x c c N c c c l y > $ O O h z N n N B G N x c c c c l l x l n q & = * b k.f./ ] H > O : 4 7 p J 6 ",
"O O : k g s B S t B V N n B B N N N B B c c n B c l l c c u * O O O h z n n m N C c x c N n c c z x x l 2 O * & I Z...D C z , O % 4 9 Y &.i ",
"O O : l N B B B z S B N B N N m N n b N n N c l n c N l c 0 $ o O o d n l x c x x N Z c c D c x h z l s > $ = * z #.N x l z 2 O * 1 w o.I 6 ",
"O O $ z B N B B N v N B K D z v N x c b b c c c b N M c s 3 $ O O o 6 x x x x c z C U j B c c x c / b q 2 $ = * p E n z c l 3 o * 1 w H Z y ",
"O O O d F c n n v v m N I ^ B x x n c x x x c l c c z z q 0 & $ O O & r x c n H F / Q n V x x x k c g q , $ > * y n l c C i , @ % 0 9 x n i ",
"O O O , m c h f z l z F ~ ~ ~ D m n c c x x c m m n n q 0 0 $ O O O & 3 0 m Z H ` o.B F H b m V z 5 q 0 * O = * p A l V G 5 2 O = y w c n i ",
"@ @ O & 6 r i c x m v i k f j v b m C C m C C c k p y 5 6 2 & O O $ @ 2 6 r d d d d r s s s s s f s w 2 * o & * u C p v c > , O * w y c j 6 ",
"& @ O O 1 6 r i n F f q r q 0 0 0 w u u s u 0 6 5 6 3 > , , = o o O & 2 0 0 r u w w 5 q 0 q q r r 6 2 , & $ % * u C u 0 q 1 , O * 1 w n b 6 ",
"& O $ O @ * 2 5 6 5 5 > > & * * = = > > , , > > * & $ & & O & & O O O > , 1 1 1 1 2 , 2 2 2 0 2 2 , > = = $ $ * 0 m u , , 5 & & # O + h x = ",
"$ O @ * > @ $ & * > & $ O @ O O O $ $ O $ > > > , , , , & & & $ O O O & & & & & & & & & & & & & & & & * * $ O o * 0 > * * & * = # O O O % % "
};
